<mxfile host="app.diagrams.net" modified="2021-02-22T08:29:50.302Z" agent="5.0 (Windows NT 10.0; Win64; x64) AppleWebKit/537.36 (KHTML, like Gecko) Chrome/86.0.4240.198 Safari/537.36" etag="vbdZwJhOYWXR03IakKx5" version="14.4.2" type="github">
  <diagram id="hRJQdXt8Dd4GwQT8U-zY" name="Page-1">
    <mxGraphModel dx="448" dy="234" grid="0" gridSize="10" guides="1" tooltips="1" connect="1" arrows="1" fold="1" page="1" pageScale="1" pageWidth="827" pageHeight="1169" math="0" shadow="0">
      <root>
        <mxCell id="0" />
        <mxCell id="1" parent="0" />
        <mxCell id="6vxJXJ5NOJiFdx2TQZ2P-1" value="&lt;h3&gt;&lt;span style=&quot;font-weight: normal&quot;&gt;&lt;font style=&quot;font-size: 16px&quot;&gt;已知全局信息&lt;/font&gt;&lt;/span&gt;&lt;/h3&gt;" style="rounded=1;whiteSpace=wrap;html=1;" parent="1" vertex="1">
          <mxGeometry x="16" y="215" width="120" height="60" as="geometry" />
        </mxCell>
        <mxCell id="6vxJXJ5NOJiFdx2TQZ2P-2" value="&lt;h3&gt;&lt;span style=&quot;font-weight: normal&quot;&gt;&lt;font style=&quot;font-size: 16px&quot;&gt;已知部分信息&lt;/font&gt;&lt;/span&gt;&lt;/h3&gt;" style="rounded=1;whiteSpace=wrap;html=1;" parent="1" vertex="1">
          <mxGeometry x="256" y="215" width="120" height="60" as="geometry" />
        </mxCell>
        <mxCell id="6vxJXJ5NOJiFdx2TQZ2P-4" value="&lt;h3&gt;&lt;span style=&quot;font-weight: normal&quot;&gt;&lt;font style=&quot;font-size: 16px&quot;&gt;POMDP&lt;/font&gt;&lt;/span&gt;&lt;/h3&gt;" style="rounded=1;whiteSpace=wrap;html=1;" parent="1" vertex="1">
          <mxGeometry x="256" y="335" width="120" height="60" as="geometry" />
        </mxCell>
        <mxCell id="6vxJXJ5NOJiFdx2TQZ2P-6" value="&lt;h3&gt;&lt;span style=&quot;font-weight: normal&quot;&gt;&lt;font style=&quot;font-size: 16px&quot;&gt;MDP&lt;/font&gt;&lt;/span&gt;&lt;/h3&gt;" style="rounded=1;whiteSpace=wrap;html=1;" parent="1" vertex="1">
          <mxGeometry x="16" y="335" width="120" height="60" as="geometry" />
        </mxCell>
        <mxCell id="6vxJXJ5NOJiFdx2TQZ2P-10" value="" style="endArrow=classic;html=1;exitX=0.5;exitY=1;exitDx=0;exitDy=0;entryX=0.5;entryY=0;entryDx=0;entryDy=0;" parent="1" source="6vxJXJ5NOJiFdx2TQZ2P-1" target="6vxJXJ5NOJiFdx2TQZ2P-6" edge="1">
          <mxGeometry relative="1" as="geometry">
            <mxPoint x="-64" y="315" as="sourcePoint" />
            <mxPoint x="36" y="315" as="targetPoint" />
          </mxGeometry>
        </mxCell>
        <mxCell id="6vxJXJ5NOJiFdx2TQZ2P-11" value="建立模型" style="edgeLabel;resizable=0;html=1;align=center;verticalAlign=middle;" parent="6vxJXJ5NOJiFdx2TQZ2P-10" connectable="0" vertex="1">
          <mxGeometry relative="1" as="geometry" />
        </mxCell>
        <mxCell id="6vxJXJ5NOJiFdx2TQZ2P-12" value="" style="endArrow=classic;html=1;exitX=0.5;exitY=1;exitDx=0;exitDy=0;entryX=0.5;entryY=0;entryDx=0;entryDy=0;" parent="1" source="6vxJXJ5NOJiFdx2TQZ2P-2" target="6vxJXJ5NOJiFdx2TQZ2P-4" edge="1">
          <mxGeometry relative="1" as="geometry">
            <mxPoint x="86" y="265" as="sourcePoint" />
            <mxPoint x="86" y="345" as="targetPoint" />
          </mxGeometry>
        </mxCell>
        <mxCell id="6vxJXJ5NOJiFdx2TQZ2P-13" value="建立模型" style="edgeLabel;resizable=0;html=1;align=center;verticalAlign=middle;" parent="6vxJXJ5NOJiFdx2TQZ2P-12" connectable="0" vertex="1">
          <mxGeometry relative="1" as="geometry" />
        </mxCell>
        <mxCell id="6vxJXJ5NOJiFdx2TQZ2P-15" style="edgeStyle=orthogonalEdgeStyle;rounded=0;orthogonalLoop=1;jettySize=auto;html=1;entryX=0.5;entryY=0;entryDx=0;entryDy=0;" parent="1" target="6vxJXJ5NOJiFdx2TQZ2P-1" edge="1">
          <mxGeometry relative="1" as="geometry">
            <mxPoint x="196" y="190" as="sourcePoint" />
          </mxGeometry>
        </mxCell>
        <mxCell id="6vxJXJ5NOJiFdx2TQZ2P-16" style="edgeStyle=orthogonalEdgeStyle;rounded=0;orthogonalLoop=1;jettySize=auto;html=1;entryX=0.5;entryY=0;entryDx=0;entryDy=0;" parent="1" source="6vxJXJ5NOJiFdx2TQZ2P-14" target="6vxJXJ5NOJiFdx2TQZ2P-2" edge="1">
          <mxGeometry relative="1" as="geometry" />
        </mxCell>
        <mxCell id="6vxJXJ5NOJiFdx2TQZ2P-14" value="&lt;h3&gt;&lt;span style=&quot;font-weight: normal&quot;&gt;&lt;font style=&quot;font-size: 16px&quot;&gt;优化问题P&lt;/font&gt;&lt;font style=&quot;font-size: 10px&quot;&gt;1&lt;/font&gt;&lt;/span&gt;&lt;/h3&gt;" style="rounded=1;whiteSpace=wrap;html=1;align=left;" parent="1" vertex="1">
          <mxGeometry x="66" y="47" width="263" height="118" as="geometry" />
        </mxCell>
        <mxCell id="6vxJXJ5NOJiFdx2TQZ2P-18" value="" style="shape=image;verticalLabelPosition=bottom;labelBackgroundColor=#ffffff;verticalAlign=top;aspect=fixed;imageAspect=0;image=data:image/png,iVBORw0KGgoAAAANSUhEUgAAAaIAAAD7CAYAAAAo/ZDkAAAAAXNSR0IArs4c6QAAAARnQU1BAACxjwv8YQUAAAAJcEhZcwAAEnQAABJ0Ad5mH3gAANJmSURBVHhe7J0FgBfFF8dHCQkFQUQBC0QQsbEbMbC7E0zs7u4EuwMLEbvAVgQLBQyURkppkJR0/+/z3X2/2zvvd8QfDjz2e7e/3ek3se/Nm5mdWSEyhAwZliBoYjSyf/6ZF8qtWC6ssMIKYV7yjNs///wTypUrZ3b/hBXNzTwE+5U9fj38iiuuSHRyy5AhQ9lBJogyLHHQwObNmxfKm7BRc0sEDfa6I4wiE0ImmMwQCySEjuyjUN6e1UgRUtz0myFDhrKCTBBlKBW4AIpMyNDgyiXazfxAOLQiaUcWJhNCGTKUPWSCKMMSR3qIDaDt/P3332HkH3+Ef0xTwq1KlSph5qxZMuOvStWqoV7duvKPANJdvxkyZChryARRhiUOGpgLEZobgqdt27ZhwoQJYcMNNwyzZs8Or3bqFHbYYYfQqFGjMOmvv0K3rl1D++efCytVXEnDc4T3eAifIUOGsoMFGx/J8J+H9zYQBGgo+VDUjXDeV/HnQlfKTn5SzyxI4MmFiNuPGzcu/GXC5swzzwwnnHCCBFDfvn3DcccdF4455hjZ11p9dfMv7/ECBgMCaFGFUBJVDml6gMzJBTwfaT9LC6LDn/0yO+bdFoQ+z0dRvx4Xgt7hT2mfzN9RlxkyLClkgmg5AexbjMvuMKRp06aFcePHh2+//VbuLoAYNhNzSszO9hU2GWKDMRWwRkNaQCTPhF9xhX/P6eDWr1+/cMQRR4S1115bdt2+7BpWN8GzzjrrKFYED8IpsnSAGCXxyrTw8PxwzZ07V3bElRZqMicXwM0vhU0YeVFmviQgepN0lB50JmlDn9cDdcV9fkIinRcHeVJcxGn2ypuZc/lP7nPnzbX08LOiFpFkyLAkkA3NLQfwCoaBwbwmTpwYPvnkk/Dqa6+GCeMnhM8++0yCJrcYAKZlNwkTs5Ob2fH8/2CuxcMiBZqcx8UzGhB45JFHtIwbQDP0xqvpVpRQgxGKjhRDLavIvZSJoCgJaQFSHBBqs2fPDr///nv4a9KksNZaa6kTIOGTip/7yJEjw/Dhw0OtWrXCevXrh4oVKsgNEM/yUPYZSh+ZIFpOkGZWc0wrYFHAe+++Gx597DEJJTUDYzJz584JFcpXiJmU+SWMM6rOnTuHAQMGyCyhYHb4Q1AhQHhGmLEQgfixq1CxYihfvnxo2LBh2Hff/YyRxfG5kEMoHnDAAeHsc84Oxx5zbLx4wezTftIMcH5Mtzh079499OjRQ3GJdktDGoHHSfzmBrOeM2eO0ocBVzTa69SpEw448MBQpXLlRUp7UaGyTMpg7NixootyhEa0ugpG36qrrhqqVasm/xLYJqzzYciQIeHaa68NNWvWDAcffHBo0aJFXAZUiMGSU3qfWlt47bXXVEZXX3NNWG/ddXNxO00ZMixuZIJoOYGq2ZiIMxPYSceOHcPTTz8dPv74Yw3B8IEpwN39JxxK/p966qlw2mmnhd122y2cecYZ0nCAf/cjFmV+5xizRMAwBNe1a1cJLxjgkN+HhOrVqouxmV6j6L/55ptwhsXVoUOHsPHGGysuaU0WlWtwwAXHojBCBOh+++0XGjRoEG686SbFQdze9DFD0z/z/gmTJ08OgwcPFl0//PCDmH+vXr3CJptsIr+lCa8r6Kez8NVXX0mArL/++hIUI0aO0IKPU1qfEpo1a5aEKh6/9e0bOr78crjwootCDRNgIMm+pRHfMfLIHB7a6dHHHBMaN2qU00RxW5Tyz5BhvrDGnmE5xSuvvBIZY9OzMfrIGI7upoHonoYxvsg0nei4446L1lhjjciYdOKSH9Zzj8aPHx8988wz0TrrrBOZsJF9nEKMZ599Ntpll12iSX/9JbMJN6UF8AVN2OXoksvCgfiuvPLKqEqVKtFbb7+d2OYHaf1l9JgAiDbccMPojjvuiO31W7qYM3dONH369Oiee++VbDZhFJmwjCZOmhSNHDkyuuHGG6MNNthA9iXBBFF0zTXXRBMmTpTZy5h8nnPOOdHnn38uMxg1alR0ww03RH379Uts4jJZGvnPsHwgW6ywHMDqOdf7525MJffscC3Be7wy211hzR7NpFKlSuHmm2+WdoNmRM8ZFMQSPxvD0jNDc6uttlpo1apVePqZZ8I777yjnjz9boabfv755/D222+HlVdeOYwcMSLMnDkz1qwSLcgS15Cc0yT69LRwIM7LLrssbLPNNuG8c88Nv/zyi+yhJV02DtKrXr162GeffcLLpkUwrDd12lSl//+gcCoFSKcveuxeUIblw0orrRQGDxok+lnuznAcWk29evVCayvbgQMHhjfeeEP+HbkYk3iIV/VO/Ha5pjncyv2tt97Sd1wO1b35SZe1YkniypBhcSMTRMsBYCzOXCK7OxOSnZ6SOQbfgidhODAihXXBYKhfv3646667NHx19dVX55hbOkzRCW1c9mjRIhx00EEa+sLVNKXw22+/hWZbbhn23ntvMdNZs2bFaRKIexKPCyOne2EBjcyn3Nu2rYTPpZdeqm+XlF/cjXYXzoCnODchbL755uHoo48K06ZOW6D0VcZ2d0FSFHJP0nMfuTBmRzjvEGCvspowQUOc2223nQQkYLgM/PjTT6Krdu3aMudStbAgTQfDjIozVT/du3UL6667bth6660TmzgO1XvKX1FzhgyLE+VMBb8hec5QhiHmlzA2Zyi/9OkTfvj++3DyySfH3D/mQHIriekwR8GChPvuuy+st956YYstthDzLikMLswBwQydcWLeZdddw7bbbhuaNGkSVjKNS4B5Wlz5Y1t4QBsLD9AmHnjgAS2KaLH77sqylpkniakIuMwC4YyI2LjpxtIGEVwgH105Bp7cBw8ZHN57973wvZUxWhgf67IAQn4SfwhGNEeEkAR4QgvuPOBnhGktN910UzjrrLMkGAF+0SDPatNGc19oqlVNsxQSYSOhY2VNHMwloYGyLJ7yRwvieuWVV7SUf7pd1A0r6jD37NlT82JotA7iyZBhSSDTiJYDwJD41gTmxcWQ2osvvhjefOONMOPvGWJiP/34U445grSGkAb2rLRCG9rNhMh1112nSX0x0Xyw9GHSYMVy8eorv+jZIyD9WxhiSdOxOCCmngChe/zxx4e7775bw4LQjbPTYz8p/zEzhz5WqcktcSkOaDKKw/Dqq6+Gtve2DVuaxnfgAQeEqVOnShObPWdOmDFjRvjoo4/kD6FAGBZokG6yiE0r4zytb7/5RhrdGmusEaZMmRKGDRsW3n333XD++edLsLAMHzfo8++kBPKWPErT4rJn8rLzLjuHgw4+MPz5558aZj362GPVGQBeVxkylBYyQbQcAAZXvlz5HIPl41GYMb3h7779Tst6vacNxBCNMRYH7GFvaAiPP/mklhNfeeWVYrR5kTBEGCEfRsLofGhKDNjuSi9hlosbxKjL4qbX365dO2l1V111lZi6AI1Jvn2IDLqgHHunKh992OKP6/PPPw8MNLRu3VpaX20TEnvutVf48ccfpYEy1IYAAPhXenZRlh6PL4fnIj7qjO973nvvvfDoI49oeHSLLbcIt9xyS6hZo2YurhUTSeZL9B1exsqT+Vmj9hqmBc1QeexvgnJt04R8KXiJnYoMGZYAsuXbywkmTJygifeJEyZqeEg9bmM4Yl6mpcybM09DUZUqVwp77LFH2GLzLZKQhSFGGT9Km0GYnWIM98ILLww33HhjoQ8g04CxA5gcw1ESPKSPm8WjZ7sE85t7XkzwITCaO3F3/fLLcPBBB+kbpgcffDBUNybswseIy+VRCxQSIQmdYuZ5aCNuhEnz5s01rPX444/nymvM2LHhkIMP1vAaQ2r7779/WHPNNXPhWL5euXLlcOihh+bowB66mZdr2bKlls870LjOOfvs0OWDD6R1qXztgr4xY8Zoaf6Blr/6660n/8zHYUc9VV+1utXDipoz69DhpdDzh5658gGEf+yxx7TdEsOJIF3vGTIsbmQa0XICNg9lrmOrrbYKzezaZtttk+dmpg1tEbbaeivN1SCAatVaPQn1bziDhDGhzRxmjPOUU04R02VuoTiIiSFoYmOO4cE4gX/AuqRAKtJ0SC9JZ9dddpEm+Prrr4chv/8uexeODlFndr54oCQhBHD76aef9PEo3y0JSR4rmObB6kCGA5kfQwhRjoAOAIIL7QkbT4M7i0LQNv07IQ9Ta/VaYaqV99ChQ2XGL9omqFq1quoX4er+cUfYUAb+cepXX3UPO2y/g9xVPgjdDBmWApZpQeRDFlzx6xQzB14m2XFPXjS/lwR8uC9/6Qgne+7Ex0ad3Bcgvv8SWJ7Lh6j77ruvMZ/tde28886hRYs9ws477RS2N/OOO+4YWpg2xDBNSYCpUU4A7QoGe80114RVkxVdRQFbnTdvbvyQwJktRz+I0WNI6sAcc3XltZAzJ3WERjdp0qTQ+8cfQ//+/eUnH4ib9IoOObEsGg1lo402Smxif6KBZ78QUCChi7bDZD5CwuF08hEvcbCAIw2GwBDALPJgmA6oHE0IMe8DDdI+krT5xf3TTz9V3VE/gtmBwYMGKy5fTBDnMS5PNNXtt9tOy+yJA9DKJWgToPUMGTwk7L777jL/8ccfKk9Q1tp+hmUfy7QgUk/ZLr1AKeYAQ/He6UKNZxOHXTAaZy4Kb2YXbOageP0FLiugvFgQcPMtN4fbbrsttG/fXkNSRx5xhOZMnnvuuXDHHXeEa66+Wv6dGRcHXHwXhmeffVZlxYR3mtEVBXNURElYZ3Qw7bvvuks9dcDd6wOoBuxZ9aXHeHEDdQcjfYcJ+/POE+0lgdgI6xf4+JNPJEwuv/xy0xYryg44beqgJBdp0z68RbDdDgICGoD7ARs2aaJyYEEC8HbE/A67TcD4K1eqJOEDmKPr8FIHaWcTzF1tz+wpB+L94osvpD35HJ7T73NbzD9hN3DQwDB23NjQ+f33wyMPP6ydEYD7J1bK1+kcbFrb9BnTw3bbb6fhRJaHjxsffxe2UO9UhgyLAcu0IAL+IqXvziz0mzzP7+WBkaSZi8b+DXHoeLjIbPWstJJ4yxJGjxqtOSK2eTnnnHM0FMSyYlZfnXvuuRImHM8g5ClPlUpSNjCvL7/8UpuWohXlA765iDGn/Ri6deumYSxWcVHm5UxrkL8iacepxfYcNx6iFTR5f9KJJ4Y99txT3x+VCOo7eaSdcOTEM08/HS655BJt7qlOiLl5+1D6yd3DOaAMTYoPZFmxlgZhtzRNiKMt7r//fu1s/vXXX4cuXbpI28A/+e3SuYuG1GbOmikBtYNpoizxnpYs+EDb+9wEECv72H6JsMzvscDB2zlLtsHECRPCdz16hF49e4WRI0ZKaK1SbZXw088/yz1dlrRxN7Psnrmn3379LXQ2+jA3XL+h3IrmOUOGJY1lVhDxUjOcI2Zgz97bxqzeIs92IU5w5yoJhNNLmL6wt8vD02vUi55yL0uAMZ53/nmh1mqrKb/sut10o43CKqusovLkDCDmiUC+3GNPOTIsxfc4aBR8EFkSFMYuBAa98pF/jNQedy+88IKWkrOUmV65ESU/TOb/bRoFdz48Ze86eu+zjHGrE2KRMSRIHmb+/XeJmhjwNsOdHR1uv/12Cc9CQ3LJXfVPW7C7a2hz5sZLrkH/AQO0sIC5JW83tBU9mztDcCxpP/zww0V/1ZWrisnvtNNOWuF22GGHhdVqraZNYFc0rZINSD8z7Wpd80M5Egf5qVenjhYhkM7jTzyhVX7M/ThY1MDiBXZ9mDF9uvag22CDDcKmm24aPvzgw7B/Mkcl+gzqaDm9Bk6/bde2nYTqpptsol0boJ1ceFlkyFBaWKZXzfFS/PNPLIToScMQ+MJ9pUorhapVqoopMWEO2IBTveU8IJtiLt4jt+cZ06cZc5sdqlWvjlHDTRQG/uRFv/99eAXD3JlviAX8ivqYlJVjaAZiUuYHpu8fXeYDJ6heaFrU8dbzZ4UdGgUFKCaeBzB1ljRfcMEFWiY8eswYfV/D8CDDThWNIXZ+773Q5cMPrNwtLqtX6SlGF5PrpFGu3Iph//0P0Aoyr89rrr02zDbhhfaQD7QTaEOoXX3VVfpehgUWDuIuKszSdnxnddJJJ4UqVauEjz/6OKyx5hrh+uuu1/AcZVXgV61HYQB59oUZ6ec0ELxsJXTV1VeHjYwu2uLKKYGTRuHYMUdh+rTpWm3ncUMTH7+ymtGXaQPm0RD8F5k2zNyRl5+XDXC7UaNGhSdM+GWr5jKUFkruSi51JMyNl8Ve9IEDBmqbk8cefUwvDHa8IMAFUj4Ufen4vfPOuzSpzNg9cxhMHGPvV1mB8mJ5r5zsJ8b+ZZxNM+rPP9WTBi6g6SHDNPOBCfJ7jOkznIQQkviygCUJIZgtcxZMiDO5zlDceNOE6IFvt/32GtZj2ffBhxwSHn/scS0dxv9jjzyqutaz2T388CNi2sx1UZ8gsjpTO7D85QN+cX/s8UfDqjVW1dAZIASXCxz8SKga3O6ll17SSjj2dZttnRYWGvT4roeEmYQQbSpphzxz+bO0EHv2NIgb2t0OIJCZa5o3d66G54rrTBFOdCVx67JnBDa7KXg6AIGDBsaQ6YjhIxLbOA78UebAy496Iy7Fl9jRBvw5Q4bSwHwFkTdSLpmTC7gd8C/jHUXDpZGLK+VW1J/CJkzBX4pq1atpWSzDGrzo2Ho4MRs9FY6LFxAzd146+SOs3Zs2barvSHxrGTSi9Avo8Yi5JM/86tku7N1uWYDTCHhOm8mXyis2hu+++07aUePGjeUvzQB9rkZIxcOdnjZDRMwnAWkvybLhopg+fbp66AyDoXVxFLiDSXg0IdJl4p6huZ9/+SW80qmTzsPhYljK73w3wzMLHNIf55I2gjNdb7l6SWjH5YMPPgjDhgwLF154kQQIwL4gVFxGCAwWI1A+5513XmjTpo32wsO+bt26WmjArgYnnniihDKCENC+0DKdsROXlxvwuO2hUJlyQB27VJQ3QUwniw+FcXHaeWZxhnyn4sSFfKp985fY83HqXiYsGcor9JGyxcGheBzJwXY/Hr/c7HIz81EIM19M4XC/GTIsCZQ4NEdDL6mnCwhMFEX9KVKzJ47itBXseTlLjj15AYrxx8s3v9BiDiviK/aHxhMTVtDjdWCNr6LxEibNaN1fGtghNIvGWdqgrJQ9u0NLmi4/HdUZJEM09MSZ73BwJhF59RWFDOExj0F+CccX/ggTtMjaa9RWOcG0iT9mxPEuAWhAMDQWPjAZzzwQvfQ+ffpIiJE+Q2O77rqrlowPGjRIq8m4wyiVD7s8PuJH2NCbb7rxxmED64gA3K644grR0LZtW9l5/Sifsgnht19/1VxM3Xp1Q8MGDWOtJEnD4+cZumHA0M5JpSwOQIPjbCLmX8CHH36oPfbuvfdeCcVDTYvLtWW7llX8OWpUePCBBzTXxRJ+hKu3dS8nqGdxBN86MXzHgha+eaLs2Wdv2c1dhv86ShRE/rJOs54tvSnG8WvUqGEv/mxr0NYbtJeYCW4YHF/uz50T73PldumIp9oLzjcObK4IQ+ADS4dOoJw7J1SpXEUv8yrVqokpMKfBkBFxsevwmLEsl13BevKVQ41Va2gyGCbHS7Ja8s0EjIRVRzWNgbAsFzM9VxgOL5f3humtwygZrqi5Wk1jchUs3BxL82+5YQ+D0gSulQFDIAwfYcdcw4Tx45MhkSisuUb8hfzSRo6xGL3OYGOGbDVBZdgz9cjO12zxs+eee2rOhnIRM1YkcZ1zYQecwfbs1VPDUuRbiwsMOT92lzZg6VJnDu3RZkDz2nmXXXIdFoa8EDpM0DM86Ase1FkwuPAX2Xoq/PznH3+El0yIIiRoBzBWditosH6DOO9JeGgfMnhw+DQ5Dh036KeNqP6SvFLPs02g+cmyANrRghiCRGsm7X6mLdx7zz2a3IduVp6pfCn5JG8LA0J4ucd1xWP8vDDwssnFZ+DZO5PEyXtAHivZeyzNy+zw6+6WqObbeE95d3jfRRNudvG8KHnMkGF+WKDFCqy2YlKZbUKYuGWymd40m10yTLZb8920aSa9re/Njpf0mKOP1gtNw2VYBGYxc+as0Lt3L3sJVgrnnXe+epv0Thl26fZlN52EebSF48ROhmmYWF57rbXDnnvtGfYzJvNc+/bh0Ucf1XECrHxinqOd9YRZfspEOL1u5ntYkgyjYYL5x59+1IRuX+u9ctwzS5XplZPWLTffEr7+9uvwfY/vNUTCtxnXX3+9nskX+WTpLXl96KGHZD969GjNV7B8mLkNVi0xvJeeQF9a0NwJfwnDQKNhPgjmHiWLPhgqYxdmLnr5zHXQQ2ZegIYg+lNNwpsH9sTj3w8tCtINjVKiTcTpFghQ18ZA0ZIUfcndkfYj+6QOXEsR0s+LAISXhscsHpg25Swhn9As+xTdyxrmQZ/dvQ4R0qLbzE61C6w0sAOev0UvwQwZ5gNrZAsETnisvmr1yARRZBqM7Lp17x5Zbzpq27ZtZJqH7Dp2fDlq1LhxNGLkSJlNY4m23377qF27djJbrzSynnh07bXXymwvue69e/eOmjZtmrMfOHBgdPDBB+vkydlzZscndc6dGx1+xOHRySefrFM7ASeANmrUKDrttNOiIUOGyI7TK1ddddXokksuif7840/Z/frrrzrJMn0SpQmZaLWaq+XCffvdd5EJolxeBg8eHG288cbKMzBNKGrdunV05plnygx+/PHHyHr7ondZACd6xiVaULYZMvy/SJ+cmyHD4sYCDc3RG2K/q3pr1Qt33XmXJp8B5+CzlQhLPY866ijZca7+kUceGT757LPQpHFjDQegxXCyJFoDYDuY7t2764NI4L1Vxqf5LoUv/DkoDS1ovdyQTdxjI22GhZ586imZCcu3E8w1kA6YYWmyFPYIo4Mv9wFzFUziojmhdQE0vSOOOEIbYDaoXz988skn+qaGb2kmT5kSWp18svLPx4QMZUAv34Ewec53IQC6drK0T27VKrRJymVpAnopE3rtaC8Mw6HB6RC4ZMjM65SePvDy97AOnrHDn1ZbEa9pmgA7X7qsOYQkPg/D3bUbH+7CD365GPbyYVfMwOnyOBw8yY04EzfSwq+nBTx+Fls4nUBhuCfPnh/akfJl8PQ8L0ovHT9xQK/lg52tfb7N/TsNCwtP1+ni/v/GZRHE94R2aPQ8p9MB7p4epvRyxI06ZP5uO/++LAmXIcPiRMmCyC5vdgx5scoMAeAfyzH5zDAZH9xxAifoboLoaBNKfCzp3yCwGSZDYSyDZciMDxiJj5VJICbAXhr7u+vuu8Jtt94mZs8YfO6l4aUwX6eeeqriYGsZgNvmW2wejjvu+HDpJZfIjiFChgdPP+P0cN6558nONLSw3777aut/F0SkjwBlEp6xfmcwvIh8fNjhpZfCG2+9FTY0gQoefvhhraRiYpzzYQAvLAKNfdyOPfZY2S0tIBRVVkmV8sx8F0IfwGwoT4AbV67yk7BpZsizGO+cOWJiHpbycX/uB9CU3M79gEKMLbmIE0Hm9h423ebcLg3sSM/neLgTf5om/LiZO8Cf5wE/7oZf4PH6M36cQbud3z1Ojwu4+8IgTQdXuiwWFulwnq90/gHPCF/yhFBX587svCxBOh5/Zn5vnXXWkV2GDEsE1tDywhpyfLdrwsQJUZ06daJ3331XduCXPn003PXxJ58kNlHU7auvorp160b9+vWTmaG51qe0jkzzyNnddNONkQkKxW8vQW7YDXOXzl2i5s2bR8ccc0xkTFT+gdPCEFyrVq0KDRNsttlm0d13352YomiahTMtKXrggQcSmygaPmKEhv5Mu0lsoujrr7+O7AXTEBzwNBiyW2ONNaI333xT5jFjx0Qj/xgZPf3005FpRtHoMWNknyFDhgwZ/n8UdJfmg+J6apg5y6bQJGfSy7IAMnKQ1/vvva+DvOhZgQkTJqoHhpaCpgQwo2GxMo6hJD5+ZJnsv2DROi1perxHB0SX0cDS7RxSfh1a6QWtKfw+dKhO0jzFNC+0PdC7V+8woP8AaVnsTfZVomGY4NJ98uTJofePvfW8LCJdVvSCeWbojjLxUnF3bHzl2uICcXuc/kzZ0TvneyK++O/w8svh5Y4dtXCFJeVczz//vBZVFIT7dx1mWDB4vesyc67ekzvIyjfD0sJ8BRHfljDGP+rPUZrv4WM4hhC4MLPRIowY9R47lgezLHryX5NlZr6GJdQMxWAmPMukGTJiNRoHhjGezzLce+65R0cTMKR36623auNIGBJLuXmBYFxTJ0/VsB7xYUfaDP0RFzSIwZl/BNm4seNydr5cm7kup2XSpIlhyuQpCo8f8nP5ZZdpiTrDfIQlDLsjs0qOvcn4/oU5MewJA2184OhL15dlwGYkxJM7osFFtdtTLunvphYHiJuUiJs6Y5CVDsCw4cN1jtFaa60Vmm25pbWlEapzNvRknzWW5jNEm0QS05gxy4UG7TSug1jY8EQ5MkdX6DnlJ0OG0kS5G5i9LwFMeLNLMvMjCII//hipZddM/j/zzDNixCxp5iv98ePHhSeffEoNu3//fvr2hv3E+B6om2kRMHq0niOPOioMHzZcOxFvs/XW+qaE+BEwnLvCeDSCqecPP+ijQY5YhjGxySbhEWxcfFR55513imExKc8xyQgZtoRB4CGk/CV86OGHZB5hzA4/0PLEY4/rQ092Qt7AhB9psTCBxQp8zMjiBRZA/DkqPtefPCIoEVAvvviiaGD+hbCc7+Mv8jIH6OKCwdjdmQ/zYQ7KieXe7FrgWJz5gbWRnjM50v/u2291gBuT4bQpyp6l9ewEjubJPBx1xqFwTskyW8bLOChve0HU84yX4acWhdjlIwORtYOiowQZMixplLyzgjVKOEBxPWQCFWUJJdmhWXEEAV9qO4i/uEYPSQvCcGBqhYYF82BB4iuO9pKAAEPY1TZNSS90Yr8wcZQ2KAfvEVPudCAGDxmsb6F23mlnndiar07+H3jZkj7P1Nms2bP0/RZHI1B+dHLYaeG4448P555zDsHCOOtcQOPGTZtaOOrQ6FqAusxQMlQPlKPVs9dLVqYZliZK5Di+/BbQWHVPPycNGuRUfpnMbJe7sxsWmlVaCAFneDA/+cO/mT0NxZWy5x5bxXMcMDSFQ2Bi7xf+U35dUMQ2sR0m+Yut1BMsGi4NhUjcuZiTWsPy4y8wv/+FV1llZncuhiQnjJ+goUc+Vpa71Ym7Ly54uVBWpE89srMGS+C9/NhSZ9zYsWHbbbaRGdSqtVrYZOONExPtJP9mrBnyg88O+GQC7T59YB8l7+/O0GHDNI9762236YPwDBlKEwu0swLAkzMUfy5kZ9E4w3e7BYWHXRiUFMYzVJRGRz4aVRTJC7ow4ZZ1QLfgdUQ+DTyzXdEprVuHvfbcM5x40knz1YgYxmRbIIY4mdshrnRdMA+EkEbDQdD5fBx3hjbZ445vt6AA4U84Lk5Z1WFy332nrZSKQ0l1Pj8wN8jSez4h4PA4X9xCnDxDn39bxLAtd+jmDpgbZMiwpPLxzpgRqXhdW3e6oeGdd97RsC9p8ekAWwjhLv8Wb9H4iXOMaYVsROpCw8sMrFarluZU2ZIn7pzFQ26EI3009/vatVPaBx18sA5DLK582V8PAcQuKMzR8ZlEhgylhQUWRBn++4A5RZofiD9ehGHRQ4bpsFcbWyLBfJ3JFcdwYdjspM18HXN7bCaKMBPTpSnZXU3K7ixyYdsktoLq2LGj5tPYTogFCDltO2l+MHriZgUdDDfNbBcHoAlBd+GFF+q8Hu7k1Rm/VvVBtj0jIDmegTnKVzt1Cp99/rm2j+Jocd+rsDi4oPByU1muiBa4ooTPm2++KS2QrZX4lo7to9iqSucDmX9odOEFPZipKz7ufuONNzT3ucYaa6gjwD5wnM76zbffalNXpnr5YFtlliu7SIto0IRIkyM0rAUon6Q3ZfJkLeKpY8LQ032548vaEisTRBlKFdbYM5RxmADSFi3cQWyeq+ep06bpmy3TSGQ2ZqrvukrCH3/8Ee2yy87xN1jJ9kiEmx9Ig2/Evv/++8QmhjHsaMstt4xMCMXmBYhrYUD8wHr90fHHHx+ZZhYZA5edw+nnt2j6H3/8seV3l6hz586JTfHwULmySO4zZ86Mnn/++ahPnz4yA75dM+Gvb9nSIGzuSuwAW2CZJhc98cQTiU0M/LGVlWkxUd++fRPbGKYhaVsqttcyTUx2xKnLwpl2GlkHQPZeRtRB0TQyZFjSKH6MIUOZAn1derzqI6OBJD1tnrErqnnMTxNhOOmuu+7WiraLTLPgTlzG4ORe9FlpGjjDh10tevXuKTNDYAwFsZEuKyiZp+JAtyUB6GEVHtoQ9LMggoUQQOVgeTbmXDBXaPYMdXFn9220wG++/kb+i4NymOTTwaaigBWmFcpX0M4kXhas8uQTAE59BR4SGhzuF7Dr91jT0lhQAnCTxmVpsBkvGwCTjtz0S53Hw3TpXTHIH1QxbMpqWFYkFkVxmnCGDEsSWYtbDuAMTXeYI0zXzDApZzoufLjDrNIMMQ1i4mKJO0vnmfPgWyDi8eEd4vf4Cj0bjjr6qNCixR5iogxzsU/gUSacEEAMzzVq3DieZ1mMUJ4s7+SJrZz4UJrhQv9yAXcEVSx+YqGNf4S1Pchur733DiecdEJuzqgooFnp+J34kjLkM4C9Wu6lZf/M2TAc+trrr2tbqI2abCQ/hIcGrWSz8FxenhyR0rtXr9C4SRMNowHcmdsiHXZUZ54ovQ1PnB+D3SWwUsOFpM/u9nz2gGBjF3Ti8zrPV/cZMiwpZIJoOYAzNuYdYtYWqeLRZJgEZ+EBixDoVcOozHPeXnFaSDCnxLHbaBmffvZpYlsAMWXuxgxhjCzhr16teli/wfqKH+aIdsJefptssolOFV1zjTViJm7XYgNMW+khKCKd8nvdddeFJ598Mjzbvr28wPQRPNBF2pSXg489WQywQcMNSpwjKgri4js7GP2c2XP0wfbtt90WLrvsMn10zea+aCvQRJrQ4MKH3FNmYNrUadpMeOeddlL5OKALjbJ3797aLJiNhYG0HotHMSVxen7YqeKO228Pt99+m7Qivt16/vnnw3QTTqoT85cJogyljfl+0JqhbEBCoch3OAggJuBZzcbHx/T26Vmnjw0vCrFGGKTFUcGYKEM7bOPEJrcsXOCMJmeq8mcQU7QrLdzkB6afmAWzc3unMR+KCgsAA03b5fzY3R5kJkHsoPv777/XAgI212URAO7QIzqTMFzkBXvgsXvc2GOXC0uYBLjzATY7t9dv0EA7iLAwgZ072PmDj7crV64smqDdy8fj9Lyw0OHaa68Nm222mcqXxQt8fI0WyY71nKTKhrtOk+hKhAl2nBHGsCRbbCH4d2veXMOMDOk99PDD+qjcBSz00g58CDBDhtJA8d3eDGUSsDUYHprQlKlTtYz5mGOO0bcjF198sVbOwYT8mG/vGTuTZVjJDLJz5stwED195njo6QOYsTSrxG9xcKYrhqunGBJOSXr5AF34cY2hKP5lD3PmlkqJQw+hG6Z9zrnnavWYM3EXaGna0s+ij/ShIykjIAFgd78A2gpzQ9UtPcr3kEMO0VAkpxL7fBjhKC++pWLerIDKGL/++qv8oPFwfEbFlSqGcuXLhfUbNtS3PxxNovTMz6hRo6SF+RCfaCE/uCdgSA7NqLkJJDoTwOklT2hpGTKUJjJBtBxAzChhzjBGTsA9k+vMM8NJJzO8dnw4+aSTQps2bcKZbc4MZ511Vrj66qvDXyawgBiahc9tC2N2is+eQUtjsJx8yzDPY8mZUPgzqRLfSwCML77ij1UlRCxMSaFgsq41uVBwe+JKazCYiUt32SPALD0Lg4Zx9TXXaKuhG2+8Uf5h2i4ki4OnhR+/cjA34iU9p5+9FqX1JCBt0kDgsNeegxOE27VrFyZaJ8ABzaSH1sPycQQOy79323U3K/OWYXcTJGhYDHkqPfPL0m4WfXj6osXyrY5BAgQe22n5JsTA3Ukv7TdDhlKBNbwMywGMQRr/+0fLuGfMmPGv0zZxk5/YGM2aMye2MwsTEvKPm4cjHuBhZpv/TTbZJLriyitlDwivu36LR9rNn1k+XVIY3IvzY9pcbG/X3Lnx8nRQ1I5wHhb7fffdNzriyCNyZqe7OOBCOu6HOHlW+SR2pAdMO4leeeWVyLTPHA1g9JjRUbNmzXJLqh3E5fnyC7tGjRpFpknhJUc3kJ8kTgf14PG4+f777y90fMvLHV9W+izDB5zq6/X6UocO0eOPP67nDBlKC5lGtBzBWJy0GjQO9pfr3Llz+PDDD3UwINfHH30UPujSRau8ppo25BoE/WrpAfT2Ew3A2k5Oi6HX/eGHH+iU3CuS4TkgP/GDzMWBsEOHDdVQFf6MHca9eLkWD2O+MS32PGr0aNHOMBvzVD5H43SmoVNqk3BOE+XAVk3t2raTmbIpERaO4THKpm/fvlrwwDCmg/idBnYqYJhzpZVWirW0JM3u3bqHypUq5eZhBg0apG14GDJT2MQfsTA/xEKSpqmtjgA+uEzcyEz5ffzJx5p7Ip/Q50Bro+6BCRylz2pFNg1mIcUnH3+S0+z4CDkdNkOG0kAmiJYDwACt62zMJl6EwNwEOxjAfJj85qiNp556KlSqXFnmTp06aZUWKGBKsUhyaIscc8OVyfBOHTuFSy69NFRfddU4vdib3EtibPi9+667tWgCf7HPdEqFgQuLKdzHTOZULNz7779faI80FwZATykzgowwQ37/XYKk9amnhnr16omW/JTGSOelStWqmrdhl4P0EJ0LHHZn5+wq5t0AfhA4pHnTLbeEOnXqSHB8/fXXKu/0qcOeCqviWEzCcfQOCeL4QXEiwNjd/vchv+tofOXPnEWHXQifFaI4RgQPm/U2bNhQO62zwwOCNUOGpYlMEC0HEGMzhgUrmjlrljYXZZVVy5Ytw5bNmmnOYOuttw677LyzjrngmxkEksLaJQZtcaR79djzweQfFvaJxx8PrU9pFdZv0EDu8pGEiR9dbBQGk+oDBg7UnAbMli1+SEOr+/IgjjE+UoJ4mTth126+D/KVX6SbY9YGZ+yeF5j31GnTwiMPPaQVZM7k8QelxVNbGDD0OmuuqW+BqhrtuTCif4Xwt7mjCe2z337hnbfflqC89957xfjvuvvu0NzCAQTR7i1aaAUjZeDgwEjm8PhGi4UVjz/2mDRYOhS5/CR38rqBCRaWYwNpvSngzwuO+SoOfER4vfH6G6KRYzjAguQ7Q4YlgWyvueUAYq4wYGNIfNEP499ll13khiA48ogjQtu2bXMMCc0ChkWvuSSwx9zVV12lVWGtWrVSOmL2yT0Nt5s6baqGkdZZex1pAi91eCl89+132gCU5d9NNmoSBg4YqCE335g0jUiT/ZGGlliSHNtFlv7JYYstttSiCTVpmK/dJVxSZoDd3ffcI22KZdEgdolpdFoBQ1/4R/BwcN+6664rDYf98lhCveeee6rcNESG30TgDx48WOdoHXDAATrFePy48RLuCBvXnpSmhWE59ulnnB6efOJJfUtFHAgcaTKWNv5diyuuTABCiMUMV1xxhepWH7ua/VwT7o8+8oiWj0NLnM9IWlGlipVC1ZWrKl6nhXO26CBke81lKE1kGtFyADHVhFFy4ByMau7c+ETZwYMGiRHBAAFMm49L8wkh3MXYDQ8+8EBYxXrrJ598sszEH7vEgDmnzeDVTq+Gzz79TIwSTWazTTfTKrCrTKBxAi5DSAMGDAg9vvsu/PD99/+6evXspWE8lqADaIH+tBYl4WF3MVho0BWvlMOOzVqH/v67PgLNATf8Jc/cfYiL69tvvhGThm528IZWlnwzTwSIF4HhZYMbQEsjTO011pAgciEkGE2E44TfTTfZVNoqmhHp4Y8hM5ZS88w9nxAC7K7A4YJoiBy/rnIxe1FD+SRhyRMXftleSGWEA/6L5CFDhtJCJoiWE6iXbXcuGLJ/K8JEP/McHOngkADJw4xgVlyvv/6aev0cre7MTG7c5ZOhu9gMuL9oAoC5KY4igOGhZfA9S5OmTWJPwDzuv//+4dJLL9VS5KIXGg87Z6OZiEZLA6TpJV32iRPsmbSgjSGrL7/saoLw03D99dcX2iUBd/wSm+fDw7F4g90jED4IAz765aNUBOb2O+yg8IByI23uCEqWVjuwh0anMqY3pp1TaTmmgd2+GSpbFEAXH86+/fbbmnsiLyD+LXjRKQPfZxCIJisr5T8B+c6QoTSRDc0tR6CiqW5ntLPnzAkH7Lef5kmuvPLK2E+qOaSZUxpMrDPfce1110kgsNIKuH9pHrr/IwbLUOBTTz6lOQ6GstAAYJz0/jkj6IrLrwibb7F5GDNmTFhr7bXDG6+/LgFV3IeVpAGjZCiPc3OcabZu3SpstfXW4aw2Z6nHDwHz5sUfZ0IL+WI7IwQQWxPtYALEtUKLNPbDs/ljSIwTZBkibN++vY5gQFDzDZbP4zB3w4q7W265xbTCVUKVymYPbXbNs/Q5Q4iFG8wfAcoE4O7w4Ta+Nfrzjz/CmnXWDKusvEriunBguJDyK2f5rYsgMpAiuzmwtx6CkTnBrbfZ5t/nERltEyZOlKaJ0OX7Ivb9y5ChtJAJouUAYswgYZSO8ePHhW233U5aCowZqDkkfgp8FoANM9FWWCoNc4ZpEz/hEArcYa4weZgfcxfY4Y+hJobDTj/9dMXF3AhzGhw4xxJlJv4RbMwhsSQ6X8+cM3bWb7i+NBoYKEz8/PPPC02bbqy42O0BzQI6EAorssfcP1G49dZbw3PPP29prCPmO3dugQB1uskLNPuSbJ+n4YPfG268Uf7IG2XA8Bar7TjnBy0EvwhYtDFpHRbeFxfYTyycRU9BvubNm2thYoFrpSi6uOXL+8KA9EmTjgPDdWuvs3Y48ogjw0qmOQmWFvRAM4sm2MCWD20RWGh/GTKUFjJBtJxAwsiYIYKIiWom0j/+6OPw1NNPaRdttntBw1BjSJhycWAim+MGfIWWNx8Yp2tCpONMTlqNmWHICA72OqtevbrCERdLyVnmTC+cBQiEIe186TsIjx92J2BnBL7FYRn1Rk2aaLiMLXXS3xKhtbGpKxqaaE5oFN2UjSGdrj+7IEJAanEE9uaO9tCzV6+w/Xbb6Rsf+Td7Z/5eLp6Wxxsvo4+HSUFsG4eT34SmRYHHobSS9IGnDbwdyLf9Lw6BlyHD/4tMEC1HoKJhQTBj9oZD84DRIhhY/szec6UBb3JpBplGjpkWA4VN+Gg+P/9llJT3BUG+8G5fUvlRK2WvRDP8F5AJogwZMmTIsFSR6eUZMmTIkGGpIhNEGTJkyJBhqSITRBkyZMiQYakiE0QZMmTIkGGpIhNEGZYLZGtyMmRYdpGtmsuwXCD+foanFcKsmTP1QS77wZWvUEHHZfMa8KEq30KtVLGivkWqtdpqhb5r8hclW+KcIcPiRaYRZSjz0PcxK7ArdixQ2I/Nd4bg6ArOYsKOjV/rr7eedtYe0L9/EjgWP4ojuTJkyLB4kQmiDGUesfCIBQp7r7HDwkUXX6RtjdiAlT3vtBP4ZpuFZs2ahW233TaskXzc66edZgMHGTIsOWSCKMNyAT8qm+2E2EttjTViQfPDDz9opwmOOfe9sTdqslFYZ+219Qyw1e7ZsTFDhgyLGZkgylDmgTbjRx9wNMMWW2yRuITQ4/seYfXVV9empQzd4WfX3XbVHnk8c/lwXCaIMmRYMsgEUYYyD99TzTcbRbiULxcfFMdBe1tuuaXO8hHMrx/Z4IsUMEsgJfcMGTIsXmSCKMMyCRcGafgu2QuLdDiJpEQwsekrx33vvPPOsZAiTQSOvLgeFA/LuVBK22fIkGHxIBNEGZZJ+LlJf8+cqYP1uC/qkQWE41wiaUN2uSj5fejvOl8JjQhIEGXCJkOGUkcmiDIsk+Ccoueeey5ccP754aqrrgrTk/OPfNHBwiD+FigxmLAZPXp0ePPNN8OTTzypw/s4lZRD+rKzeTJkWDrI3rwMyyQ4NZSD8tBSOIgPMzB9RfeFARoOyo6G3ex5lVVW0QmknBTbqVMnLd3mtFUN4S3i8F+GDBkWHdnOChmWadx2++3hzTfeCB9+9FGoWaNGYrtwSA/HlQTmpRgS9KO+M2TIUDrINKIMyzT4AJW+0rx5c2VelF5TblTOrrS+Q7zpfhj+MGdCKEOG0kUmiDIs00AwMHdToXwFmUvSbHKCJSWt/JE7YbkYgpN90UUJmIvY5cInAiuf+f8F8XicwPOCTXrVn/tzu6LhSgP/oiFFq9NS2jRl+G8jE0QZlmk4k0sz43zIrXZLyRJ/TN8RbNx1pQSP26XhZveXpoPnBaErH5xVMxQINJelJwPpJWmm7bHRM3ZWLvKRPJc2oIvViJQBzznaDF5epU9Vhv8isjmiDMskaJSwsptuuim89957miOqseqqcssHNWRrzqNGjQp//fVXToDNnDlTz25m1wT8Rc7MEyYqJHbsyM0CCdwQXIRZe+21Q+UqVSyOeWZnbuadNKMIRhwLt4WFp+8CjbRyH9TaNXfOHO0Qjh/Pwwqs7kvCzZsHLZa2PZcGvF6gl3TzwfOVIcOCIBNEGZZJOMNDEL3zzjvho48/XuDFCvfdd1+48MIL9VytWrWw4047hpVWWin8My9m9jByhAfMND0fNMeY/qxZs3SNHz8+jBw5MkxLlo3DdB948MFw9llnyRwLoP9vcQNxiKEjZOyZ/OqOOSWYSAd/zti5c2QFwtGXs5fWvBZCkvSZu6NsXCDlFnqYYGRVYsWKFUXbiiagM2SYHzJBlGGZxs033xzefffd0KVLFy2xprkW19PG3t0mTpwYjjzySB31ULt2bX2PxEanCwKE0Ey7xo0dG4aPGBH6/vZbeOONNxTXXnvvFV7p+EpY1TQzvTaWFncJkjx0lQQPk2PmCB+LAubtggngDzc0NKVrkDBICcBFSX9R4HT9+eef4fPPP9cmstDlgpKtkthAtmHDhhJEi6opZli+kAmiDMs0EEScFQTTo6ddEpwZcvX5tU/Ye6+9xTA5Z+iLL77Q+UOLArSjDz/8MNx4442hbdu2Yf/9988xZB8as0QXmeH6C4iWNnv2bIvzn1ChQgVpPMiWeXNN4NgzWhJ5Q/uY+fffOqKikml62Dk9Sxqi1dKHTgS+5x97WAl5qFlztVClcmXRWY6yyZBhPih3gyF5zlACSqvH+f/C6TSWYIypML0wauZPRo4coTkUGDu9WYZ5GJbS3MkyAj5i/eOPP3RI3Y+9f9R+cDC9qlWr5qXT+1T8rlF7jbDmmmuGzp07h3HjxoUhQ4aEQw45JBfWh5jyIWaqsZ8qVaro49q111k79OjRIzTbqpkJgEqxRpLMI4HiYoNhMxSYLy3ioJ5wHzBgQLj4oosleKtWrRIaN2qszDijl8AzUDbnnXdeeOzRR8NWW20V1lhjjWLTXhAQ78KElTA0OhCMtB+GPldeeWXduapXqx4qmhAl3sUhhKhz5X0+dUUb1tlRid3SBFoi9DA8Cbwd5QPutJNl6f0rbSxXgsjH071R0MBpBGbBQ2KXMHIzp3vYXDAv4OGXRdAjTciM82aA3t69e4fHHnssDB48WNvZDBw4QM8w9nffe09b3TRo0ED+yTfIl89cmcWGuGySsgI8sxAAk8oseV4YfPrpp+G7Ht8priYbNQkTJkwIk0x4rrfeehIM+eDzPwxvMTxEr/3777+P82oMU+cOGU3peZliYe4+5Ob0b7jhhmHMmDGhXr16iXYWtwt5t0uljX+D23/88cehtgkKNBcHZRL7Mn8w6yR+BAyH9PERb9ONmha4JReAHoYGDz300NCrV6/QuHFjLaLIlxf8e9g0lC/u/Jh7Op/UfnFxCYlfL5sZf88QHZRt5UqVFF8cs4F086RfEhRHEu6XPn10ZlTjRo1iN7N3N79//fXXqt/16teXH+zYzJatnBiazQfCA8Ulc9yGPV4gP/aMKW1fFITHBSF08cUXq71yyCL2rCxUXVr4OMUESby8lwhxjiMpKY0yDcv4cgHroURz/5lnHToTR3YBayC5Z34xWw9MF/a6m731zKOhQ4fK37IO5cPoBp6PF198MWrZsmX08COPRMZI5Yb91998E11xxRVRnTp1opdffjm2T9ziUsmPtL+5Xmb2N3fe3NgNTwbKdHGCNEuCu4o2u6i7bbbZRnymRo0a0ceffJL4KBlF8+Dpzpw5M5o9Z3YhOry8saGdmaPMM2bMiJ588slo/PjxMns8+Pe6ScM6C9G1116rcABXynTSpEnR448/HpnGlLMHF110UdStWzc9F43LMX369OjSSy+NXn311WgOtBnSacf1VhCn118+pOuTOIYNHx698MILViZzYrvkMke556OrJKRDWGdEbdTbrZchdDouu+yyyLTIxBTXQYsWLaLLL7s8sckP0ejPhVKOofSS55Ly4i7ffvut2tkxxxwjs4f3suCaMzcuK9Dh5Q6Rae7RhIkTZc6fQtnG/687/0fAsEa5ZBIY2EupXh29D6t89VbUEynSG8FkjUs9LlCoR7OMweozp5nYC6A8f/PNN9o49IgjjwxntWmjHiL5xe/2220X9j/gAE3QMycBGFIg/Pz6ZISnrLhTjoSjcLRKCrfED/HI70KCfADCcolm2eSH0kn8efi6detqFV316tWDMfRw1ZVXSvMAqvc8SOfftSf8s/rOP671NCgvT5syp+xB//79pcGRNlC52kW5JRaF8kQ44szZWXzUBMOKd955p7TWNIiLocGSAL1HH310+PHHH8PRRx2lzV7//vvvmA6DhvukRXteCuqvOHh9chEHq+dMmGm5O6GM08qPYjN3T2dhQAgTNHreYvP4EMOff/lZd39nfZhy4KCBKrPNN99cZujC7XbTKs8+92zZ5QPhqFPSY2ia8h0zdqyOkqfMGRomf7hrCLWEvKj+DUMsLPj11191JwyhuHt78zr7/IsvgnUmTGOuHVa1NqIylcvyh+VGEPnL4w2ZF8fhdsAbMoiZyrzwwQcf5MZ7l+mGYnkQ07Q8MD6PgDn//PPCZvaSHmVMyCGmk2Rk2223DUcccUSYNn26zGIoFt5+ZC4O1q+LXy67PD3KRy+dXbgT3s1etgsDL3sLLAZHDKQzv7jkbv7i8DFT33777cOtt94qO4bpWBKO4IT2fPDc+93bCGang/jEXBJ7oLJPGA3zcQh+xv7xB5NWWHPzoZo0qDPiVF7t8rx2795dCy6c2abDIQRAvnKBFo65uOHGGyTMvvvuu3DmmWeG115/LZiWLz/xyra4HtPvQnFQ3af8sBiEIUuADfaiPblcKC8sypWL3086SAxx/fTjT4Xigl7wfY/vQ61atcI666yjsnDatt5667D2WmvH9VMCKHOOGUFwnXfueeGcs8/WAhnTTMP999+vOgSkV1JcMTUhTP7rr2AauIbo6PC4PaBuAXH17ds33HP33WHG9Blhyy22jMszKbvlEcvXYgWraBpWnz59dKeh/PjTj2qwMAsaAQ2TF5IXbkC//upNs/yXCWEaF5eOlabhLGswur1BQx1M59Zbb5M2tO8+++hFxl6Mggf7Ib98D8LS6A0aNpSbvwzF5THWNxI2YO7OlPtZ75+4WL4rJuswt3/HMn+IKRIPdzN7vnJ5LAFOf8GLH0LTjZtab3VI6PNLH2kHdevVDVs120ruxaJIOjzJZPb0pIk7LscU80hoHjZsWOjVs6cWNsCoKdtaduXiIwx1Yfd0GqNGj9Zy8Z132SX8Y0wVTbynxfPiSy8pTeYQKN/qq1Y3WlbQ/NPGG2+s1YBxreQHdcIx6XvssYcWXnD0BSsRBwwcIGFZs0bNOC/zKV//LmjQoEHhB6Pt448+UieEeSs0P+j0eADplkRXcfC8xEI+hHp164Wnnnoq9Dfm/eNPP2lO6IeeP4RuX3ZTGe2z776hfv36Knu0GdwqV66iebyS8oIb5fD444+HHXbYIVx++eXSHg866KBw2GGHhT333DNUszyJFssX7TsfiGuqvUcD7D2g00C8CNAmTZrIXeWip3gVJkebbLfdduJDLMTZaaedFEd+ass28pdsGQOVPPrPUeG59u31pT0vdAV7ge69514xANzRFPxF5PuMFcutqAlYGjhDHOXKl7MXaxluKkZ3GkwiQ3f99daTGVfylmbQYF97kX0SX0zW/OAvH7yc2IgUXwxBnXrKKeFu6+EpnLnBTObHHEtEkr7i82c3zwf4cG2HX2itWqVquOXmW8Jmm20m8/XXX69hy5JQNA+5tmFaRk4TSS7Sw/2ZZ5/RSr1JkyerN7/uuuuGl0yQvPnGm7F/p99uJeUFN8LTVvv88otWx8Hw00Nx0EB9zQ8w9HRKLOKg/3m29f4rVlwptGvbThojCyXmV75o2Y88+oiEIAswGM5C0D700EPhy65dY/osDtoYcZUcW/EgDOWuOrQHhBxa1++mwTHUyuIMVkTOmTsnjJ8wQUIE8AEyna+hvw8Nt992u2gtCYMGD9aqzEsvvTQcfvjhuc4ooFwlCO2iXsmPu+VDPxOU8BWNMJhQYpEFcE2K8uAgRgTe7rvvHlq0aKHhvw022CBX7qS1PGK5EUTg2x7faoksLzW9wq2sx9LSNAWYNRCDThoEaNSocWhtDJae1U7Wa9lv3/3Ui073+Gk2NLRlofn4C+yNWUMDlh9WxgGecaO3Tc9WQ18GLb21PHqvbcbff+tjTjRH8uYvUuweC2ni0jY3dl/detQM8dEDFHCzC8yvXPTC2zV7zmxpm5Ptmjp1qi7XQLlkTuzcbbq91GlAi18y6ze2J6+sCkQAwdjGjB4Trr76aq2CA9Dp+QSKx+7pF8TjxZ/ait0pT2znWpnC3Pv+1lfDoPSEYZ4HH3xwONR61w89/JCGgAD+GZJBMyMfDhdmaEsIHcqUOFgeffoZZ4S99tpLK/bS7N2fC2xipMsdt3Qb9Xw2atRIZzLRCXn55Ze1bNyRDg8wM5zJsnHm2tAcKM9dTHuDLjSt6y3/1JGDuvzqq6/0TB17eysadz6orVo4cPzxx0vwIjC4jjj8CGlKaPoIROZ8EY577b23VlV+/fVXubD58I1pVmiUrrUAL0fql/rItaXkDtLtROWaGMeNG6uOKporqxl/Mu3Nh4CJD3oY8kODPcX4yh+mLfNpAZ0V4EPRhJk+fbraB4KqKEiOuOaXv/8SlitBVL9+Aw2X0GN54YUX1FDoydPLEgOgRSWNihuv7uykVzXLeqZAlW/+aCy8GGgHarByXbqI6U8uAz0tmBqMW+BlglZ7KfDhwyz0HGfPmaPeLC/GKx07htNPOy08/PDDcb7Ir2k/Yr4yWugkzzAAhnzubdtWDIIhTfZiI369vOY3pqZ4QAvl9+cff6qneJn1TpnAveTii8Mll1ySu1gSi93Fl1xsPdhLwvnnnx+efeYZxRHXQ0mpxHnFH98SERYwNMW8CVoHeeEin5rjygPSgV6VZWIGr3bqJKZ7zrnnqjxmGCNBOIF1k/mL75MeMkDQ0xvP1Y3Bv+VKMz3mJ1evvXpY35g+aaVzKX8FXvMCf2lv0M/yYuK+6MILNYzU/rn2JuxOT3xYvqzdeN5gtoRnmBrt99JLLg01atSw8vtMnTrA/BXDkD/bO+Vp/di7d3jLhBuxiLFbx4X3Jx13cXA37nwbhGld0+oRzryzgDbLHoQIekAe12+4vib92RIKIU4HM18qfLfTv19/1QsfO3/8yccqB7aS0v2jj6QxIxBATohSFpYW8apcKFvLMEKXkRUf7m1pApFOL0OYgHzfdtttig8NDIy1ThDhV022rqKNUnbkkXfv2GOPFb8CpE/aSt/MhKNMRYfF/V/HciWINt9ss3DvvfeqQV933XU6mfOaa66RGq0GZX/WB1PlxhWeaBBW0bgDKp9nmHbMmOPGgL+lDeiCChcYMAe2q/EVf+QgpjNuzA40H4YVQA1joieeeKL1cFsojzBl4iufTB4rPOkk+S1fnm1n4hcBOya+YTgy+wtSQtmIDouPnj4axS233KJhIl7a4q7bb78j3HTzLeGuu+4KJ550kuLQh4xJ/RQH5dhoEBO0O4yA3REAixdcGODPqFe95wPp6MW3eIiLsoEpvvjii2G33XaT0EGoM/bfJJnER8CgeVU3zdOxkfXCmRQn385IiIsOjnrZsgmha9euOeZG2vkpK4y0P+LysGgzdMKYnP/wow81F8L8C2lUqMD+cLwBRgvlmZQpYRHWnV7tFE444QS9P2DUqNHqxMXPo8TcWTjg4P262+qJsppnbcQXyZBPbz8lAX9QwMX8zP4H7B9eeeUVuTE3xFwtF3HhvsvOu6gt//zzz+GYY47JhS8O5OmvKZPF6Plm7bPPPpdA+sI6J3RQuJiLYugRvwqThPN2rTJKwCIF5n4Y9gQHHHCAvtdjeBzwrRALFNCI4m/QgjoDNWrWCCsl5al2ahdaWps2bcImm2yitgMQUuRT6ePPnlWGdpHP/zqWK0HUr38/rWihMTOO/8QTT6jBvfVmwfi990qoYKAJfrP3sXn2PGP5K55i/3Gj4HlZgRiu3Rl+ZBy6hzHb3NLfJF9pMLnuzJiv4snrnDlzxRQZhouHH+KrqLZAdL6fGGXAHY2ouHRKAvMhLAhhWIPJcxhasddqq4Xa5gd/DCf6y+g91pLgS9QZqjzuuOPERBmq8w8JiYehlZIox83r24doGfdnfsJXj6ENYWZ4BrBPHcNFrN4DMFHmjXJDdUnbIT7K3stx7Nix0jKaN28u979MiMwyZr+gEK12ERf1CzNEs0RooBkyN8TQGnDhCvDvHySj1XFn/mjSxEnSNAA7c6D5eVnxPlGeGzRqJC2ZPD/55JNK1/MD43YtfEHgAtrTYHUZzJ623KFDBwkb1ZvB/SBUaEcbmqCn/PKBcm62xRZhP+uQ0CG43To5dILo7NARQlBTVj5aQqlw93QQRlqVmdDIO5Zb1WhoaOXQtGlTlUu7dm3FN4g7vc0UgohFIuUrxJ08yojLNTneP88foBzV9uw5LXwKfPx3sVwJIpZ6Pv3006Fy5coaF2ZjzNatW4sRg3HWyGESzD04c2A+gRcCFR7Qq0HL4NViGIvJ0TnGHGDWSxtQ4L00XhAmTu+5554w9Pffw/PPPy97GrAzA/JIr415ii223FJ2/vL78nYffrAf3Qkb+4ntSW/u3Dkaxhg1elRCQ+xHPdIkXD7gn8vTXRgQxuMvicGROkze/Q8eMsSYQzsxG+Y2CjwVvOj5gBtMDJrdH4teWD781+S/ZCYOJtLxB9N/9NFH1ROGQTK0NXTY0PDnqD9zdUK6gBwQVoLcgKCC6e60806yZwcMdgtYUBAr84HPPPNMOMm0R7QaVmsxvOmLU7iAMzbMCmdlRd37SjGG4nhvaPOA4SN67uwpR68fAXDHHXfIf9euX4hJs+yceRtA/cyd94+0FYR0ib146tRudHrSbWONNdeUsGdhBJ2KDZuY4DeP0Ew7pKxg/Pvtv58WUCDs84H0m221lRZY+DJ2UPQ9drPKIaknbNS2k/v0GdPDp598Elrs3kK0EIYOE2VOp/eNN95Ue2MuyMsbAc9IDPlguyihSNrpYVruuHJHgMGn4El6P+Xjv40SWkPZA43grbfekkBiqASmwIdr3it8/rnn1GtllRIVzgtQi4nHDRtLc8I/PVtXpe+7/z4twWToK62mLy1AAZoBLwcX9NNLoyf8/vvva1UbW5/Qm4WhwUB4EfnmAobiLxjgRdHLZvkiXi5/TbCTsElenH59+2ne7Ybrb8i9FErf3Clzf/mKBe5GJ3E68M2HhAxLeAeAvGCml8gF4jRgmMaoSih/0scV/2PHjdX8F0NzDEHK3S4dEVESnQncB/QonIVZ2TQshlJ69ewVfrOOCtspsZSZYT96waeeempuLgPa0XB+7fNraJRoTE45zJt4fWiTRQr0yFnY8KlpGAiyeslQ2IKCThVxop1ccMEFGjpCy1WdUGZ2qY7ML3UAw8VMe1bd425uaKMcrcGCBuY9aEfE/bV1QJ599tlw7rnn5vYDbLh+w9Cgfn0NkzG85GB+hBGJC40OjSrkgZcHw8E8QxN5oHPEN1EIdu6UMa3TNVM6iNQF+wx279ZNKyRLAiMGvO98L/TDD/EQbdH32MuBMoEGAD3khWF+NDNWY7LUG8FBeXq5sRqVju4TVvbajTwJ7+XLHU2T1XXERz6wkx/zy1Cnm4HThoClI/Haa6/FZZPy81/FcvUdEWP3qOy8BPRU+YZim623EWOg4TCGX79Bg7CHNSp6f3ED/Cc027JZ6D+gf5g4aaKGJlg+CqpXX1XzAIR3dbpwMy59ICCcDugHLFrYcaedTAD3CCP/+EONn9U43FllxEtCg1e4JAwT7/QweZncDiZDw4/LpaAnhnCmB8owIL0+91/0XhSkx4WAID567MxXdOrUSVoL2hp0vPrqq+pJo7nC5Bnm+OTjT8Imm24SqlStYvHHvVOgF9fSw6wXlLQTM/nho0XmFei9e7rAn3U3s9PszAPk8mOXmIL55xl7yhjtmQlqtAPKgc4OK+iYK/F0GHYcPGiwVqldesklKjs0JzDa/A+yPLMcmSFSBE9Fa1fTjEEyr7ANE/DWCXI62BGc4R/tNQctZi/a5RqXLe2ymTFtDvRze/JEPmW2cIRVeDMSh+LnLmeLJXneYostFI7dDAYOGGjMcp4YKCvofMjOPOgAw44dO6q9oBXwvmnpubkxJ1bJ3i3m0mgzCwLy4Uy4OiMUFu/e1m4ZUqWORbO5VbU81jatiTm7SpUrSUOZHxBWdN7eefsdjXYwL0SbY26Ojidly1Au5aC2n4RDm0Gw08mjPV1x5RXxsCqOSZlR18wVrW5CHHjZ+gUPQqjTbtAu2a/P/dFh4fiTpmZPHefq1+6UG50yaEPQY/9fx3J7DATLTOk98WKVBH9pYdNq4K5G/0fBDgq8ADR+f0G8CaRf+FtvuzWMNEH16KOPyczLyutOr21xNnvS9PjoQfNyo6kgHOkMvGMv4w3XX6/hGHqBMDfov/CCC0P3r7prexS0GZiEvZGKTy9tHGXuJaUTwvY+aMD04H3bnXxQHMmLrzt2ubaQIHErCo6LuPKqqyRMAHHQjlzgsFKPIS4+nFzN6oCFC6D3jz+G162Xe9XVV+c0VGKnZwwjJx6Pi943cxisVKRXny5HR3F2C4L5haNDAMM+4MAD7B2KmSd0KZDdYJIsgqAeYZrMG62dmhtBgKIN+vdtCwvipx707lr5J8kWS3NJeVF52p02z+a4/a0TMWb0aL3nCAJWs+1onQKEn9Igj8n9n38iaVHDRwzXIpXaq+ffXDUf0MDGWjugbCpWpK0UUIqAZ2HIUSbkjzrySNnFZRznd6AJMLYROtjaUFnAcieIyCxZpvEp4/acr0eBOy4ujED6+b8Er+R0TtN23gxgkGggH330ofXox2oJKS/akup5UZ4QwJk7LCdGYBx26KGJa9DQFtoLmgYfMTpY0n2HMXQJIIMLjdjAf7wliwvWRx55RMMoDGv4dxslgZi8nWjpumld1DuLBRAC2JMmbuxhOM/8ljdBw/zHl19+GY6xcvNyddq8/BgeZogLbRPtu3r1aoqf70Yoe1Z0SsNOhUEAYyZtt6cMEEQMD2t1o8VRFFOt585QJOWsBR2WMRZkEJ4/4gW4M3zI9zrza9/dunUTs2Z+TSWeohNA32WXX2aaUQ0t2EDgcmwE/mCeaBoslliU98jrNKlpdQ4AcWFXQMWCwePJFy6dDmnE7TWeG11ckDhMEqIc2U2DoXTaCZoSHbBWrVtrPolUqTOGalkswreQtEFf1fqfhTWa5QLWgHSBeannkuA+uHv4+Yda9pDOO0jngWeVh93ZFdjv1iOMrCeuO+5gSeTfXirFy47Tbdu2jYzB5Wid9Ndf2jV8n332iaZNmyY7T//ee+8ttIs0v37Ziyl7p/v111+P7IWOfvjhB5lxm1vM7tdpuAtppPH0009HI0aM0HO6XBzW24/69u2b0JHsym3uTquH+dvy67thO4wBaafsUaNGy53wc+cladjlYakT601HZ5xxRtS9e3fZFZcXDzNl6pTor78mRxMnTdRO3n6xK/jkKZPN7a/INAIr+9kK5+nkw3c9euTSBaStK3l2TJ8+LclzvNs4ddulS5fItNLEx8KD+Lzu9JwqQ08/fS8JReuPX+y8ztP2uhMnlz3jB78Lkk5xIIzHB5Sux0dZzZ5lZqt/y186j4B6e+GFFxJTAZ3/Zfz3uvaLCPUA7bJKy/VmeS4J9D6siuPeUhLGah3Tfxrkx+penTBTiXN23qvizrc55emBWZ4pL3vxFEZlsZhAfIA06DHv3bKllrJ6vbBUlwl/JsGrVE12h4Buu3zuihiUDxyhzy5NxtsfdHf/6qv4+6M7btfOD9Sn/JsbVz6ofOxKgzF7Vlj5dyDqmSfxuX80x/X5loSwiZ3KMOn980z+mPtBg5KWkoD5IoaIHnvsUQ3Toe2tqO8DzJEVZMRpYFkyE+ws7fZ5heJA7qBxlZVXkdaFhsKQrF8Mm62ySjUNU7IqroKGhwqGZ4sDNGywQcOwyaabJjYG8qlbnFfKmDxWqRLPrSS1I22O+TL2hTN2K7uFhsWvuRqlY++ylSEp+HuKffruZVYcVH92x698mV/PO/GRFvbEoTsX7vijbni2awUFXjg4jYo7SctBGvrUwKwZzuXyMgW0Py1dxy9hywCWm6E5ZTLJaroB5BseiBkWDTOeE8Gvh+P+X4LyanfPB/C5HnezB+XLel96Cdw/wA8vAWUF41zcwwB6wSxtMQZLy9NgpSJ7crE4wTSjQnQ6cqv77Fn1w10uQQtMWLXU6uRWWrm2qJg4aVJ4+qmnwoMPPBBuvf32cMLxx4tOkE4TO6fNaSVf7iYrLssvzMX69fKjITXzx+4dbMvE3AGT+ixWEEjD/MYxxd8tMZ/G8ny26WEuLR/iVGN4uYCcvaXvzzn3hOaSoDCeJ/JgdcCSdeoNW+XZ79BueURw5Fbs4ZaU1cKAkCrn2ChaHXFaBXF7+vmAX6fJzYovdYcPpAWW0uCZAAbCY7tIeSH+5L0iPY/b05eAS6JVLfEPPeafcDgrrNktSvrLEparOSLPqCrTKg7z/KpPPa2kkmEgaoz/wUonz0XpVt7s7k3A3XP55VlPyWIF8s7fYsw/aThtlC8vlqfLtzesLmMrF/9YVLSSvt1jqgt68Gl62UGA+a2NNtpIHywSv/coBTPH+YlBvPHFN2PxUnG2bOFjZxY3MEHPeD1zO5wx5GUGFLeZnQ7KKr1EGlvczUIEInicVvxqzz57xn/RsvV0+PX4iyKddhpxyDgd4Gk65G5hc8wwQVEa0si1GbtIE01ZWknybpBfz4f8Eb+bzSL6J8lj4r4o8Hx43E677JI7KJrfolD++ZVH85nQ6YjdC+LFnTTTbXRRQXiVU/JMWXr7JP55qTop+l5Ah9yt3MH/Q8eyguVKEGVY9uCNz18mN881QcCQHAsUWGTAsJVe3BSjKAo1ZXNnuxXO3OFjQr5bYVNXGGZx8PhgAgif6dOnhcmTp2hlHsvJ02BFHx8mZsiQYfEiE0QZlhrU9OyKrLeXE0RJ74/5IbZDufCiC7WlP0BYxD3rkvuAfKjLEmriR7hwn18Y90Pa7ldj80maDH+xWaofOZAhQ4bFh0wQZViq8OEIlqD6BC2Mn+WrTMg+8+wz4fDDDpcfQGMtWaQEfUDp2owmtJnnm48gcuh1ML8IRGhDMPkQCZoV8SxoXBkyZFgwZIIow1JFuvmlGTzHE7C3GvuV+aQ9fksSAggO/PiHoxkyZPhvIBNEGZYqchPZ9vznH3/oi3G0GQ4OQ7BwZAGrw7Zs1kyn5c4PrPrz4TUuNe8k/uJA48ePT/bnXoYkHPCwuOWLJ0OGDIuOTBBlWGqg6XH5ppXsLcfJmtOnTU+O2uAbmJW1+eeBBx6o7ydKEgaKC+FjzxpWQwAVFTCGdHi3xy79nAa7CLBk2g8wy5d+hgwZFg2ZIMpQZuANWUehJ1oRH8Qy95Q+K0ZNHgHlTT95xn9aQ+PjVTYwZW+05rvvHtqceWbsP0OGDIsVBR8PZMjwHwfCAyGEYHFNyE/GBCxc0AeIiRv+dEs/E1ZP8VlU7OCw8spVtRlmhgwZlgwyQZShzABNh4/80IbY/ub9zp013OfnL7F6TrsYGBA2utLCKHUnLra+YYt/thfylXMZMmRY/MiG5jKUGdCUaczMDQ0aPDh0eOklDaudd955OsuHYy9YFs4uCQzX+So7gKBBW6papaq23udMHdyw59A3zpZhp4cMGTIsfmSCKEOZAQ0ZjYYmjabDIXtsqc+JnoBzfThNlwPy8Mi+aAgj4C8BG3NyjLzOA0pejXPOOTvUrVsvXH311bm4M2TIsPiQjTdkKDOQEOJugmLG3zN0mmvjZI86NkdF8KxZp44O3eM463XXW087ZTdo0MDM6+t4aw5rY1dsBJQLnPIVKmrLIZAJoQwZFj8yjShDmYI2wTRhwVEJ7LzNSfjsV8fRzuxozaalv//+uz56ZdjNmz8CBuHDnnacjOnHWON+0UUX6Vjqq666SnYZMmRYvMgEUYYyA4QQOhELEhBEl19+uU63ROjstddeoW69uvoeaNbMWRJCCCxv/C6IOBcJYcSZN3/88Yd2dnjwwQfCyiuvEtq0aaNjuZkvypAhw+JDJogylBnQlGnMCBiECoKEg+bYIih9zPj84FoVWtSIkSN1Z0BulWrVtBFrVRNUGTJkWHzIBFGGMgMXRD6Pk57N0bk/LN3GzfzhR35jZwkf7NJhMmTIUDrIFitkKDswQYImY70r7Z4NEE4acksOqkPQsEzbIeFll8Jh9iuxJyxmnWeU2GXIkGHxIhNEGcoUJDzszhxQ+jA8BEr8rVAkocSxE0XhGpIuNCa7MCDUmGeSCMIuQ4YMixWZIMpQdmBCxofXdIS1CR6Zk8s1HwQKbg7cgGs7rvPgY4VkOM/tMjGUIcPiRyaIyhicYTrQALBzezQDkPbnz8yj4J+rtOApuRCAOrcT7Qn90J3LS+K3qOAADLvhCw3GBYzAcyJQCKfD8mS9guU7LhPMynsSL8DOh+0KxZcHxE0cxKm0Yuu8UP5S6ZUGlKb9eb5FZ0KDU5K7mz3fYJU2nTl67K7hUe4lpI8LftSGE/+lR22G/xfZYoUyBCpSzNReRJhmrqef2FPV2PFCSzNIzPJjzy6kOJYB99JAjjaZ7J6iIabHaE3md/wYcYD/nFmkWn7M7PkuFC9hMZOnVJ6Bmj/+k7CC3Qt8LBhEDw8WzzwThnw8u6BxuPbmx01QPywfF4wW3DgOI63FLQq8vlXXRqOEMebYMfcM3dDA3e0oHwtldJU3U+nB2yplpDKx53wQnYn/eB4wnjPMsOwjE0RlDGLe9u4xpMRO1D634a+jM6M0vAmIOSVMv9QEkTe/JD0YHgSvsGIxAgUk/j0PCm+PiA5cZIb+Ikwbe4+HsBygx3Y+aUTSpnCPtaWFhcLGjzl65xePOg1GK/44ssKPrcAemrnXqFkzHHbYYdrxAdqL1t/84HTFgh2DMWqEH/ElZu5OM8gJ5iStf1h1KDpj85JEXKcFNHmKqsOEnqLQqkhru+ZJZvxCbzp8hmUXmSAqg6BKGXZBmOjQudQLPGv27DBnzhy5Va5SJfeSwqT8xU37X9JI97xBjm672BuOnjAu0FWZ/d/wlNAH82HhQXo+CHeY6JdffhkeefSRUK9uvXDJJZdoV4W0P8/v888/H956662wzrrrhHZt24lrLQqzpcx12Z+v0HP6PG9FUbSsJ02aFMaNHydtyiy1353TyU4PCM58cZUEveIWjjuh88WhujA3d1VZzifMkgJ1Bc2kSv7VLqi72PlfEJ2eR+5mh183Z1i2kQmiMggYir2BhYTQuHHjtBP1qFGjwvgJE8JKFSuGbbfdNuywww7h66+/FqPbbrvtlhrzmWcaCrsaAJjvTz/9pL3iOMIBplTR6G3atGnYddddpTE4owEuzHJ0JwKGvJ588sk6WZX8+jBPGhMmTgzjxo4Nl156aXjzzTfF7Ivzt7BY2DjI688//5zLL3nZeOONQ4sWLf6luS0K0HZh65OnTA5fdf8q7LfffnF5JTSqDO0Z05gxY0K/fv3CVlttFapWrSr36TNmhGlTp2pXidJqF07foEGDwu233Rbuuvvu3NZLReFMDMqmT58eXn311XDMsceq3jMs+/j/Bp0zLFOAmThgxv4if/vttzrKoEePHuHggw8Od95xR7jiiis0H3H//fdrV2n2X3O4RlIacMHnlE+ZMkU0Pffcc2HLLbfUPm8ICRjyfffdFx588MEwmw1IkzAxA43D0mO2n9xzzZo1tasCzAi/5IsjID7//HNphWA187PeevVDhYoVrMzinvSiCiEEaJcPPggvvvjiAscxc+bM8MADD4QXXng+NGrUOJx//vnK80EHHRSeeOKJcMONNyQ+C5jtogARQ53+M++f8M4774QhgwfL7HHy7BTTXjiZVgI/aVMPWbmfddZZuXJb0iBdb8+vv/56eObZZ0VzSYB+6LvD2jf0M6f0/5RZhtJDJojKEGB+Yswpc/8BA6QVcLQBDG+DDTaQG/upHXHEEWHzLbbQ4XFoHMDDOgMCEhQpM8DkNkXdZfbn5J4PpAfN9PrRYE477TT1yG+zHjDHe9OT50I7QCAhjNj/TUzUwjm9xSHt5vS1b98+3HvvvUVojJ8QJPniw0eB/3/j3XffDeecc07o+sUXEoD4IT4uh8fh4cnn2WefrRNkr7/+hrD99olGahc7hDOk+MLzL4TOXTrLf7660V2/+eHunDrL2UzvvPeezMSZLseZs2aFQQMHhS2sXXibANQF7SifdubxF0cHGgqdHi7AkOWCQILEaOOQQ/BDz566A9LBjfJ1+rl37NhRHZlNN900HspM7OXfn5NwGZYdZIKoDMGZgPduedkuNWbG8ApM0oE/luSClnvvrd739BnTZU4Df+qVIuCSF96ZCPErjURQkCaINRR75oU3M2HywRkCDIf7Nddco73hrrv+eglK3JWXJG6YM4z0448/UjoIWsWfSiL2GcddQFM878T8GENg22yzjZis++XuJ7c6iN+Zld+Jk6Q8HIz1o48+kkBnTuqYY46Rdsnx4vKT0O75dOCG3V133aXhuFtvvVWnwSovBvfL0GmNGjXC0089LbPqAlicog8z8WMVuxSLdLxoik032kjDkS4YvJwA9j/+9GPYc889ZXa3va2dHHDAAbHWWQw8Bu5oJexyTqdi//33D6effno49dRTZWYxRtGyLop0WY0dN07ze+wV+O2338jO86N8G31OY9euXbXb+jQTfHRcgPxSRnaXL/ymwmRYNpAJojIGXi9N9Bp++eUX9dSZV2FsnZfRX2JWYPFUqVKl0Hz35jqZFMAE9H0JLysW+OclTl5eZyL408ttZlYrMdHO4gLYAwxSTAKPSXrFQXEmjO2VV17RkBE7ZjNJD2JmYVcSBYsVOI6hX99+YYYxG8H8QAfCJh9mTJ8hreOLzz8Pv/76a1i99uphgGmKMb15YHHCdJWPhEaEGRTRQ3/t9dck3N8zzeKmm27ScNDOO+8cVl55ZdHj5ez33HydTMGE6cfh6aefDtddd500KEC5s9DCNQHyT3y//fab3IHiNj9JyShO3fRbPLzufLh2k002kf3jTzwRPvnkE51ay/whQpVhRbRn0gV/z5yZO259QTDR2sFll12meUc02E6dOimdp558UvlFA6fOSgLlHtd9CMOGDg3rrLOOdj3/9tvvLO9x2wIq28QfHYyHHnpI80KVrU3XqVtX9u7OrwRcUl7zoyFD6SITRGUIvFq8Zt5rpfe50korhfXXX19mvdx24YfLe57777d/2GmnnWQmrL7XSF7YmBnHjBUB4wxCjNWeMQ0fNiyceeaZWqUmN/1a/Oa/gG0UD/wixNAKGm/YWHNBDjEa4uBu+Pvvv+WXuQuWpQOEQ3zP35QJ89VXX4VXX3tVcYwdM1bzZTDZfCDfOcaVpM9u3s+2bx/uvuee0POHnjqCnOFOGDf0sMRZPikXuyS4LB6eRWVCK0NVN914Y9hss820QASQRzoHlrA+6nU7dv72+lR8yQW45zoEsikeXo7+jIbcqHHj8OYbb4Ru3brpFNtvvvkmdP+qe3jmmael2QE6NB906SJhdeedd2rotCQQ94NWHo0aNZJ/7mi2pFfFLjo95crFK99E0wJgytSpasO0T+px4KCBcZ1beMqFuIYMGRJuvuVm1cd6660nIVptlVUUniX5+CW9uC2b0cqspPLKUPrI//Zm+M9BgsLuvHRc9PpBtWrVdHfBU/TFrFOnTqi9Ru1CQsOZHYCNOkP1uGP7GM4Qy6Ed2aWhusRe3yXF3vKCYa3hw4dLIKbTEA2KI26mk6xX3r9//7DRRhuJqTnwJ795sPbaa2toqNEGjbQA4sqrrgzHH398qJ6US3EgP8RpbF40zDKhdY8JoPvatQuHH3ZYuP322zVvAnLDlQhDysYu6iKtpUlLxc3AwpCvTGOQplor0VTN3gWflx3HmsN8oTkNpw04M/Y6KRb4tQsG7GW5hwl8BCHaC1oZQ1onnnBi2H333UP9+vXlh3rhRNvmzZtLGCGISwKaG4tB6JQAH/4VfXriOaYblECxQKeBTs6GG26o1Z18+/XV11/JTXVud4QjGukB+x8gjXSAtQ+G8lyjA5RN3NbtbuG83WdYdpAJojIEXjK9dLykdtVcbTW9dD4EJeYFw0oxMiBG+A/h4uYw0hgOQzWsPJo4aaI4iXqhILnD1AgHE2bohGGXM9q00Qvu387ghw8nC1IqDGeeffr00eox5kSAbAnPM7RhNvz044+a19jCGLPiT+xhkCz3LgksP/6y65dhy2ZbhooVKoqZIyzyQfGb+wrmBfqZUzrXetwsLmAy/Mknn9Q3P4D8AmJzurh7HGl7wLwQGhSaFGWOvcqXMPbs5cLqNQ74QxAAt59qWsJ3Pb4Lc+bOUbwKx70E4JqmoW7duqG8aZbffvedzMT96KOPhoMPPkRmgDa2VbNmogMtNDfclQdoVczN/DnqT3Usxo4do/sff/5hAuNP1RNtURpJkteSwHDg8BGxINrS6IDebl92S1xDmDx5sha1IDhZSEEbQshzZpQP71K+DHkOMzo+6PJB6Na9u+KdX9oZSheZICpDcCYDYwKcTkqvkl4qEGOFAdCLTpgaPtEyGN7ADQb3cocO+l4Eu4MOPCj8/NPPOb8WiZ7Vszb/zoTRuioao0i/4EqH3mcSpijEGM0NBoJgYChHPqET99TF9jcwfybRd7GeL/C0vuz2pVbSlYTJxnwGDxkcNt8s1mKgPydciwF0QB/+EFjcGxjDY+L9sccf0zLzc885VzT5HI7HR7i4nBLBkjBeB0JxlVVWMW2olswejrvStIv8Mv9E7/6oo4+Su5fiiBEjQqdOr4Y5c+IdxJVGnjJOw+nydnD0UUeF1157TW4IPBaKbLX1VjLjh4UGc0wLYe6uuWlK9eYjiFhY8M6774ZLL7lU80MXX3Sx5vy4X3ThReHKK6+UELbEkxAxiqMc8c23TJtssplorVC+fNjNNMgfrTMCnbQXhv8Ai1zww1ArGhJCtnLy/RP+PrJOVefO78ueVY3HHnts7nOFommT7wUpywyLGVboGcoQjGnqAlOnTYuMuUf77rtvZJpENG/ePNnbyxlZL1EXMIYXffrZZ3o2Rhs999xzesb9kEMPjU477TSFJZzb+zMoeEqec/7mxX5lyg9j5tHKK68c9ejRI7GJovETJkSz58xJTFHUsWPHqGrVqtG7776b2JSM559/PnrqqacSUxR17do1aty4cTRg4ECZTavI0WXCOjrssMMsvdmJTQzPI/d0fh3jx4+P2rZtG1144YXRrbfdWoh+kC4n/SbPX3zxRWQaVmRCQGYw6a+/ounTpyemSPmsWbNm1OmVV2T+d+ox8tkvCObOnRsdeeSRVtbjVef33XdfZAJQbt5WfvnlF7WhL6z8rMNQbDk43n///eiuu+5KTPkxb97cQm3RLxN6sV1if+VVV0am9cgOvPHmGyq39u3bR3fccUd00kknRdYhSFyjyIRQtMEGG0RXXXVVYhNFptVFRx11VGQavsy8B7vvvnvOD1Skc+S0ZChdZBpRGYK9QNax4NuVeNJ8ZesV8gEoixY+/uTjWItJQK+bi54wuy5suskmCn/ggQdqqA3YGylNh+EwepzqURu8B+/9RkxDhw6V9sUz9ta2cJI59p0fTESzTJkFBeCDD7qEzu+/r8l0tKVevXppHqBdu3Zhn332kR9ggjZ06dJFK71YAJCG0+r47LPPtI1PgwYNRB/fm5REF2VBHOTD2NK/4sOelYgmhNTrp8yIE7MPE6ZD8KzzjQyNN9xQYfv26yszQ4bvmtbxvmlAJtzC70N/t97+XeHCiy4KBx9ySG4VJPjo44+V3/QHyIsKhgfZYeHRRx5VfMwZMQRJ+XhbYRk2WtkO222nFXC+5Ls4bL311lq95ho45UZcxtpz7QFoL78kfpVrUi4rrhjf+f3hhx9CjVVr5OY3wU477qTFCCZENP95z733SrMkfsCycYbdWNzg4FsiPuJGG4IahveYX0SjFahbu6FlOorWdYYlj0wQlSHwAjEmzoAQQoRXf6+99grXXnttuMsY2wcffKAXEMbG+D8CiGEXhsRqMUxk4WFMu+22m+Lj5WRehlVUxM2L7BPzBWwlnqTmZb/yiisSm4SR2x/3kgCDYg6ApdAvv/yy5ppgdtDBWD8CiMl0VkTxHYpv4kq833/XQ0ynQ4cOWpb9LyTMT8LE/NepUzfMmT1bAm7DJk3klg/k12l3wQuwIz6VRxI/uzccf9zxYpAtW7bU0mz3Q5nCkAmny57XqF073HLLLaHjyx0lIFmtxjAYqVFHZ5x+RjjkkIPDNVdfrbkZhAIUEC8rGlmK/oblwcEk/qJijz331Ee+zDvxEWgaptFp6fZ2226rYTfmd3y1YnFgaT2LQG688UYJI7Ztgm61yVQZAkwqSwxJWU2cMDE888wzGhJ+9tlnrQzi+Sr80O5ooyw62WzzzbRYpJYJc9VRXA2il7ZN54r8gIrWPo4++mjNXdEev+/RI0yYOCEcf8LxcqduTUPVwpHb77j9X3RmKB2Uu4HlMhnKBMQc7c7LRS+RFw87FgGwTxuT0f5NyMBBg8TYmHNhVRbheAX9ReRbGTQQhBAMAQZKvL6gwTwaE5iXYzLDhg4LO+60o9JBYMmf2Xt8fv8X8GM35rPovSKM0Bb4ZogFEyyzfsTo3mOPPaQtwGBYEcXHqb4Ig3y0bt260Eop5iJghOSNtFkZ+LsxOLQ2GNrOpoU5YOQw9sMPPzw350WYHM12d6ETzxnxgWyc75zAMbBUmY9u4z37sI8FiNzt4pkyxMzOBeTzpZdeMuY5VxPuX3btKsHE6jw00+HDh8GjVRaAeSO0E30vY/WCdgC03H4RAaOeMGGC6N7J6gC6Ye7kD1r5gHi4dUjQTOnUYC4O0n7solOD8HzkkYdNGA0Po0ePDiNHjgyDBg+WcEJLr2r1hF+VpbUhyoOLrZcQGuTviCOPDPtbZwRapD0l5U3ZHnnEkfoAmHrTHCRlbX+sbPzKhPrAgYMUPx8ue7kDtPYnn3pSHZrddt0tjtvcAfNRrPLjY2R/FzKUHrJNT8sQYAb+YgGqFlPajm1lWBZM79W3+/GX3X0hhGDMLE9m2AzNaHXrxWvII2kuHqfSKJKmWeQm6N097ceBGxcMyf3B8PqYdoMQYbNLH3pDe2Nymv3OfHiNBRfswoBAus76U5WNPk/nhRdeCLONcZ9iPWhnLPSWmXyvZP5EJ/ZJmvTkX+74cqhQvoLsgehLnmHKC4t0GtSNWcSME0YPczWQNotFGFpk9SAfITOcyoQ8PfTWrVprdZ3nAY2JLYrQZIkXQaI8E/dC0ijqLBzb+rC6UbuxexxmT7tAA6LceEbAzA9OJxvrfvP119LeWIIuWitW1C4UdFZcmBMvAXhmoQH76yHsqDeEFu6UPXp4uYQ2ijLXWGWIQXmjGbNogdV+XsbgD2vTb735poYPEVAIHoSmEab4aRdPPP64VkUqziStDKWDTBCVIaTfT6CqtRcKOzFCQ1GGKtuUP5jBY489pjkPtInfjJFMnzYttGrVKseI0vF6eOzExLgSd29aJTFxD+d+08z0m2+/CXvusac+coUx792ypYarHGPGjg3nnXuutCG0paOsNw3jJIa0IAI5+hLEqVl6dqFpHHfccYUEUZou7lOnTQ0vvvCi5i6YYxCDNEYXM9JY0CJgLECos9Za4bprrok7BootzpeniR/CEHe6bBgiOvHEEyV4Jv01ScN1l192uToAXj4sU2ZXbN+mCM0K4FoQ08LBw/oduqGLvHkHRSLZ/tNlWBS5MrPn+dGCH/m3O2EYenNtNA2nJR0nz4586chPQg9LyB9++GGVK8OPaEYIylNPOSWXP4YDv/v2W+3MkKH0kQmi5Ry86Cxw4IVlZ2bmY9BAfK83tA0m4JmjoWdc0hzB4gYT6AccsL9pRoPVk2b+qIIxXwDzmDxlSmjXtq3o2mWXXTTf4Yzp+eef11wTwzAIjOIYqJihMVuG+05udbIm48sjiBIGlgY9Zr6FYR6jWJh3RDNlVnXlqmH9BuvHml7stECgE8BcG4sz2P/vkUce0TL6NFNFK2RolXmSgw46WNvZyNmuBU1nWQSCLu7aLF7QyWBHc5bCs7CBtsKQHpvnMvxJfVF2Dz/8UDjppJNCtVXyf+ScYckhE0TLOah8mgBMLj2cJsZmz7AG7vSOsS8tQeQ0MfHM8BW7I4i2xM01idlz+EAyirUG2RjMnbkX5luYA2PDTt/PrSjYE+3rr74OXb/smjuPKFceiZ//hz2qHOPHf4F0LCG5e5podnwou2HjDQvllzz5UNMUE5wFW9iwqo/96Uqvg/BfgzRTyhKN1cBzrn7Njbkh5pf87CXcMpQuMkGUoVhmSbPAvuiwmg9JlQZyQ0RiJOIZOaatHrQxX6fE/ToYjmEYjYl+FkKklwGnwQeSzGOw8o0PJpWQwfPoL0e6FPK+MKIz7TOmtSTGpuEvc5e/JE18+2vpDLNo+mixmmPBX5JGSeksr1A5psswKSsvX4dau/2XVtvOUBiZIMqgl5QXFKbmOz9LO8rzUpYGw2POQPvUqXn6xHl50ZkGpsJMGoG0YMyEuNN58XLgXlQAF041PwrTUthcFJ6ew/2LLit7D0u9sLosvaLPl9Fj569wJoiKh7aZ8rZsZeSaP5fKTvdYsHsdZChdZOJ/OcfcefG3HryAMF9eTL2MTPqbGbid7BO7JQ16pixrlkCwhGG4SjmVPrSI5tggO9cSRLNd0hjygPAIOK4YBX55Sock9vldjqJh8wLajAb/DshfRhdC0MW3MeRRQoi8Jvkhn5SR8pfkPUPxWDFpy7rMrPKlLO3Zy5PhXeaPspJcOsg0ouUcqv7kBYXxwdy8QeCWezETP7iV1ssKPTAMAcaR0AMNMGeYsFxTtAGe429MCvbCKwkKZ3H5yi1Ps7i8ehrFoahfUFwcjjS9Eih2efm7nWixey4eNyd+Qb4VZxkK4GWZrg/umNXukzp35NpdhlJBJoiWI/hLyF1M3V42awC5l1QvatIc/EXEzOVMr7TgtKbhNKchf9CMPbRiTvkpLp6i8HiL5h0sSPg04hgKwhRHswM3/Oe0uiR96oPyJhQ2DCVhRjsirjTTxH1h6CttpMu0uPItLeTqIaHBDLp5+ZVUTxmWPDJBtBwgzQBc6xGz85cxcefXmWL2Si55eDl7XfgwnMMZY1w7BvO3tJmlaDE6nCa1l6T95KPNw5gHmfVsyBh/Bkc2R7QcQC+8v/R2h3Fg4g5LgBH68IS0I3nMsKRBOUvLsTvlz0IR6kqMPakvrw+0oph9L10wbyckdPn8Vj6IZvwm+dGvPWdCKEMamUa0HIAqdk2Iyi7KApiqV48EBpGYuWesYsnCXzxWdfn3WW5H2aeflxkYUXP/mRvKs4IRY4p95BMu7gd31/6wydpXBkemES0n0JwDDMAYgS4sYRx2uRACYhpJLz3DkgVlzMUHqc6sdU8uzX3ZBfMGdCbc39ICtCKEnIpcW8oDuSd+uHwoL2tfGdLINKLlAFSwv/hUtzM0dhFweDPwxpCeq8iwZOBl7pqEzKly58k1COBa7dIENOY0H3vmjCXZmTGfRgTS+fA2lt93huUNmSBaTsB+ap9/9lkYMHCgtuavVGmlsPvuLXRERM+ePUOVqlW1Y/GyikIMsAQsqL9lAXrxjF521ObAP2fWRYevpk2fFn7t86t2i+YAQcDcDGdKsX8aw3rpfC/pMmBbJA4xPOOMM5S+JSb7fCmyySg7uLNRK1sx5YaJlzCdGf47yIbmyhB4sWFe0ngSM/j5l190fMJbb7+tM2U47+ayyy7XcQ8PPPCAPV+mc4oAYXwoCBQ8xVD8+LE0ioNo4ErM6biKg/t3+HPurt94Uh9g9qsoZJ/EF/spiNvvDs45evOtN3XKK3At0fOV9o8d5xghzNlolb3eJk+erM1HEQae3kIjSe/111/XERAufHQn/YSG34f8rgPj0vv8vf3O2+HYY4/V8RigKL267Dmmjf3U5hby43A7+bNLw4SyKR7s+8fu7GzI+peVAYIEURKnY3f5KoiXcqN90dnRMSIGPiiV38QP8LAFNhmWJ2SCqAxBvUt/ue2OeeiwYeE4Y1h11lwzPG3MzE/hXHmVlXUGD4erwSQq+lkzFsZ75cSUZjKAZ+JNm2F6OT/QwGXm2Jgw1WLg/j0+jwe4mfS555iwuWPHBZR+Kn4fusImnazKxkBeOUmWY72nTJla4N88p+nEv9ODH84J4iTYTq+8ouu1114Lr9idw9w4z8fpWRiQBvni4MEOL78cWzodyR0B3LtX79C4cWPtl+cUrr567XDQwQfrgDjohEbulAXx+pY2ni/mdbwMZs+Zo13VOVobO6WXQkl54dwkNBwOu5tsghgQWnETT5Kep8VJtJxtxcF7QH71EJcrNMfGuF49fIblC9nQXBmDKpOXOmEwxx9/XPilz686xZQjqr2y/SNJeqwnnHhCOOTgQ3QmD2G4fJuZdHx6lDEx2/1fuxGYXRqYEGz54P6dXo/HoT3n2DuumDjchhh4JjwX+eLuAow7J7bSk+d5v/331/HXbHQK2H25PP5IXzZxnBaJ4gL0/v9KDngjbv+4lGMYaq5WM6xUMe7tLwpg6rfdfnu48YYbdGBhGgiNE084Idx9993agbw4KN92F+32Y8b4x+jzsv/ONMCXX+4Q/vzjT51j5OVynHVG9tqL4zPMH36Jyy7Pd1FwwFyrk08OvXv3Dk899ZSOqwCESdcRTxz3ffkVl6ts3jZt3E8CBqKZdCxM0brP5SXDcoNMEJUhUJUwF5gILzXMl1NWGZbj+OVcVfPyJ/7x9/jjj4VVV60RjjrqKNlxiZnjVQGSuLEnrF0M9bgAgg3SU660UuVQrny8J5z2iUu2nXEGkw9OB2D4i4tIaq1WK3f+kHlK0opp4i46S4h7ypQp4aeffpL2whAWZxNttfXWYZXkSHHtLbYiZREzQs+zp0VZcufilFE0CBg4gicuwQKk87CwYL7noYcelJbSvPnuOkOHuKCH482//vbb8NCDD4o2Nj9ljm+VlVeRhjRn7pz4DCWDb+YJLTyXK19e5yjd17ZtGDBoUDildetQv0F9aUcMwVGSnIJaqXJl5Yb8UpclbRfEjuac7UPHhtNO77n3nngVHWlSBrQ98/fWW29pOHFN08TRQjEjSEkD4M+XrbsWJ/rN3ss/w/KDTBCVIXhV+vk0HHAH86U3fc4558S9eHPnZccvjICVcyNHjNAmp/Xq1hWzS7OAdPMQs+AhYRQu9Eb+8Ue4+qqrwk477hhOtfSciYiRz4exQKvvlv3ll1+Gb43p1jU6YFCEONKEI2kg+NLfruRoMeCvgMoQJk2cGL7+Jj5nCAFy6KGH6lwihwtUgMa1gqXvcWDvdjwzJ/LxJx+HQQMHhTp16shcv379sPPOOyu8eSxRGJYEla2FJfSnn34arrIy5PRVzsVBSHISLEOIHAi42267KQz+OOqdQwM5rZUhu6JwLZIyeu6553R89h133pmXzjQdMttVnE/az1NPPhl23333cO2114S+ffuFH0zIVLA2lBba3bt3V5tjWI6D/JhPozPgc0ReV54G9QHURqw9UPYZljNYI8xQRmDMQJc/X3LJJZExs+i555+XHUi765IphjH75CmK+vbrF40YMSIxpcIlFzBmqbsxxmjfffeN7rzzDpmNYek+d+4c+UmnURTGNHV/+513op122ikyQSQz4S6++OJo/ITxMoMZM/6Oxo0fF5kWkNgU0AL8+eabb44aNmwYvfnmm4lNnI7ckzw77Y5ceSTujvvuuy/ab7/9ImP8MpuWFV1wwQWRaS25vEHP8BHD5b6w8LRMY4suv/xylaVj/IQJUevWraOp06fJ3Lt3b+VpzNgxUfPmzaOOr7wie+DxeD2BsRbnkUceKZqLQzqfnu+0XRrYz5o9Ozr//PNlvvHGGyITLNHoMWNkdtBuDjvssOizzz6TuenGTaNWrVrpGaTjHzBgQKH8UiPpNphh+UHW9ShLsB5lrrdpz6uttpqe58yerbsxAd2t3uPeZ2xQGC560Zzdz1zK7FmzwnfffWcazqlaepvzDwhjl4ay7N6gQYPQvn37cM655yUeYqyYTJCnQv4LpMnk9zVXXx123XVXLSdnCOz999/XoXYMQRmLlN9evXqGW2+5VUNYgLR192e7yCNDjBwPzbzE448/Hib99VesIeA5oQe68Es4Y8KxPXm0y+NlifINN9wQzmxzphZ1sEIODWOLLbYIFSpUUP6Jq+sXXcNdd92lMCAOPX/k6Ld7rVq1Qo2aNaQROtCGtttuu1ClUmWZOa12++23D0N/Hxr+MC200QYbyB54GaMNeT337tUrbLTRRop/4qSJKoeJpi3yPNE0RVb9UZZOr8cBCOP23HFjZV/Tpk1lt+WWzXSc/Fem/Tg4Wfbyyy7TvJEJSs0/0nZqJ3Nx0jTtzkGEtBfcORb99NNPl4YHM6Ke0u1Ud/1mKMvIBFEZAi85wy/+IjOGD1OHaQExF9zMD8MsznwHDhiguQieu3TpIgG0ySabhD323DN079Zdq54UPo6kMIOyMIBJ9iomOGDqbmfd7BwzKQ7uwpAcwoghKYahuGD0DFUxse6ibIcddwg33nRTqJwwZuj3WEjT49vAGDRDkbfddpuG0lq3bqU4GdJyP/inrKBP9NrdNBzd49SCjhpniHDQoEGamGeos1mzZlrU4XkELVq00DAUcXO5C2Whcs4DT1eC0LBPy33Cl926iWZW4vXv1y9sutmmEnjU6e6WTu3atSWgWP3I/J9DaZuf9Oo46v2jjz4KJ510Ujjt1NM0THvqqaeG0087XWXSqtXJyiO+PXwuV0nZQJvXYWfrHOy3/356ZmiSOu/UqZPMzMedZx2RXXbZJZxwwgmymzxlsoRN7dVryexDbnyHRLobNGqkzgfzeO++967cHErTaCB9hpApR9VPhrIJq/AMZQj24uYu6/VG9evXjw444IDIer4593lz5+aGz4BpH9Gnn32qZ4Zz+vXrp2cTDlGTJk2ibt26yWyBk9s/kQk43UE6rrnEPW+e7gA391cccLvk0kujjTfeOBemOPzS55fo+x49ItNKZCYclw+xeQpKmyGzVJqmBUT33ntvdMYZZ0Tt2rWLvvnmm8QlBj49HseMGTM0rMXQWFE3B+H69+8ffW3xFaWjIPX8wA959rxwnXDiiVG//v2irl27Rtdcc000depU+fUhTOrUtJLoqaefVtj0MGWc9zg+YBpddPXVV+u5JOTSTz0XrbfRY0ZH99xzTzTdysX9mUCO1l133ah3717RmWeeEV1t9II4pngo0ToXUfv2z8ocp/GPhjEpN9DP7tZhij79NG5/ald6Ip4CevQs2wxlEZlGVMZgdZrrxdZYddXQtm1bDfd89vnnsQd6y3b5xPWECRM05NN0o3jIZfVatcLa66yjobHLL7883GQayE477SQ3+u3q8ROeYSm7kw5xjbE4fFWZMYzcsJ39KGxxcBf81qtXL6fJOcaPH68VYiwV7te3X+j06qvh3XfjnjN5JH3RYOYVLKwxYi2OyB13bvZc7EZw0UUXhZtvvjlUX7W6Js4vvfRSrQATzK9rHQwfAY+b4c1cXhL89ttv5vcfTdQzXMUEPlodyGkUCdLhigOnh1pCuXI9lG+KXuqgeI3Jh5VXXjlXTuBj03BMAIVDDj5Y2s6oP0fJ3ssc7ZE0MW++2eZh2LChwZh+zo/utA+7c5EPgfzqBi0pzSjBO2+/Iy25SqVKCoe/M888U23HBLbK+NprronjnBfHyepH2kPFZGk7YcDaa60dGq6/voZO777rrnD22WfnFmOweAZfY8aOUb3E9MQoSlOGsoNMEJUxwIz8Anz0eN5554Xbbr1Vq5mYL+LlhmlPmz5dy2qZ/+CbGhgUYDiMoR9Wm7H9zI8//ih7ZwTO0MT4LS7G/GGg1157rez5JifHPGCOCQMqCmxxO2D//bWyauqUKYqTeYsBAwaEF154QVvIsJNBs62aaf7KV165cBBTtAuaxLQSIUy6OrLAzLjhj6GkVie3CldccUXYeZedNUQ0eowxPMojEUDMUQBWrLHSboy5s/SbsoEuhpRMozJhMC+YCqJyMg0yrGpCHzCEpPTtWUIoT94F3LlZGIQ5aey9997qBLDkmSE/uSu+WMAwp+JzVAjp8smHyKRC2pRBLJBCqFK1igmLNuEaqxfmYESPwd25lN+ERlxjH7GZj3g/tfz+ZvXLXA/zTfh1psF8HkNrLDm/9trrC9UNoLwYZmQuinoF3sZYpcnQYst9WqqjRL4cCM5DDzk0XHzxRTKLbrs8bIayh3I3MBuboczAmQkvLy8uTIFxe77hYEKdeRIYAz1uvgdhUhmGAgODYY8YPlxMg6XKTZo00bwIDGnf/faTpsF4vRi+pSGGxrOF+/7777X0GCYpoQAxBnrcztzzYR3TwGCsLE3mGxoJCGOyxx1/XFi56sphXXOH2TNXhYampd0wT7t0J72EuToTxM3P9+GiLGJGHGkuimXPfGCpb4rM3r+Jkl/is/vGpgEMGzZMjJHePd/OIHAOPPBA7USx1lprSTDhzuIIys03kiW8p8dzsSAto8s1OEAnAE2QfKBpUH5aXm5+uWrWrKk6hMFvttlmYX3TLITEnXjcL3GjVfEhc7v72mkekAUXLFRgeyfmkCh3viWiDIhDUek3hLvuvFPfoHV46SVpP7STnMC3O/VAZ4UPhNm70NOO44nCjBkz1JlAmNP+WNRilEmooT2zTJ82xtZTH374oXaYoPwoR7TN4dYWmY+TkKYdqY7zlGWG/zSy74jKEFSRRRhKjjkkgAkw+c6HhhtuuGHODX/TjXEcfdRR4ZhjjsntsgAjgmGxnQ1aQto/SMcNPD0Ylg//4bOwrwLgH3f8IoT47gfaHJ5OmzZttAjhgAMO0Iea6xtTU9gkPfvBt/6L0jQ/5OLIA4QQTNV3YgCEgdFTTvvuu6+E8CrVVtGwE/YuGBcUcS4NFi+aBAKDYUHicuGKH+KEiTM8x6pCt3eoFCwOyiOdPjtDfPH55xpWZCcH/BDv0UcfrYUHHob0AeXRrVs3rW7bcccdwkmmSSIwgfyCImko32aHK/UJnQhvOhpNN95Yfqdavk475dSw1957hdatWyscGmrXrl3Dx598EgvFBOyDiDZPfJ6vha3bDP8NZIJoOUeu8q0ZMLTzovVgGSZjc1Q0IVaLMb/SsmXLQkxxScObpRibPZ9x5hnWs19DwnNPo602W+GYvQReQhMzHytYsOeffz78/NNPoULFCuYF7cAc063czDByeunst4eW4ZobaS1IHolunsUBI99hhx0kNA47/DBpcC6ElaQ9Z8yzAOz08HKHDlpGztAjm+0+8+wz4VQTTgcedFCu80KHhLm8U049xcovFuqUZ1aSZROZIFrOkX65YaDMIY0dNzaMHTNWAoldBLgYLoFBlyZTpWlCH8xp9JjRYcL4CRrO8aMQvOHiT3TRlO0+oH//8OeoP6U5Rf+YG56K0M1WOWwYulGTjTQcBvxVmJ8g8jJjXokhxKlTpmooUxuQWhzOTJ2+win/N+B5TKM4uwUBHRiFTeoITQlBxEIH5t9YHNO4USOVHX5Ig33qdmu+W1hv3fVUL6XVAcqwdJAJogw5FGaiDHvFQgD43nI0FrdbkoDJKz2ISJiTw+nET6HJdmN4aDa+FdCCAP9kCgboDC+9nVBROLOU3yRdh7vpOaU9LvnSWvygnovSXZzd/KD6s4sD9FzIOCgv3CinNBtCUDEUykIVuZmdh/PyzVC2kAmi5RwwTHu79YL7GH8O1jRkxh2jXaXFBtQsE5pg+NChhmr2EkTGoKAFTQ03Z1gII8+Dh5kfzS70lP8k3vkBjSq9J5qnCRjidJozxHXJn5cXpeL1qxWDXne4pfwWLT2vpwxlD5kgWs4hjcBeeV76NOMU87ALO2f8zjRKA0rf0iY1b6L8wuBdYEpIpelx+hP/jpIEgvKWxKXwZsZ/SWEclB0lp3JKCTAxVLs4XgL6impO/wV4CRbN06KA8knXlUQNQ6ZJ2UgzMqjcYw9W9wXped38F8sxw4IhE0QZckwGhiAGTJNIv/QwErucESwIk15c8OaZTlN2KTrdxfMB0n4WhN58cRYH0sFfOr10WBntIs7SLKvFiUJ5MxQ1Lyhy9Wd/Lly85HjOCSH9xkKnQGCZvZerP2cok8gEUYYMGTJkWKoonXGWDBkyZMiQIQ8yQZQhQ4YMGZYqMkGUIUOGDBmWKjJBlCFDhgwZlioyQZQhQ4YMGZYqMkFUBsFCSJZC6kqe05BdkcWSLJstzr44pH0UF3f6Pj8smK8Y+HUa+bjRIbvkGeRL223dPW3mOWeP2S59v5LA3bycgPvzZ7/HT4WRjgu4H+66kvAgZydTDD9eAiiNlH9Q1D9I0+J3pyNnb374KNhRNG6PIx1XhgyLG9ny7TIEVWXy3QXfXMB0/ENLjg3gCPCff/45DB02VMdt77PPPto1mqOaOUuGYwXEdBJmle/jVWfGfgge8Ud83Olfziffe+Bvflvu8NHnr7/+Gob+/rvCEW9Fo4VvljgSgD3c2F+O4xeID5rUYM0ffkmf84+AvkmxizxzJ+0Vky/x8evxA0jUty08y6YwCvzFrtCZTgf6Yh+xX//GyrcdYpdrjrOYPn26jufm6AniKrpnn6evs4TsjpvH72VbKN8JCN/D6pM65fA8drLGXXQT3vx7Wh4uTjH2g53ckjScHqA4zIwNz6LH/IICXxkyLD5kGlEZgpgJTMQAA4F5wDg4FO3cc88Njz32WNh+h+3DHXfcES648MLQt1+/8MD99+skVs77cRDOGU9x0BfxdvlWNrC1FYzhK327JBAM+JnfliyEn2VCcujQoeGggw4Kt99+e5hhzJsjIbBr166djqXgAD/ic6b6T/Jlvh9NIKZtcYmuuXNlp7RFSyIoeKZc7BkmrbjMTFgxXMuPmLDBNS43k05Oc8C/3cSUeU7CYef5RUhzECH54XgNaCN+7PGnNO1OHF5Xoh3hYX6xU/wG7LWLA/mzy8NwcUbT/VaHDi8DxW13oDB2seM48PojHi7l2+7UpwQifufM0dER8R6DBQIrQ4YlAmtgGcoIjLlFxsgiYya6wIgRI6JtttkmOvecc6I5c+bILo1nn302Ms0jeu211xKbOA5jTompMLDH3cGzMSsccmGcDu668sSVBv4rVaoUnXbaaYlNAa677rqoZs2a0ZfdvpSZvKVjNAaru9LlSujnbgKlgK7k7uFzcZhZeTAojF0A/+7P7dNuupu5IK24DNxP586dow022CD6488/Zc7Fk8TrdWTaVqF0oKWQvyQ+B+5xyCh6+OGHoy222CIxFcTp91ye9RtD4bFP4vdLaSdlOXjIELUJ06Tl12nMkGFJINOIyhjo7dKj5TLGEW688Ybw999/h8uuuEJDXeneOOAUUIboGLoD1iYUNh88bmAMCotYC0jsidsi0bPiSsLkg2ixi8Pg/HRTgJ2Ds5HYkfnBBx+SuWh89O4Fwtil3r754c4wmfvP3VOXUjF7/owtx2E8PrP3PLg9l2gzN2lNSZy6m70PzQHKhyMmEh8F8Sg9gsQuaBx6gnYLS3m6P5MCRmOireFF/tmVPB4+5YTVdFkRJ34VNjGD9IueKxO7RIdsY80QjQ3069tXGilm/LrmmSHDkkDWusoSYEh2sTM0jGXQwIGhffvnwtZbbx3WqldPwyw5xoM/u6pUqRL2aNEiN4wjZqdoCphbGm5vPW4xKGd0CBLrUecYIEyOZxc0eZG4Wac7ZraJmXgl1JJn7DmeW+bk4kwbzkzi6HMEFf40pGTmqdOmaWiJOZopU6bolFW/A8JxCip30W35nzVzluKcYBdupEEeiI9zc4iL4S3imWbxaP7J3Lni3bh9WCymm2fiBsQ3yeKBJgfxk/6YsWPCxEkTNQ/Ffmz45bhw/MdCJRmaS8JA45TJU0SP0ixXMGQJSHeGdT4mTJigA+aIF3o5mRV7wgDSxp345s2N58CgF3/PPPOMjiTHDT/Ur9dVhgyLG+VuMCTPGf7jgMGIeds/zOj9998P7733XjjppJPCNttsEzPGRIC4f55Wr107rLfeeqFa9eqxnV0wYAfsx03uXuAadMDZlVdeKSa/MUdCJ2H5df/54O7Qdfddd4XNN9887L///jk3BBBzWyxouPXWW3VIH2fVdOrUScdLc/R5j+97hN4//hgarr++aHnyySc198VR1yx0+P777xWWsuAY8vXN32233WYa1oOaP9tyyy3DyD/+CA8//LDMLOh4/fXXQ/0G9UOt1WqFlzp0CBdffHHo0aOHFga8/fbboV27tmH77bcPNWvUEI2uFUoQmxnaBwwYED788MPQoEEDHbfeu3fv8NFHH0mQcew5fjhK+7rrrhPN2227regjzFVXXRWeeOKJsPfee+sgQOoOgfDSiy+G7l99FYYNG6a8/2j5Hvr70HDGGWfEZWZXnz59VGZ9f/tN81Q/WP5HIFyefSbUsfg5mbZz5846/n3MmDGhS5cuoWfPnmHTTTfV3NzNN9+stoOWPMkEZP/+A8Jaa62lBSMg3R5AuvOQIcMiwRpRhjICE0K5u/WkoyuvvCKqXLly1L59+9ghBflJLgdhcldiN2TIkJwdSLu53cCBA6PmzZtH1qeROefOlQqbD7j+/fff0SqrrBK12GOP6N13343eeOON6MUXX4zuuOOO6MQTT4xM8MR+La677rorOv744zV/4bjmmmuiM888U3Mco0eP1tzMGWeeITfmxtq0aRPtYXE7evXqFR144IGRCYvIBIPc2rVrl7hG0eNPPB7tu+++kTF/mR966KFonXXWEW1Dhw5V+iYE5AZ8jimd0/c7d47q1KkTtX+uoPxNgEQ77rhj9ILlzfHBBx9E9erVi77/4fvEJoqee+65yISo6AOm4UXnnntudNZZZ+XmcUxTi44+5ujIhLfMwDSeaLddd4vuuedumceMHRtttNFG0Ztvvim6TcOJvvjii8iEaC49E+zRUUcdFd11dxwGHHvccUrPQa0z78SVrlOfb5pfHWfIUBKyobkyhHR/lN5p1aorq7eqYRWDMYv4iv4JEUNJsi0M3OjZ49bBNIG7774719NFa3E3Yzu54SA0DIZyLrjggtgCN3rJdilsEr4o8AM9uPLMfESF8uWDMWX1wNddd92wrWkJ99xzTzjiiCMUxoSeevvHHXeclpwrHcMpp5yilXUff/JJWGONNUKr1q1NI+grLY25p9VXX11DVYOHDJF/llMfffTR0kw6duwY+vbtq/kyQJzNd2sehpvWwTJsAC0My6E58oz2hAYBfFgOFM0p5r322lvPUGrCLJjQk8aGNgKwE7xADWuY5lKtWjWVD/jKtKBXXukYzjjzzNzKO44m33qrreXuGD1qlLSkjTfeRGb81KpVK3xi5QLdnHr6yCOPSCvaYost5KdSpUphhx13CB+YZsR8oup23jwN09Ee4jpKNFtz87ziz+fDMmT4f5C1ojIGmAPMAjA3hBBifkMwBgIT4Y/5DRcCDEcxMY0bQ0zYDRw0KLz15pth+PDhCkqM6QlrmDX+uOMGg4bpSdAljIv0QPz7b4gWi5PwPEMrTBMGCe077bRT2G233SREXOD88ssvommDRo1kxh5mSdrME/3Yu7fsDz30EOWJ72wcCLjPPv1Uz19++aXiJvw333yjtBkme/bZZ8MLL7ygoSuGGRkSAwxTMWxWs2ZNmRESBWBILvYXUxmDfK/IvIsvm9Zv0FAgQ2uDrIzBrNmzcvXiQOhRsiusGNuRr4oVV7L0a8js8DkoB8N4a629luIHf8+YoaFMhgcB80rffvuthgdf7vCy8mval4Y0Gfb0eqXuEHjky8sAe68vIDN17FeGDIuITBCVIUgIGVi5BUPhY9U1aq+hORIxNmPYuME8EBZRwjvQBhBGDiaomVfYaeedtZgB4NXj59fnkNCS/Fn2xqjiuShjkGaBnQuRoki7cRorK8CKQn7sEsMzkB60I3SAvokxZokf7Nx+rXprhUYmrL744gsJo5YtW4Zdd901fP7555qkRzviY1kAM6++6qqaSzu5Vatw/PHHh/POOy+8bJrSdtttJz/QiWblK/tID12FMkkz56JwuoUkr9APPO8FcRbEQqiIBRzzCvziLyfwkjgoaw+HHwQk+WA+inpnPmuHHXYIp59+euzHLmjaZJNNlE/ye9LJJ4ebb74lPPXUU9KOiMcvwNwU2pvajNlBG3FwqT4QhonfDBkWBZkgKktImIHvZEDv/Z5771EPuPtX3aXtlEvcYCjljKnRM4bRrN+woewZmmFHgK232VoagDN2gfiTi/BoIuXKxU0oXnkV9/w1ZMNKLnN3ZlYcxNC4iM8YWtHePWEVPhVH04020rDSwAEDZFZYu080wcJQ3RambQCG3g4//HAJIhYeNNt6q7D77rtr0cDzzz8fmjdvnmPKCKm/TVPo37+/6IG5Yz9i5AhpVcC1As8P93LmByFMGEf62al2QUO5EA6tjjxsZHkBGmoze08DTJs+TXXhdhtuuGG8ym9KvOou7Rda/c5Q5MxZMwNrkMaaJkw4PnhlkQX0VLWOBZogCylYmOAghp+NrtlW38Tjy7YBw5MINdIkvzMtnC/3dz8ZMvw/KGjNGf7zoGcOW3BmCY448ohwsvV4r7/++tCrV68co2TICIby5ptvak5lHWOMAGYMw2m4fkNpUTAkAMPBnjuxa8gm6Z0zb3PsscdqFwEQM8m4x1wSnEru9KphtAwjzfGhLAuvGJI0uZo0aaLtbJ5++mkNM8nNhNjDDz2kuZcWJmwcaAIsRUbTqlCughg/eX3ppRfDJptuGpeVXQceeGBoZtoj81wuDNGYPvn4Ez2jCThtCAfK18tBF2Z/Ti4gO3Nj5ZrMFgbNgmE/drrwYb6Vq64cqpsmM3r0aJkREH1+6SOhQnqgRYsWYeeddwodXuqQq1+WlX/+xedh2tR4qTpge6Tfh/yuFXcIDdJjdSF+oYeyOPvss7VK8JNPP83RiAbV29qHGUQnw5gMgZL3ciZIK1SsqPj/NgF04403ao6O4TwJ4uTKkGFRkS3fLkOAFThTcMaAFkTvf7XVVtOSZYbgYG70cju+/HLYcccdxbARHn9N/is89/xzYZutt5GGw3Jleu8wQRgcCwlggc5ylI790Tv+4IMPNNzDMnFnzPJjl8IUw6iwQdihoTCBDqPHDFNkSHC9+vVjj8A8KzWLB3pJ86WXXhKdLENmafHtt9+mcE4jdmhA++y7b6hffz1pJvhn0n6XXXeNmaj546PTPffcM/zwww9aOs3QHUukd7R0GN6DqZMG3+D0/e1X+W/YcH1ljLxSdhINCRNHqGLHdzjMdZEunQC2UXrxxRe1sMIXXwAWEBAnc1WEo27IB+VAOOhlUcXee7cMXU3DQ3NBUOIfLZC9An/p0ydssvHGEm5jRo0Ojz/xuIZcEXp0NhCy9daKhytZCLJls2Ym1F6SZsQ+f8wp7bfffrkl2swXMWdGe0FAojVCE/lj2PaDDz8IBx9ySFi9Vq289Zshw4Ii2/R0OQIftA4bOkxaD/MjrPpyjQfA3GE+NAkY3Kuvvqr96O695x5N3FepWiWnBUnYwHyc6yfw5sSAmc/dlMSiPJ6i/nKNMnFnzkk7CpiV+0NojbYeP9/y+FyW0jf/OT98xGt0+EILaTzmqO9+DJrjsbsz0ikmhBA4DEuCXD6LIG2fppW0ueMea4YxEICULxqZD8XFg4qxcCUmNCE0mLVMO2XxxF+TJmlIjWFG4nUqJk+ZEmYajcSF0ERbQ4DgjxWFaKi33HJLqFy5svyTZ/akYwXkGyaU+LjZgZChrlnk4GWLFgTtlC+aE99i8TFxOs+vW3y0icYm2OZa3SDUvW1kyLCwyFrOcgINsZQrr6XW+5qGwMo0Z4gARs9E9QEHHKChKnrWzB/B6GCKMbOMmZCYt5lhpFrunUALFGBUXEm8Hn9xwI244iXC8QIL6HQ34mARA88uODw+huOgH6aKEFI8Zoc7VLo/Vgdq006Z4vkYj0sLN+yOG/6581FvWghxpfMYmxMaEncHtBIfZSM/iTsX5QlDd8EPrXGJxkOL+EcgsJSb8DB+6EAQqTwJo9+gYTyEECmzWpBhNIQQ6aDFIiAQQpjjejetePfd5ceH+gBpksaqNWItyMtNf5ZnNLn1TBtzIeQ5pT2wgwUaMihv5ZkJoQz/D7KhueUEEhzGlAohYXBa+baiscSEgXLRG27atKmGZNasA7OqobkC4MwbEMbjAc7MfHl4WisoCsLSk4bF+XY5vviAeBQ3wN5ueePDPfHDs8IT1uLi7kNl0AUQLDzG6SfxJf51TyGON7ajXDQPh5/k8nSUZ57xB52JwMGPpyu/htg93rbH8xO7xOVKPWGPf4QlNObcLS4J0FR+gOi0C22K77+YC2JoE5oYXkOrZScItnNSB8TC4IbGmNY0ySNmtgXyNMmDbnpcQd8pMYzarFmzHJ0ZMvw/yIbmlgPA+JzxwFTSjBEWIgab2LtdPsRMPB52Iy4hCUc6MEjY6T//JENT5pZLuxgobbs7Tc6YMaElpZkkcFqBM2y3S/shPcWZ2POsy54JDv3uT8yedCw+QJz4w8xdGhVxGTxth+Lj7nFjmaSp8kj8486z/Lh7YmeO9myaCzSk4smF5TL7gjwpiMxe5vhkCA4hwzAg8118p4Q784MIDbRh3L0OiZiwXjeejtOEWR/rErvStvK2cmPbnwoVKua+pZpnfokjjiVDhoVHJoiWI8RMLGYyDpgODBGmq56yPWPnzULmhNGlm4qERLnyssPWmaTiSxiw+3fhUhRyTcI4PIzbYYI2zB5nITcz5xhyYm8POMRuLkTkZnc9Wjz4S8WlMkgJA4/D/ToN/0Lajjjs5jZompQp9gAaoUdxut9UOkAaioWBreMnnSY0yq/nyZATIom5WBpT8Djdvxli+jycPccCGrekI4E5XY52Jw4JUvMGzRXK//sbsAwZFhSZIFqO4YwFZuLNQExKT/ac3NP+0sBf2g5/aUZY1JwPnp4FSB4MhEvRBIrSmC/mdLppfzHjNJuEwXo8wP0UjVdx8ZDEB5wBp+nyZ+ACR3GZWzosKJoGSOetKGKXf4fJh+KEcjre4tJ3OO2guHxhLo7GDBn+H2SCKEOGDBkyLFUUP2aSIUOGDBkylBIyQZQhQ4YMGZYqMkGUIUOGDBmWKjJBlCFDhgwZlioyQZRhmYCvmSmra2eyNUEZMuRHJojKEPhQ0QHbY7mtnktggmkXwhNmaTBN0iwpbb5bKgmlT/HCIRNEiwdZKZZNZMu3yxAQJNoxIPneg6qNdzow2DM7Uffs1SsMGzpU+8rtuddeof5662nnZb4dqbcWm2HG2+6UBtTwoDFJL70zAHumDRo4UNsKcVIrO3tP+uuvMHbMmNCwYcPw408/hQnjx+tkWHaUXpZBffi3OX/++ad2PGALHo6lYK+4DAuHsWPHhKFDh+kYkI2aNg1r1K6duGT4ryLTiMoQCgkhM+vjQ7vPnjUrPPjgg6FNmzZ65oA4dt7mwLhOnTrpHCEOz9O2PQYEWGn0T6At/XEkzPq1114LJ5xwgoTjbs2bh6232SZ8+umnOvKhXdu2ckdgff3VVzqXiB3CwbLcmyKP2hXBwPlIHCtxzjnnKI8ZFh4TJkwMHTt2DKeddlr42TokGcoA0IgylA38M2+e7nPnztUFpk2fHp144onRAQccEA0ZMiQyQSV7MG3atOjGG2+MjFFGr772WmJr8ZiftL/SAOldffXV0bbbbhv16tUrmpvkBcyaNStq3759ZFpEdP3118tu6tSp0c477xxdc801Mi/L8LqgRE2IRt/37BnVrVtX+cywcJhn7YS2MXbcWJXhG2+8kbhk+C8j04jKEkyjoN/N8Ba7P1v9hscfeyx8/vnnOjqaw86sey6vuHEswOlnnKENMdltW/bJVVpwTaFLl87h4YcfDpdecomOqEA7wg06OTTueNOSOL6CIwgAdmzmmaZ7WYU0VMsH2ir5qrHqqqI/rQ1mWDAwbMwmtNWrVdcxFQxxZvjvIxNEZRAwPVgzh6zdfPPNwTSHsNlmm8ke1ufMH3CuDSdzzpo5M7bAj73spcUkSYexfo4y5yTS/fffP7bXbwFgPkcffbToAzB15TOhc0GpjcumMLArav//+CsKhA/+cnNvSTwLEjaNhfW/NLAgNBbNe9HnonGk7XIuXu/JvXCIBUPRdDIsPWSLFcoQqMq0AHnrrbfCYYcdFm699dZwxRVXyC4thPCJ/++//149y8033zx2MBSNS6EIi10RN86mefnll3Ug27bbbhu/4OZe4KNk9OrdO+y1554SQu3bt8/Nc3F58+R56NChOn6bo8tnzpoVjj7qKJ2ZhID67rvvdNooRx0cceQRoXy5+Owk5pO++vqrMH7ceB3VjdBrc1absFa9teTevXt3HVXOgXEXXnih0uaI7YEDBoSW++yjY8kBc2gcZz5nzpxwx513huHDhmnxx88//xyOMjok6M0fecYPc1m402tXmm3a6HA8MHjIkNB8t91UP1tuuaXsisLLALqYI+P01p49e4bVV19d80toVMDT7PPrr+G1V1/V4gc/hI9yQghCD3OBlB32HMC3/Q7bh4brN1QcEzhuvWNHlRWHIXJY3smtTtZO5Jihk/SIZ+zYsaG8tZXzzztPZxa98frrOa0Uv8OHD9eR9MA1QAe0fvjBB+GFF14I1VetHi684MLw3nvvhfHjx0szZ/6ybdu2opM4ttpqKx2D/sAD92teCK3e2yjlwSKVhx56SIc5AtohR7pPmjRJNJHP008/XYcEoklzZDo0eT5HjRqljlrcwuJyXNi2m2ExwQo+QxkCcxAO5n/sJdT8ShrMVeiemgfyJ8IXsrdn5miwYXze3fh1X717946aNGkStWlzpszub+68udE/8/4pRFNxMEEgOpkjAoRVHMkz8Dg8zb9nzoxMyEZ77rmn0p9p5p9/+UVzTF0+6JL4iiJjTNExxxwTjRs/LjKmHj355JPR7rvvHpm2KPdZs2dHxgwjY/DRXXfdFZkQUn7feeedaOuttoqGjxguf8aEVY6mQUbt2rUz+xHy9/DDD0fbbLON0gfQednll0etWrWSHdcDDzwQHXHEEaIZDBgwIFpnnXVEd0kg75TJlVdeqbSM0UZnnXVW1Lp160JzaF9++WW0yy67RJ9/8ZnS69+/f2QCNOrSJS4HE7DRqaeeGhmDVhkYY48OP+LwaOq0abqOPPLI6J577lEa+DHmHd10802a27rzzjtz7Qf3jz/+WHkDTz31VHTvvffq2Rh91N/yRX2AdJ1Tl1wAfyZsovXWW09hTdBEJnCit995W2GIv2rVqpEJDfmHhtdffz1addVVo86dO8sOkE/KkHoC1A95vOTSS+Vmwl9ld8YZZ8jt6aefztFqnZiob7++UcuWLWX2NjW/dpphySEbmitjYLk2Xw9Z3ebmU9LAPt3bwwzcjl48w2T0TI05BXuBw19//SV3+UFLSZ6NUyo8y5Dvu+++cPHFl+BDQ1CR/elsH/OY7hUXB2O4isf96dniEDy9xJzY6k7+KleqrJ5xRev91q1bR/Nev/b5NZcvND2tTjMjS9bRulhCzcFxgGOwdzPtxJis4ttwww3V+2eJ+Bjr/ffvP0D+0GxYQs6x5BzfvfZaa8kfqw+Jj148YNn5i9bjR2uhR8513HHHhT59+oSvv/5afhxOY3Ew5qg7+R44cKDSgv5jjz1Wc35oZGCO9e6vueYaK4PGYbddmys94kUz4lRd6HnjjTe0EtGYueIh6np16+m471dNU0IDPOnkk+WGH7To9997Xyv8fv21j5VBf2kPlCWnvB566KFK+1fTwn755ZcwxDQ83DawMkMDAdDg+VNdJs/428y0mpl/z5Q223TjpuEN01R226256p+65Lh0Ewryz3znFqY11qlTR+0kH0yAhQ8//DCceeaZKgO0oBNPOkllPsDo/+2336QRc1rtSpbPxlZeJqQUVu3P7t7GMpQ+MkFUhsDLpJffXixeKoaLGKIYP2F87J4wA+AvHhdDIwxngMmTJ+vl5WIorH6D+mG1WqvJDb/EwevqjBIzQzV77bWXhsUwO8PwNOaHxo0bh1VWWUVDa0Dp8KC4jCElaU2bNq2wH7NfZ911JBwAwgJBxFCYA8Hz7rvvasjINC8NzzDcNWHCBLkTB7FXrlJZwsdB/DC0tDDHLwIrPYRZpWoVpev+3nv/fZUhTPrtt9/W9UGXLhpS8zRhuMRVErzcTBsKDz38UPjiiy/Cs88+G7p27arynTp1qtz/tI7DDz98bzRtJjOxwswZGjSNTneYMmUMSPvMNmeGW269RcKKITuYPvVt2kUwLUrDYQg98nr00ceEJ558Ihx44IHhhBNP1JJ/03oU1/EnHB8++ugjuZlWFe6//361A0A65CEtPFy4zLM2WaFiBdFEZ2UtE+qrmHAH+E+HEagju3TIYDHAjTpm6LB3r14qc8wIbATrOGvfJ550Yvjggw9Eq2mnWhjD0CW1T1HTqdJDhqWCTBCVIfAa8ZI7E9t2u+308vb5pY/Msoc52IuLD2eFzHP8Yj12QI/1lFNOCU899VS45957Q4vdW4hZABhErO3EccUvscWUMFWPr4ABmY25udAqDsSxYZMNw+q1VtdcFXD6odW/jYJgeuhffvmlnGA+2JevEM8FEQK/2BPe40BwXXLJJWK49OZ32WUXCS5ndvibM2e25pQqVa4kO6Dw9l+u3L9fEU8T+GyCxzfThByCafcWu4ett95a167Nm4cOHV7Sqj9A3DBqrpKAv1+tJ9/q5FbSSvj+ixWFnjcw3YTzP/9EEpqOeUYLeST+MZZ/6hTB4uCY75WrxoyfuRIWrGy37baak9nc4j/mmGM051e/QYOw9957hw8/+FD3kSNGhPPPP18aGNhyiy0lGE80AYXwvfHGG8Ppp50uAUaxcAS7ESt6qGfPL3VEh2GF5Ls12oi3kFwb0hGxMSLLH+VLuHwgfQQu9bvNNtuErazcKe+XO3YM21jeNtl4E2lN5A2/1157rTQiyo52kzuFOI4uQykjE0RlDDAdZ1QMH7EcGubdt18/2eHirzgvtjQm6zHScwS88GhCTM4zEd39q+6yE6O1eP1FpXerD2DNDgaDWS+yxYnggbGLSZt7mnH+GyuEVauvGi657FIJGoZXYluDMx7isD+Gv2rVqiUrXKApfUQ1dtDiDAst5eqrr5YwgvFssMEGYc06dSQoYMxoKKTJ8B5xzZtbsI0QNIsBzosFjKOo8CAtLrdHCyV+wrIwgKueXXXq1C3QrojbwqhM84D8s4jgVOsUIMwY8mIXiVqrrZYLh5ZHvSGEcpqiXXQ+SAutqZkJl6lTpobRY2J3gB/cmNwnbhhztWrVRGudNdeMNZRqq5jmODM8+eSTYctmzcItt9wiDYMPSbXrhdUFGibledlll0nbYOHH0GFDw3fmrhqz9kHHhRWPOaFjoKy40s3Ch2K5yz3lf+asmbkFEQ5vU9y5+ASBNkj7Zxivrl20/9qmidI5Q5tce+21w1VXXaU2Rl4YUvwmGS4lNu+gZSh9FH6rMvyn4UJAzNHMvKAXXnyh5nBuNUbiQ0O5l9gueokwrk032UR2NWrWFMNmyXfLli01hNHFmIwYh3zE4TRMAhOwZ1ZS3XTTTRq2ESOxKxEhEiYerjjght+TTz45HHzwweHuu+/WnIjciD+JT1sTDRsWmpt2ARjnhyEzHOOAIWN2oTBx0qTQ1zQKmBQ9cECvni2EAFvt+PyGBKml42C+hJ59xZXi1WmAPMMQ41zHYAuitCBiKTzlze4JDtzff/99rcQDhCY9lWEReN2B/tZ5YP6JlXvQhls/04ygAZoRCDyffc7ZGlJDoAjm7+tvvgnf//BDOOSQQ8LKq6wcOr/fOXYzIIAQHMyBIeDIZ+fOBe4IqXffeTdMmjRR8b737ruyhwaGJevVq2cdjXLhq6++Cs+1b59zI98Mz+IGotTehyqxpHwpq7//nqF5PaC86SmonhCKPvRInukYMXTMs8PLw+1Yuch3ZR06dJAZ0BYYoqMMu3XrlnMjLPN9CHbqGdDxutqE1ABre+l0MpQOyt3AmsgMZQK8YH7XmLehcuUqGtJhkvbRRx/V/AkMYIAxReZLmJvBHQ0BIUbvkUlkhjm4mPjv+sUX4eBDD5VAAPwSP3fSYiKbniZMhP3r5Cfxaw8ptl0Yzkjwix9fNMAyaRZNEN8IExws8YXJMt/DQgE0OJbtQj/PMDZ6u3fcdpsEK2FnzpwpYcoyb4QAQgpBxjwTDAvGCyOCoRMXTB2tgni4U1b0mqdOm6phQ9K/9957Q8+evcSgiWOi3RHwTPajWaGtwYwZFvrIet2/9PlFggKNdCUr3x132klDWQ888IAWS/xlzHWDRo1C7dq1reytvqwcYIFeXszhEO/nn3+mfLMwgKXZ1CG0oc3AUFkyP9Ly/PZbb6ksWeYN42aPPrSDphtvLDfKhaE4BAhaD8vtWarNh86UJQybfDIf1ahxY+Wl48svq04Q+pTf2++8o/3d9mjRQnNK7PcHzXRG6IigoTEHQ524cBaS9tDdBMJDDz0Yvu/xg2hB4JAHXEmDNocAQXDUqFFDnRI6UMxhkS+GEWkzd955p8py3LhxEowsGtnUtFHqFc2ZeUDyQZ3QEaENUG9zTeuF1k6dXgmrr147t/ACbe7iiy8OjTfcUEN7GUoX2XdEZQxpRqaKTRg94/TMM/xhjA3mBgNC82GFEhPHiAIYzgUXXGCMdKtwSutT9MIzpDVi+PDw3PPPi1E4c3EBArCHeVc1ZlnNBFuOBhir+XMBVhzU/HBPxYemAtNEW4EZsZINAYFgwj/DTgi/2bNnKa0qJmxhUAxV4Y5d+fLlQoP6DcTUiIuVf1WrVAl16taVIEbbqGfMmIUWo8wd7YR8wLjI41hjcNLsLD6YPwLrT0uTYTdorWZCokKF8mHM6DFWfhW1Ag3hVNMuwqF1Uc7QWttoW9Mu/MG4cfOdLxg6QuCIahVcQVnxhNAZNnyYhg0RRgiQqSZMR4360wRpfeUJIHCpp0l/TQqrr1Yr1DA6VrV4HXzcTJnRgaAMyCd5QVByx406JO+0DRZXQB8dAdIl78x/EW4tq4sKFoZyRXAgDBB8NWrWCOutu16uUwP9lCn1qtWcpgUifMaPH0cRCsRNemqj5k763BF6aG7VqlfT6r/ffv0t/G1m2gIaE0KTOqNdU+4MWQJogWbio00g5PHHkGG1VarJnbZAndL2oZV80va7m4CeZHWDIM1QusgEURkDlcnlfVENOdnL7cKA6naBkhYkPMOUmNSnV8vEPsznRlOYWfp7IB8Nmh8f+hOTtrCKw8weFxPUElbmiB3+8wki0UpYuyMwYPak4b6hC0N6viC2i4fr5geYFL5ETwKltwBh00BbSdMwP+RLw8u9KLyMPFy6XPihRHJx2p38O9yvlwfl74tLcAMFvgtAGEdxtOJaXLgFAeXOvJC3Ky7sAPZFQf7Jl3aK557QA438LUjZzy+v6Tym68EFJu6/mWbbzy7XkjKUHjJBVAahF9uQZtZeyfPmWA/YevLO0P0ldPcpkydr/oCeKkMi9BwZEvNm4i+1zBbYxUb6RZ87b66YR3FMtxAsDmglZjFi+yO+gvi5I0wK5yOdFk/KC8+WnszQKJsCv6Lb/iIzppfq8pymE6HDxLrCJTTI3vylmagzM+J1ZulhRbuHtbv8WZh4uNToMDOrtTw+ygvh4QwZbYlUFY8hlweeuXvcBrQMevzKn/tLnuPQhsQ/S+H1bZeZIzOTei4fsc8CEEa3mF7M6XLlAS+eB8VpVzou/CKAXMh6OeOueO0OnZQFtqyUi8vZaDSbHL34S8J4PK495dIkvlSeMduP8s0dP96hSN9ZVEL5TZs+Lbz15lth5112CeuappShdJEJojIEGIULn3Sl6iXlgRfVXnS9/OajnDNN/NifGLBMbLU/QfNH+gDSzDAF9UzNf8zEeOnjl1+CwO6EFTPAT3JhdgZUHJR+EjbHIIjP4OEwEw8XIAx5hQlCG7aF44nLAWYFPB6nDX+xUIgBo/VyiS1if7FwjJEEEzw9j8+fPVxMQyLQFCL2Dx1pxox/3BUP98SfmxEyMGfKBPt0GL+7fS4O7jD2JGEXtLI3fwg9VhryLKav5ekF6YN55qYSIw1zsBTkN1ePSiMuPwkpYGFy9nZ3eBkqPPZc+E1A3BipSxfIShc3c8Anz942yEdctmjwCKrYzuN1jRC7WDuPBS9pK5zyGsdKED0aGDJkPool7BlKH5kgKmNQr9XeMN4xh1ew3rvEnZdRL6WZ9VryLidmvdgJvBeciyOJW2GKubsQKNSskjBFobTxb8xEvhOz0ufCbNaExc6Zocftdw+PP78D/IMcs0wAg1/RGHCh/NultBO/6TiUZ7vi1GLg1/OJvTNcp8Ec+DWLJKaUP2fKCHT37+mBdBkWyre55eJPgLmou4N4gKepcjXk8pLQxD1dRh5nIf+J31x6pkWkIXvzQ1oO/MfCNBbIuXhID7PZO+0IDUoDO893QUyQaLEl4UlCRnezS+XFszmk8+t5wC3nP4nfnx1ul6H0kQmiDBkyZMiwVFG4q5ghQ4YMGTKUMjJBlCFDhgwZlioyQZQhQ4YMGZYqMkGUIUOGDBmWKjJBlCFDhgwZlioyQVTGwLJVhy+I1LLW9JVaKMmzX46i5iUNTykfbXrW79KHaLQ/dqGQ2eijzNO0AjcvKbpFRxJ/7o4D92LSLUpPUfclBdFl6Tq8febKzJ7djz8vy/By9Ge+TXI47Z4fPSf+027LOtK0O9LPSwKZICpj8O9JuHLfSvDS26VD5pJXwV8Q8yQzd7bZ8XCl8U0F6cffjyRUJfTEFCZI6BC9+lsGYERoN4PESFnxrLvolG38nGJUiwP+bRClwge7fLyq+sINc1KGafARLfalUadFoRTtxwWP06B78kwZUWqYuLxcl0VAN3nR1ln2zB9mCdhU3QBMBflMOiz4M8j/MgpohnbRa3lSm1MelhwyQVSGICaUQE0/aUQIJz4U1Bfn/PECJZf88mx3Nr9css2tMEiXL9/1nJh1l43BHvzZP/Bc2oCReNk5bc5wci+vmEz88mo3isUIT5N04q19/gnDks1eqWfS5Bl/zuzYfUAdFLP3NlFa8DTVBpNyAyo93KCRorI/lR+0lSJ9iwLyQtlTvly8Wyp7g+rf6JegMjPPqot58Ye7XP5OLsuAZvJIe/I6W5K1kn3QWsagyqRKaUD26BtQAo5M6NW7dxg69PewctWqYdddd9MW+qNGj5ZfdirmpXJG4A1wSYKXku2EZs+ape2EGPLyrXkgyvcC4+IAvZUqFZxEurTATtXsrM1ZRI022ED78qUB/c5wKME0A/5/IcZmcXm9sqP6iy++GG6++Wa5awuhpA7xy3Ef7PZde43aoeH6DQuYSRJPaYA0SYndvdkZm81tOZadcoNxO1MWUzeaoHtZZNTQlaONZ7e3S3Sn8lIcCOv3ZTF/ANoGDxkcJoyfEKqvumpYv0ED7bS+pIVndh5RGUOO8dnd992icT399NM6T4dTK5s0aSLt57PPPtOW+C8ZI7NAoelGGy12xjk/IHg4N4ajqTlcD5o4S4YjIPr+1jd899134ZlnntEBfQ03aKiD15Y2OBfnscceC6907KiznDiGYJKV4y0mDDjrhvN1KM8lUZbO/JwpcIIqRyNwhpTvwebpcbQBB8NdeeWVYe6cublDBYWEvtICafXq1UtnP7HDe4sWLbShLkLyjjvukJDifCTyh/ZbWu1vYVCIpuTZ6U3f0VI5D4tDHn/99dew5ZZbxuWdhFlWhZDj448+1nlPv/bpE/baa69CBxguMRiTylBGYIwovv+T3O2yFyJq06ZNtOeee0b2UkRz5syRG5g0aVJ0zTXXRKZtRK+++qrsrDdfyM+ShgmiaPr06dGw4cP1Dh9xxBHR1KlTo6nTpukOjcNHDo9OPfXU6I4770xCLV0Yg4/efe/dqH79+lGfPn1kZ4IzMkYanX322dHs2bNlN3fe3FxdLE7Ms4t4Seeggw+KJk+ZonqTW5IeZi7cDjjggKjNWW1i+1TbKC1AKxfl9sabb0TWmYh+++03uQ0aNDBqstFG0QUXXFCq7e7/BeXo+eLdmWJt1Tp+0Ryrc2AdkmjbbbeJjjvuOLVjB+EUNjEvi5gxY0Z07XXXRrvuums0xdpPaWDZFs0ZFgrWwJOneMiL/stzzz0X3njjjXCT9dY5cdO6bbEHA+cOnXHGGeqJMpwE7MWKD39LwdpJ4bt+C+D2jqLmfMAXvawqVaqENRgWtGeOtWbIhqFD7tC4dr21wzXXXhumT5sWB0whX1r5KMB/waDKgsPToVwZQlx9tdV1KJz3EjnltMsHXcL1N9ygoSfK0XeBBgtaJvOD4rGLeDu//37YZqutVVb0sklBG36aO2aGWTlMkCFXDtYDUIO7cVCZF4SutI+ivv9lLhJf2qxyq2XllhxGBxqs3zB8+OGHVr/X5NpdOoZCzwtA66LA4/XYi96B+6Hs/N1yuy++6KpDA5kPZHtXbFdbffXwzjvvhnvuuUftGDv8K5yVfdwqCqNQeqmrOBRn73a5/Ni9qJ0jbSrqxmGBNWuuFs9BJnaKK+Uvbf7XPbkWBpkgKkPQFvoJqFhO5bzuuuvCLrvsErZq1kz2+BEjkinoKOmDDjpIQwlAjS9pUDBTkG50Dm9s/7JPhXU/+bBC4pdfF4TpABMmTgj9+vXT82o1a+p00KJwRu8guNIuhmYQ+4/nITx/ReFxOHj2dGD0wPq0/0pjrXprGaP9N435sCBl5CA9pwlGRrpfdO0adt5115wQMku5O438arjI7KlXwDN2PjyULj/PT7pDAwp8xH5oP460W1EQD/H7BbiLkbvZLoaLVzPGB4g5X5yEUfoWL8POojdxywf85IO7pGkBnkY6fvejsrMLM2X4408/hW+//VpH0cudcrVwlC4dAE6fVTx2EYbL68JR0PYLaCU1v9JQG8Bf4tdp5O52ufyQnp4MRSNK/AL3Dwps47x4WyoKz0su7cRO9+RaGGSLFcoQvFGoIVijoKfJoXbMvTBPQCOmcTlDA5i//vprHWO99VZbxUzC7L1RKb7kmfNiypcrn2t45qDbLBNib7/9tuaeNt1005w7vwqbiqMoPH7mhei9n3zyyZoTAr/0+SV89umn4fzzL9DScuaz0J6ef/758PU3X4dttt4mHH300VqAMXDAAB37TfiVLC+AeKeZFoV/5kuYk0DDYl6Hs5YAczuvv/aayoSjqTmS/IADDwwVE62GPPIyjhg5Mrzx+uvSghCI3C+++OLw6quvan7miSeeCN98803Yeuutw6mnnapFFszPdOnSRUdWX3755eGHH37QEdgsGjn1tNNCzRo1cnUyefJkzZ1MnTpV5s0331zHWnfr1i2cc845OtYdeNkyh/b444+Hiy66SJ0JlbVcguq9T58+opP8vPTSS6HiShXDo488mvPHnMzrlh+0FNLhHB7mAxwcUf7ss8+K4VevVl1Hh++2226qI0C5dXrlFTHVmbNmStM55JBDFN88E5poBpQ/+aVtwKgpB/xfccUV4VUr842svTz66KOaB9x2u23DqaeeJtqgizywkIb8ff/992HkH3+EiUm5VV+1upVbfB4VbeI1i4ujytFEt9hiCx1h/u1334azzzo7NG7cWPQWB9rEDz17hjFWFr/9+mtYyTSBM888U20j3e67msD/8ssvw5pWzpUsH9ttt11Yv2FDzREyvzVo0MBwwQUXqp233HffsPNOO4UOHTqETz75RHk87fTT4+Pgk7p75513RCOaB+3zsMMPC/Xq1lOZv/DCC3ofmVc67rjjQg/L+7ChQxWOtk27IxbaZLrOPW7KgjbHXOqBBx5gZfeDjlU/5ZRTwkcffaS8cPw+88W0vYceejB8b+1y46Ybh/MvuED5I64HH3oovGt0vvraq1okBHgHn23fXh0h2us61rYOP+IIabIsiqGeqGf89eWk28MOC5tvtpnCzheWaIYyhDlz4zFqcOONN0bW2CNj7IlNMl7PPTYKskuuNBjbZp4BMB/Bs8KaP8a5HT/++GNkL7zmosDsObHf+UHxJP5MEEXGxKI99tgj+vTTTzXufvDBB2tuKA3mEUaOHCl/O+64Y9T9q68iY6TR6FGjo5YtW0b3339/4jOKxo0fFx111FHR3XffHRnDiiZMmBCddtppkTEPuf8+dGh0zDHHRCYwoimTp8iPvaCRMaNo5qxZ8gPs5Y2MSUfGMCN7AaMxY8dE9mJHJng17waGDx8eHXrooZEJfuWFvE2cOFH+1ltvvahz587RiJEjFP7EE0+Mzj33XIUDlPPxxx8vuqCB/JtAi7619IxhR8bMFd/cpPzBM88+G7Vr107Pc+bGcyvU0aWXXqq4SYfxfeJiLuucc8+RH/D7779H++67r8X9qvyY1ql5JMoBmKCMDj7kkOjetm2jyX9NltmYoMoRDLVyO9bK7b333lN40mrbrm101llniQan0Rhx1HLvvaMePXrE5TZmTNS6dWvNpZEmGGp5O8TqmbqePmMGjULzgvhbd911Rf+fo0YpPGXEXBIgDea/mIOBLsKQnjHwqFevXtErr7yidpIPlGenVztZ/bRWPdE2br75ZrWXadOnyw9t8+mnn4722WefaOCggcqrCZGoefPm1gbGynz//fdF66yzTmSdpmjU6NGRCRaFpY2cfsbp0c4772ztcLzsKJsbbrxB87ITLE3y9O2336rN/JLMNY62MmI+d5tttomsE6KyZ74JGmibwMuXPBS8hTHIy7XXXqs2Zx2QqHv37pF1lKL3339f9B551JFqD4CwI0aM0Dwj80GUp+wt3nvuuUfvGHNfgHmjU+xdvOnmmxSP2rbV0Z133mn5HhVdddVVUe/eveVvqrlb5yl68803FXZBkA3NlTHQS6RvZHWrHpbsUkMBDPGoF2XucR8q1hy4CAPGT5gQPv3sM/XGWelEj4reJj11a6XyYxEk9xA2tF7f7bffHs45+2zFUb58hdwBZ/YyJ77+DdJUnClaMNuLoGd64d4Dd3d6X3Xr1lXPl96wMQH1/FevvXqwl09ah4enVzpo0KBgzEU9Ugdx0Gt75OGH1YPfe++9wyrVVpEfE3zqkb72aif5ZWm5MffQwrQoYw6hWrVqofbqtYMJMPVmvczQPDaz3p+nbZlTz3NH6x0bAxKNDN0RHn9oAcbw5BUa6a3uZH6hYTPTKumtQ8fh1qskj0BDQnZHcxs5YkTYxPyBcqalgtdMk6AHa4xO6dCz33GnHaVdeT2wSvGRRx7R80EHHiQ/aA077LCDVlbOMlpfsnIjfsqtWvVquXriTvgHH3xQ2qfKzcKTVquTW6m3jYZohaLVcGjhe+y5p7RElVvt2oqTcnNwLPemSbmRBuWG1go9DBczv1JnzTWVDto25Ua7phwGDhwgjXmnXXZRGOY6qVfa7ZFHHimNqiT8Nekva9ujpI2jLR9y6CHW3nuGXqYlgcGDB0vjgWaWvkMLtFOW5e2dwly79hp6N9Bo1jSNr3KVynrH0BBpL/j14S1Wh77W6dVgHRFpw4THT6NGjcJ1114r2mtbm7cOljSOukY/KzJpOyx3N6Gl9uZakL+ztEDd7aLNmQCRhkhY4kLLYng+Tm9baWKC+aeMdth+B5W9yj8BPENaVxIvWhz0n2ZaK3VBOsefcILi7t+vf+jZ84dgnTGVxcrmfpSVPzQvKDJBVIZAg/TGyb1Zs2Z6hpk6is4RAZiG9XLUEBk2evTRRzRcwUvy9ltvBetdyh9x4YfQznCxYxiLYZmNmjZVurwouOvZLl7MfEjTAZODofMiHX744eGyyy7TSwqIc6K9XAOMaXu8MLd6JpTkbmZeEJg0acPI33/vfS1t1tCV0Qmzueuuu4JpDBJib1neYMK8PLhDJ3Hg/3l7wcBXX30lhrR7ixYye74RYHpZUy+vP8N8nFkguKHNlyYDhA155dspQDwMaXg58UtcPnmPXwCNgGE5htO223ZbmUkLtzffeENCGobv4Lhy1RnHhxtguqadyQ6GzTDOBx98oPLAjXjfefttLWxhAQmg3Nq2bRtM41FbYfinqeXH6QPkaa211tIwKPnt+mXXYJqXhkGBlxsCzMsmB/OfLjNAnmGYm2y6Sa5cYH74Q1gChonJBztKANJYccUV1Blzcz5AI0NfDG8yl0ob/+TjT8IcS5c2BH7+5Rd1wjZqupHMgHb57nvvSUA74rYTl68+YPaKTu6khR/Ku1LlyipPtwfNttpKHT46JAC6aYfrrbtuHLeZaeuUCcIKKGpz885JnAaWcXtSx8fqA9Bpq2pCCHjZAE+f9i9YBN7GgMqTeO2Z92CepW8aljpNtBnTjOUP2hiqPP300yW0r73uWqVHm19QFFCV4T8Pf5G9gdETpfEyXwBoULwwarjJBX7++eecH1OnjfEOUY+yhr0wrU45RWO9gsXrL1xxc0XehGnA2ODOFb8qxUMuhDd/hGNOwkFvjTFoQDw///RT+HPkSJkBwsCZP3TpxTEzF8yKcXh6gWKYCQn0nAk3Z/YcMRkYQw5JBvho9o+Rf+iZj1fRaOhdAi9bLwfPM+AZJsDlwD9mxvYdKhOz97joOdJjpddJfXU3hoUwOfigg+Suj4wNnlcYJAIbbdHTh0GpF5xM+sOwKQ/KlfTTdE+cNFFaFvNOCOJGdrVu3Vrfaq20UkXlOVduBuhF0JAHtJRxY8fmetXp/CNMmXsCo03ToNwob+Dp65fnxAwQ1mmhBvBPfitXqpxrPxJW2CdhGxr9CDoEJ/lHg6xnWueBBx8sd/xCez7Q6brxxhvDeyZY0FI32KCh6PBu2ngTyuRzpYoFH1HDtKuZkKD9A5Wx7nG7hQ63U1s0GqAD2hF4zHEWRVWzoxOAO4BmBLbXN+GJE3tvd9TrPLswxfYsfIndoIG68LRw95EM6CiKgjzEnSagck7aDYIeDY0OGm2FziHf9NFmX+74sgTObbfepm+PKK8XX3gxHHroodKQFxSZICpDyDVKVhTZM0NV559/vnoxg60X7a8+fqyF6ZnGx0eYMBlWOaF+0xPu0aNHeMF6t38aM4fpKYxdNEz+MPNMOh4vdxq6XkC75Nd6qNxLAq7e6/UtcXjhoImhCgCDZtitQeqDVtHk94Qe8sPFggVeEL7kj4dyYpq5eKkQNiyuGD9+nOKIaY3TnjhhojQpQE+Pl9qZhOeFr809fYfnPw0vhxixf8zYe3jo23XXXcNee+6lYTOYEj10lbt8FKSDpvf5Z59ppaMDVxgo2pDTuWK5OC9eF1wAIdxkwyYSKMTfoEGD0KB+fTEXwlepVEXaEDtHuGbg9FNu1MkG5hcmDeK6i+lDm9qwSVxuCAmYdtFyc4FTUCLxH+7eBkC6fBz48ToE06ZODbvutps+1H3Yyo02wofRrMIDxOfpFgVC8vQzTlc5XHLJJapvJvi1FY+1QUYRENaTp0zWAhLgcVE/XDFiuwrlK0gAdDYNE0EOxOATmukMUNaU0dwibQThTadiXdOAckjySFjS9bTTufE6jf3Ez2m4O2H9mbs/O8gffop2oIiX9uy0U/+UCXyFoUrsmm7UNPTr318LFU466SR9LvKLdZT2228/tWHKpCgK12qMf1Of4T8LGqkavS/jtsZ0xZVXaIz9LuutMPxCD42G6A2aJcAIINR3Vr/99ttvYkK8mGhFjAE/b40r/TKQBi8Td+LjpeV7CdR1b+S4waCK64EVhyqV495b7oVJ0nJ8+umnWknFSh3i9gv4i+YvDcwO4XGEaVNsgcMKHvdHGaD1+Qq9bl92C2PGJszSrp9M64IxtGnTRnbMVbCijBVtaaBFwmgYlnQQPzTQK/SXDbNreQhDAI2Eda3ibyv3nr16ajjlYOvN77zzzgV5s4v61NCa/Q/5fUiYbS83gkN+7MIP+WeoCSbIknfSwm7qtGmh/4ABuXrgGx6GUHr+0FNf/Tuow44dO4Zy5cuFY489Vm6shHIwJOfl1qpVKw0z+ZAvdfXjjz/K3ObMuNy23XZbtSmGP9Og3BAYXs/QSf5gWF4egLyJkRu83XHncn9a9WadE1bjoT1SV15uQOWWPBcFAqh7t+6qW9dWx44dp/aBsHYtiZWZaKoO4mcVIPMh0LLaajVz+fG5K4bV3C8Xq/Hw27JlS5l79+old+yoF9KCcfMtGsDO8+7l5KBdA+UriZ8OFOkSH4B+aEoLFvwB2hh5T5cLgoP0ckN0BuIiTBWrb54PPPBACd9vv/km8RHHieD5ffBg7TRCh5Z3jzbCfCcaGXmhXJ5+5pnw4ksv5gST0+PItvgpQ/DKRbB4A65apap6jTAA9iSjIdBYGN9lrgCVnR4ljYdeIr0YXs59991XDZPhLV485oDSY8mMNXvDR+u44IILlOY+++wjO4C7azjutyhgJixzpiFrAt8YJy8KPSzMCJ/27duHW265RYyNF+L1118LzzzzrJgBTIme5CuvdJSw+N3yNW3a1LD1VluLWfMy8kEv6ZMXllgzd8b4OcKW9Bjzplxgpq9Z3IxzH3bYYSpPBA3+2XqIPfl4sRga6927t+ZXCM/QGoKS8h04cKDKge+2CMPyZAQhdLD4gglntrlh3gmmt/HGTTXkwbDSVVddJQbf4aWXtLwZepigZwzeWI60y0ceeTTsZtoTtEOfytUuSpcePX7JL+nBGIiPsmS7Fuqd7YcYjiMs5Q5zQfCiNTOUW2+teurpkgeWURMPbYW62HqbbcJa9epJY4J2yg2GR1nglwUcrqnBMDe3+mJ4hnLHH/lhLoQ6pd5hvMTR4eUOEnoMgVHHlCXL4V0Q1q1XV0KD+RzKbfJkym0TCSDovvrqq3Wn/Jm/Ih0WaDC8WHyrixk8QpuyYc6GeKlL8ovdmnXWDLs3313LqBEUlAF5oP6IdPvtt9fwHEOPjB4QnqFe4kIThw6WzTPkTd1tv932qme0CQQ6bZz0GXVYxeqMPFCX1AmfL/BOUYZorfhn7o2l8NC4ZbMtVVb4543nDaPTh/kTK7vHHn1EHSrPD+UsYWXufNdEW5ti2g1uP/T8IUz+63/t3M1uHEUQB/A9cOFChGwicSGOhISIEREvQQ7kHcITxI/hd0COwg3zAORqCYkXQETkDAjWSIEEhGJOpn41U7u9w4xjfLFw5r8e73R3dXd1dXd19dc+zzKSq/Jq12SJd+3d9QRtQj87PPwi0v0r69+g9Nb161kuPErfwziwp0RnaJMO5TiM8fi7x2nclh5BW5jvEV0hqEiXRKtRxr+wdLrfmyvr0T4CBaVB2oOhrMsitK+yd/9+dhZ3PeDg4CAVvI1wG5Cl/KrZeKfEbUzrlNuhbKt5FV3b4IbQ0A0oy+iU1sXR+85N1Yh2cvJ3KsvXwlK/cWMnZ3fyehYdiSXu/tPNmzuLn37slpLMPnSw2x/eTsULrHvlZqHZe1Hu4olyMWtyWINVSLnVaR9p5WZ/0FpSka9O5McgLf19HUp+e2srlacZgyUO/LuzY9lv+csylTylh5duqeePxa/Hx7n+HsSL92JA+SaU6NHRUd75wqMZj2UQA5K7Ww8OHuSASw73Pr0XCvmz1R0kSs5gnwqpL5PyKC/j4o1r11K2ZKxe8YoXfBogzWLQKTe5qMtSFAbcP4Pfkpulu5IbOjMvcvPjry7yUjpQCgUluVHi4tlnk7Y7Od4/CqX3LPgkN8tor8es+P2Qhxk5uaElu51QpL+HfLVbMzbG061buznIWUo2iyQfbZzyZaWTje8qyxjIk6x8MxI85GIAfCeUrjKTKQPEwGCvRBsnx3b2tjxehuL/dvFmhDEQGAMOHqgDA4BlXCdL636bdqQsZGiwZBjog9x+ST3jRb7q6d2QqQFOeyBXp/UcFJFmEKWMq495yM4AZ2nWMqN6NZhB1d3PEe5UpDydFpWwwYlOMMAyHPBQ7ZaOUF7xHZSpurFvKEz9ydPAiVd9iqGn3vAGP8Qgqs1b0RhFEM64IojOl08o9+7OT7njaREDzsY9H/dTCu5iuMMRjS3vMOzt7eV9FekMMeYHocDXfEzQFM4OvTiiM0zmXb8B14a38uDrbk6VoS3nVJkvCumH5Th658Idj90Pdk+f/vY03THTOd3f30/+W37rHtF5eTuLShpT6ZT/WfHxNoZItX+7GIaxld/dI/d6hnDvyh2vMFZ6n5djjD8+rSw23uOZal9j8juLHqZkPoaSsTgVy3vbJlpUWAx0Qb/O57w5jqU7xa++X0ChzC3tFI/z0twVQlo8vWVU1k/UcVplrDl+aTmHu949efeot1y6OyunOS1n3bConagyy4COqssr3+XTW2TQhYfbRz7pXltjQ7S+eBDfE40340tbHht0nj7PaOY5A2S5+hZP+aqMRe9NOKzC+nB58MvQePeds4zev+j8Fy9nSvFJmYW7Tdt/NJXW6h0y7fjEN75r2dLpLev0ZmKOKIOZio337a3t3FtA657Px3fuLHZiZpjp9ukn79KMsic/8UCbLxSfVQ4oms6FtPPppPBvrOL1eRe4fXJfpvLrw5Ov8Fqlzb+P38XraCs8HB2vVZ7ON+OgqDI4CGG228qNLA+/PIyZ89t5z6na7RjUY9VBaM3MSx7rPHt+AH/CAR/1Hkje49uTvsLQSKtBqOZ1fk1Yvbfp5JH0Po82PPuFTx9WSHfv53+lnu8Rv9pxxUJfYa1/yTxGj1W+1Te4k8fev77RF/RDs/jib8VXn4/wNq3CvDR3xaAy19XbofXLyu6rPBuV73RtNg5LARpldfDCaPqDRlUYo/2vGM0vnvKj0Mc65hTGeG39RsP772EOaIM4/V9W1kwj6TtHm5+9uUePvlq8eHGSitNjecNDmVoy+v7Jk8XnDx/mKUhLZBW3TQfGeM8s0fIYhA/RpglDd6HSbdEOrhfBVF7Q5pclDVr7LA7I2Ax3DN/SFqPKTw7d/eTu6r7OeaCtp7JukMNe/G3IIx6ulh9o3UOasXK1fsO8h2lDS7/xHk/ReofW3aYzlu4QRSMPaPOBCmvL04ZBG7fSG2LoPw9EM2ZcEnQ8SqguGRr8XdrVQZ1WqqPrYD9HuEvGQ4X5KiEt9kArAxvnHjMld3ycDAOqzfMqy+v/gnkgmjFjxowZl4rZVJgxY8aMGZeIxeIfQNIVommBW6kAAAAASUVORK5CYII2ecj7uuuu265Ncr7VGbn/7Gc/a/m84x3v2EIQBEGwfBGiHiw7FKn85S9/2cgpYomQQRFKxBTBLOLq+1prrdXuAc/73XWkznfkqH6v3xDTtddeu8U7iZBHxO7666/vvvGNb3Q33XRT+01+kbyNN96422KLLdqn3xDvYfAMeYrne9/7XnfDDTesIP6eu/Od79zd7W536zbbbLMVsp1EILpkoAzKIp+bb755t91227WyF1EvMk92yqnsyqmNkFvV93wR+2pX0qp2pZ1CpSHvP/7xj7tvfvOb3c0339zd6U536u5yl7s02ZP5VHUXBEEQLF2EqAfLAohOAcFCapDJ73znO91VV13V3Xjjje0aUoOYCayoP/rRjxo5QnqQNSiS5nfPIUeIWhF1v9dvm2yySbfDDjussMhOGhDpa665pvv0pz/d/c///E93xRVXNFK31VZbdZtuuml3v/vdr9tll13a5zrrrDMl2SvSevHFF3ef+cxnuksuuaS79tpru+9+97vtmR133LF79KMf3e2xxx7dRhtttIJkThLU3XXXXddddNFF3amnntryr87322+/bq+99mrku6+MaRvf/va3u8svv7y1pfXXX7+7xz3u0W299datHYH7Z0vW+232/2/vzkLlqvI9ju/bvov91I0gqGBEFGNa44xDxGhU4gCiOBBxwAcnFBERJI2aBxFRQRwg4KxxNjjFITFxhBhH2iF6W3wQn0T7Qe/z7c+i/1K3bp2cqnNOTNXh94XNOadq15r2Nn7Xf//XKvUZX/WZWLo2JLy3fPedNj/33HPdhx9+2Mb96KOP7k444YTfJ0gzbUsIIYTxJKIe5gUlVz///HP39ddfd5s3b+62bNnSBMvrFQUl1yCS5JzskNbDDjusO+WUU9p75LbKeeWVV7ovv/yySVuvBBG1/fbbrzvttNO6vfbaa6xF3URl48aN3erVq5vsLVy4sFu2bFkTQVL95z//uUmosZhK1I0hWTcOxuann35q0v/yyy+3cSKWxoI0+n0cUzJI8IYNG7pXX321TcCOO+64dt1NtLS5pFgf9cl5+ijqbkJGkt1ne++9d5N7kxP9nKkcK8uh3K+++qp7//3322EyYNKjDlT5xp/E//DDD927777bvfPOO61PJhknn3xym2yN47iHEEKYOTutXLny7//5PYSJhEQSmB9//LF7++23u3Xr1jWRIUAknMCQU0It8ki8pD188cUXTXr8vfvuu3f7779/K09Z5JbsE1ERVXJK4AieyCexJXhEj6RXKsS4YWxE/6W9iMJKqTAexx57bLfHHns0UZfOYQxKVKeCxIva7rzzzu0ghUTWuOs/wTTGJkDjNB7GwATFxG39+vXtqYBrR4SNhUlX9d81dl88//zz3UcffdT64r4wKXOO/pJjY+qpjLSnyssfhbpnlfXBBx90b731Vrt3RfvVaRLg6C3X78bV+yaaUng+//zz9lRjl112aSlMJl0hhBDmD0lqDBONiCThId7SO1566aUWPfY3uRIlP/vss7uzzjqrO/PMM9vvIr9HHnlkExsRdosKlVFRefm/cpi/++679ppyiG0dIrFSDhYtWtQirURt3NEPVE492ZPqQvjIHwnslULjYGxMTETPiamIrnMJus+SdZMUZYwqqsOi3YOOUahr6npKhYKJm7SXyu/Wfv0z6ZDaI5puQubaE3opPUuXLu0WLFjQxuTNN99s5xkb5Y+KPnjaYWJQhzEm39K2BpWpjSZLxt/E0iTDZEG/tm7d2tJ6QgghzC8i6mGiITQER+rAiy++2OSJeIuCnn/++U2yRE9F0km1/OKDDz64W758eRP3Pffcs8krKSVqfpIvQkf2Fy9e3F1++eXdzTff3N1yyy3dqlWruhtvvLG76KKLWjTdZ6dKFxlH+oV8ECWRv/zyS8tFF+Ulg6LS/QKp773lDVP+VFS96iHWpNW1rcPfXi+RHUXYSXc9DTFJ2XXXXdtPUfJCvRZqiry7/hbHkmFPHkSqpbwccMAB7T5yntQTYq/N2jJKe4yRCY6nECaTp5566u9R+2HQdu2wCLgWmbrvQwghzC8i6mGiIUlSXKSpOIicaOPBhxzcUgcIVm8aBkGS6kHUSPgRRxzR8pPJjrL8lPZC/OUp//rrry3P3U+RTKki5Ejqy3zNBzYOUn3ee++9bu3atW1cRXy3N0RTis6TTz7Z3Xrrrd3111/fXXvtte24+uqr29933nlnS2syidLOUXH9yfAgIXad1U/SPTGoHVXq/vFTBNuTGHz77bftMLEbRdKhHcrzRML9557ypGNYfN4kaZImiSGEEEYn/8qHiYQYiaqSO1FNCz7JJcGSJ/23RX9rMt2fP1yC5LzddtutO+igg1oaBAEjfmSNfBF1+cMk9Yknnujuv//+7tFHH23yKsVA3SVJFdUn9i+88EL3+uuvt99FgGeDCL+Jh/6JbEvtIakO7Rh0eKJgLETDPR0YViBrPI2hvGdPJ/Rb/6UBiTZLD9Im580V6tVOciydxILXZ599ttUrH1wUvKLpfvZG1GeC69979KLv6jQJINAi1u6Temrgp9dN1rxO0E3qjPWo7an63YvuUYfJQ3+bpqI+P+z5IYQQJpOIephYSB5Rr3xywkfOpSzIP+6X9MJr3nOudINDDjmkpceAkDogNcHWhlIcyOPjjz/e5NXCPxJPXEFeCf7HH3/czrF9noWIRG5U9El5BPWbb75p8k381emwC42I8yOPPPL/jocffri95zx1E9phIZrGUp0+b/tCixv104JbP0kpUZ5LUVeWiY9+6ptx88Rj3333besIal3AkiVL2rqAAw88sE2wnDOTaLLxdQzCmGuLCQER9zRGPb33kKco7hupJ56yGGeTiKnK3BYl2oPu0RBCCAER9TCxkCM5xySZRPqbQEkjkLKwLZHzHhEn9fKOibpFhQRN3jp5P+qoo7p99tmn7ahBykS1CbvIOoktESfWoqrSJuzgYXcVwitCOwraL6pP/Gp7wMcee6yln6hb1NmOJK+99lprg2PNmjWtTSYHdirxGfUrYxShdq4+avcnn3zS6pHuUmkwnjKon6jr71ygTpMJu7C88cYbrY+ehlx66aXdNddc01122WXdhRde2F1wwQXtOO+881o+t2tClofN5zauvUc/9boxc5jwEfRBC2XdI95zmKgZM/fgoHL/KKr9O7INIYQQtg8R9TDRkCrySLAIFVEnWIRqGHym0g8qB1nk9pJLLuluuumm7rbbbmu50XaKIfUl7KLOUlFAGKVDkEwRXwtZRfS9NgoVSZd68tRTT7XJgHbZqUaO9pVXXtmdc845bRGrsuXZS90544wzunPPPbcd3j/ppJPae8OOAaoPJif2QtcPudOi2ST54osvbjufeG2UcrcF0RWt98SidulZsWLF7ws25Wyry0GY65hJJL0mBX7qqzL7I9naU08h3Avq6p8M1Ge9bxLjKUQ9WfmjqXtXn/x3MJOc/RBCCONNRD1MPBVNJHBEyjGMzBGd/oP4VH4yMZeCYTtG2zsSZt/iSYyk2oh6izarm+QeeuihTabtCGORqsj+KJgE2E1EqouItqjx4Ycf3sqyW43FjRbKmgQQZjJOan05DkEXcSbtRN5n9UWfhqH6TkJNGEx+pHmoy24n6jYuU6UTzQQpRp6EeBKhTCkt+kU4pZ8Y2zo8NfHUwhhp37DRY9dKPZ4GyD8X/Xat7ALUvxi4ytSW3qMXf7u3HL2CPGx75hITGd8TYHJqQbV70jjN1ROPEEIIO56IephoCBPBJJAgT0TFz1EpMasySSsJIpAizLV/OoknjBZ5Sn8haqSJ2Murtv0joR5lFw/CpyzyL9ddlLb2yibkpFJ7lGn/cj+l6RBbW/w5TySfVDt/1Mhz9V2EWDsIn/KJoDrUZwLknLnCuHmCQDId+m4ffOsAKrWnDvn3zzzzTFtIO+xCWWVLq5Fvb5EvWSfoJlQ1ptVvR03wlOv+GVR+vefo/eyOQEqWJyruN5MRT3msUfDtpu7NHRXpDyGEMHdE1MPEQpAINeEi1CRKxJRsSmGYTuSGpRaeVu46gSbN0m1Efk0MCF6lRTiGjeoXpEp0maxKBxH1VY9UHOXoa0kiwS1RVE9NVBx+r7pHEcgqmwRbUGkiYjGlSYmJgXLnGnUSbtfLt2taUErIH3zwwe6hhx76P4fXSOimTZvaJGIYUReJN+l5+umnm6jrlz3RDz/i8LaGof/pgMmNa+c119Q490fvjVFF0Y1J72f+aIi6JyqeuLjexs+i4g0bNrSnB7UoOoQQwuQSUQ8TDdmSkkGkSZQo6mx24pgKImQBoYisaCx5rdfnAqIuqizqaxGntBn1kLFC/8iXvjnfBEXftWu2GCuTHG2oRbLqN67GeHtBcLXfJMgTC7nwFpD2H9KJpPfImTeJGaZNxlC02RdbSSEi1sb3n//9z4ETOWPpcJ5xlv5Dynsh6Mbe5wn6XI3/TNBGuxLZjtPEyhoJX5xkjYHx3FHtCiGEMHdE1MPEQvJE0gmlXGrSTNS///77lvc8l7m66nL8aac/NUmsKP6w0jgdhJBsidCTQWknJFDEtiCHJJ6ckUV1S00h87ON6JoElKirQ6qLiL6yt5eoE2J9INQmPq6j1KETTzyxLYjtPez24ltmFy1a1M7Vpun6rA/SkUj66aef3naL8cTA4lVrAfq3mtRXaT7KF+U3Dv1RaePuGpksuf6eePjcXE3YRsGTBX2xd74nBMZNP6U/1RqFEEIIk01EPUwsRE3UkODVt5CSL5Iu5aFymQdB0IhvfVmSbQn7xa0X0Vdl/fbrb91v//Nbi6aSuvrmynqfbJM8v48S0VcvQXf4XZlkVBqLcryuP9JjpHCQeAtM9b1yrWeDOrVd+SY7lZ+ubuNCWP0+Sp+mQ7u1XySY6FbOvzG1LkD/6jBp8BqpN/bOn67PxlA/fJOoRcGkXT9N5Iwh6e6l6pXuQ9JNWoxJb59JujYaE9dfu7RJW9xP3nfUlo1zOV79aJsFpNrp3jcRMWEl6TVGIYQQJpv8Sx4mEmLkICSimnJ1yTq5JS/ydcm6L0MiTQStxIlQkdE6zzaIFh0SLALndUfJnMh8RbNJ3r9++VcTI4Ipqqod6iCavrBHWfVtnsNCqrS9oqDq9XnCXxLtS4fsZy6aq25ipu9kfjpp3RbGRB9rImAcjKv2iN4TQZOPuUYdJFqU3MTDZMk3on766actT981IsS9R60/6M8dnwrjakxdpxJYY6uc/icuIuNy2Am9sZfnLWqtPnX5nPFw+Ns1cL7POd+9YR99izl9s63rZII1XTu97xr33qPDoGz3hc/pX6XtDDOJCSGEMBlE1MNEQ0qkTyxevLjl54ooEs6NGzd29957b9sJg3ySGpAa73/22We/f5unfdHJESFz/l133dXdcccd7YuFStbJq0i9XUf8bc9vi/hA+NThS3tWrlzZ3X777W2LRa8NC4GUckH6iLd9xck+WdV2iy3t266tItFytWuv87nAhICQq1f/9MnCVuOkbu/PNfop4i01xR7txsCOL6tWreoeeOCBbv369W2yRdwd9pc3URHRLnmeS6TK2EHHtdUuEwcTNsJtPIyPbTNdV2sVtNsTAXjNrjQ33HBDd91113X33Xdf948v/jHUBEfZxnd7jHEIIYTJZqd/i8Xf//N7CBNHRdblcktdcPjdjh8i0CKbmzdv/j1yvm7duvbtnSKfJFg01yJGqRGiovJ95f1u2bKlSRlR9U2dJNlrZMqXAjlq9xevibKSSTtuEGsCJ9oq4j0shK0i86RQBJ84k1PlijJLR5GLLJebpE+Xq21iYpJBOEmv801mbOcoAkuW1UtGjZVvNbXg0liYANn+z7n9dVU018TBOJswLViwoB2iu/VkYFtUWSYe0kdE1wkyESfJxtyEy+TJJMgkyet1rZ2r/dNhDLTVtdRW2KJRmosyesdPW7zmuhpv18Fkzf1k4iZarq9Lly7tli1b1q6zCYNJlfaZTDjfa3/9y19b2o7yfKYfY+ha+5x7sr74SXu9Z8JkHKV3DbrO2uZ6mVCJ7nuq5J4LIYQwf4ioh4mHwFR6A7kU7SSWtWMJka7UCVIqckrSSDphk0JC/EBQCVJFa/0kg5ULL4ptJxG7alTai3N8RvSUaHvPnuais1JkhoHIaasyRdbVp0+ETfsJJMEmzr50SVsIa7+89TOMqMO4aD9h97q2++Ik/TU5MGa9dc2FqBe9146sO0xw5IoTeNfT4XXia7Gk37VpkAD30yvqxgGDRL3uI6+pW/n+dk1NmkzsvO76L1mypMmxc6AO94Bxgc/5kijpWO7DQe005iYlnlgo37gr09jrvzFxX7qHBl3riHoIIcx//uvf/4OZ2+fHIexAiBKxkt5CgERF5RmTULJEfEgQiSKgpKyk0medK8VFVJlEETCiVZJY0uozJV/OUaeoqogvyVa+z5CtYamIunrJLxEzcajyyDlxLUGdTtKhT8ZARHr16tXts6LBtjpUHnGHyYC+kz5Cqt2kW30ksT9yrV2eIqxZs6alqBgPO7M4jK/PjILJjnHUXmWbMJhYkd96X5+NBXHtzceeDmWKXEtzevPNN1s9V111VUtdMQHoL8P79ZSE2LuPagJDhD1J8bmKcmubVBzXy1MbUXfX0FOX5cuXt3Gue6wX7fIZaTMmEtAW5TlE9U04B02UvG/icc8993Rr165t0f0VK1a0lKgQQgjzh4h6mJcQGeLrIF7+BtkhnXX0UucQKJ+rv1Hnb0uQSzS977xtnTsV6lROtbsoKXWMgvb0i/rxxx/fRJ0Alqir1+F8P9Wjv9o/qA8l6nLKpeXMVtT76e17P1O1aSr0qUTd2gFSfcUVV3THHHNMa2v/fYAaj7qH/K7Oqa6D9jqk6Uhh8RSDpItyT7V9Y9UxXV99tr+/2iQl6+67725pMxH1EEKYn4z2f/0QJggCRkRJo9QRh9+ni8R6XzTTuXVM9xmUyA1z7rbw2WpDHSXNs6WEchDVfmPm5zD1lWzONeqe6pgJrn093RDFricH00lyXQf3wLaug4i4nHoRdRMBi5ulF6lzW232njKnOqa6j0Ts7QVfOfcmYNoYQghhfpEc9TAvIUDTHf0MOmfQMRWjnDsVg8roPUaFiMp/JnUisFKCiDUBFfWVXuIckldiOKhO54hME0TbEBJdCycthLSNIRGW6y9Xmpwqfzb0t6H/GBX90lfpPaLrxgH6THK1H1V2f339Rz/GxjirxxhYoyDlZVuyPajcqQ64BlKByPmmTZvaUxILgKUoWRC9cOHCoddEhBBCmAwi6iHMY8idNBW7lkhV8XdJdG0dKO+7cr5LCvsh92RUGXL4t27d2oRRXr4IvLxtEWQLaYnvbEV9rqknKxUVtxbAWPib3Fq7UJOUmaIs6xLksfupztmU14/xF7m3T79Jl7FXjzUHtgq1/7s6QwghzB+Sox7CPIaMiiRbsCgCLiJuoSSBJK7y1O0CQ/II+1TRX+X4nIWVFszKey/ZFY0mjCLJFtwqhwyPG9pqcmILRBMNfdB27baTzrYmKtNR6T/1c6pxnA0mXK6fnV70we5A9nx37cZxchRCCGH2RNRDmMcQR4Iqb5qkisr6GyXrZNVPf08lqspxSL0gjL1fOOQzosnK8XO2kentRfXBhEMf9EU7tbu2aZxpu2ssiu3RfwtIXT8TL30wGdJuUXS/j+OYhxBCmB0R9RDmOSWoJZO9UllSPYzk9ZfTS28Z4y6M/f2otk9Cu1ETLVTkftzbHkIIYWZE1EMIIYQQQhhD5j6RMoQQQgghhDBrIuohhBBCCCGMIRH1EEIIIYQQxpCIegghhBBCCGNIRD2EEEIIIYQxJKIeQgghhBDCGBJRDyGEEEIIYQyJqIcQQgghhDCGRNRDCCGEEEIYQyLqIYQQQgghjCER9RBCCCGEEMaQiHoIIYQQQghjSEQ9hBBCCCGEMSSiHkIIIYQQwhgSUQ8hhBBCCGEMiaiHEEIIIYQwhkTUQwghhBBCGDu67n8Bs2VtNJDYTaEAAAAASUVORK5CYII=;" parent="1" vertex="1">
          <mxGeometry x="159" y="57.75" width="160.71" height="96.5" as="geometry" />
        </mxCell>
        <mxCell id="6vxJXJ5NOJiFdx2TQZ2P-19" value="&lt;h3&gt;&lt;span style=&quot;font-weight: normal&quot;&gt;&lt;font style=&quot;font-size: 16px&quot;&gt;基于AC框架的PPO算法&lt;/font&gt;&lt;/span&gt;&lt;/h3&gt;" style="rounded=1;whiteSpace=wrap;html=1;" parent="1" vertex="1">
          <mxGeometry x="16" y="455" width="120" height="60" as="geometry" />
        </mxCell>
        <mxCell id="6vxJXJ5NOJiFdx2TQZ2P-20" value="&lt;h3&gt;&lt;span style=&quot;font-weight: normal&quot;&gt;&lt;font style=&quot;font-size: 16px&quot;&gt;引入LSTM层的PPO算法&lt;/font&gt;&lt;/span&gt;&lt;/h3&gt;" style="rounded=1;whiteSpace=wrap;html=1;" parent="1" vertex="1">
          <mxGeometry x="256" y="455" width="120" height="60" as="geometry" />
        </mxCell>
        <mxCell id="6vxJXJ5NOJiFdx2TQZ2P-21" value="" style="endArrow=classic;html=1;entryX=0.5;entryY=0;entryDx=0;entryDy=0;exitX=0.5;exitY=1;exitDx=0;exitDy=0;" parent="1" source="6vxJXJ5NOJiFdx2TQZ2P-6" target="6vxJXJ5NOJiFdx2TQZ2P-19" edge="1">
          <mxGeometry relative="1" as="geometry">
            <mxPoint x="76" y="410" as="sourcePoint" />
            <mxPoint x="75.5" y="455" as="targetPoint" />
          </mxGeometry>
        </mxCell>
        <mxCell id="6vxJXJ5NOJiFdx2TQZ2P-22" value="训练智能体" style="edgeLabel;resizable=0;html=1;align=center;verticalAlign=middle;" parent="6vxJXJ5NOJiFdx2TQZ2P-21" connectable="0" vertex="1">
          <mxGeometry relative="1" as="geometry" />
        </mxCell>
        <mxCell id="6vxJXJ5NOJiFdx2TQZ2P-23" value="" style="endArrow=classic;html=1;entryX=0.5;entryY=0;entryDx=0;entryDy=0;exitX=0.5;exitY=1;exitDx=0;exitDy=0;" parent="1" source="6vxJXJ5NOJiFdx2TQZ2P-4" target="6vxJXJ5NOJiFdx2TQZ2P-20" edge="1">
          <mxGeometry relative="1" as="geometry">
            <mxPoint x="86" y="405" as="sourcePoint" />
            <mxPoint x="86" y="461" as="targetPoint" />
          </mxGeometry>
        </mxCell>
        <mxCell id="6vxJXJ5NOJiFdx2TQZ2P-24" value="训练智能体" style="edgeLabel;resizable=0;html=1;align=center;verticalAlign=middle;" parent="6vxJXJ5NOJiFdx2TQZ2P-23" connectable="0" vertex="1">
          <mxGeometry relative="1" as="geometry" />
        </mxCell>
        <mxCell id="6vxJXJ5NOJiFdx2TQZ2P-25" value="" style="endArrow=classic;startArrow=classic;html=1;entryX=0;entryY=0.5;entryDx=0;entryDy=0;exitX=1;exitY=0.5;exitDx=0;exitDy=0;" parent="1" source="6vxJXJ5NOJiFdx2TQZ2P-19" target="6vxJXJ5NOJiFdx2TQZ2P-20" edge="1">
          <mxGeometry width="50" height="50" relative="1" as="geometry">
            <mxPoint x="159" y="480" as="sourcePoint" />
            <mxPoint x="209" y="430" as="targetPoint" />
          </mxGeometry>
        </mxCell>
        <mxCell id="6vxJXJ5NOJiFdx2TQZ2P-26" value="性能比较" style="text;html=1;strokeColor=none;fillColor=none;align=center;verticalAlign=middle;whiteSpace=wrap;rounded=0;" parent="1" vertex="1">
          <mxGeometry x="169" y="461" width="57" height="20" as="geometry" />
        </mxCell>
        <mxCell id="_prZIamfgrxNrLQFxVpL-20" style="rounded=0;orthogonalLoop=1;jettySize=auto;html=1;exitX=0.5;exitY=0;exitDx=0;exitDy=0;entryX=0.5;entryY=1;entryDx=0;entryDy=0;endArrow=none;endFill=0;" edge="1" parent="1" source="_prZIamfgrxNrLQFxVpL-1" target="_prZIamfgrxNrLQFxVpL-7">
          <mxGeometry relative="1" as="geometry" />
        </mxCell>
        <mxCell id="_prZIamfgrxNrLQFxVpL-21" style="edgeStyle=none;rounded=0;orthogonalLoop=1;jettySize=auto;html=1;exitX=0.5;exitY=0;exitDx=0;exitDy=0;entryX=0.5;entryY=1;entryDx=0;entryDy=0;endArrow=none;endFill=0;" edge="1" parent="1" source="_prZIamfgrxNrLQFxVpL-1" target="_prZIamfgrxNrLQFxVpL-8">
          <mxGeometry relative="1" as="geometry" />
        </mxCell>
        <mxCell id="_prZIamfgrxNrLQFxVpL-22" style="edgeStyle=none;rounded=0;orthogonalLoop=1;jettySize=auto;html=1;exitX=0.5;exitY=0;exitDx=0;exitDy=0;entryX=0.5;entryY=1;entryDx=0;entryDy=0;endArrow=none;endFill=0;" edge="1" parent="1" source="_prZIamfgrxNrLQFxVpL-1" target="_prZIamfgrxNrLQFxVpL-9">
          <mxGeometry relative="1" as="geometry" />
        </mxCell>
        <mxCell id="_prZIamfgrxNrLQFxVpL-1" value="" style="ellipse;whiteSpace=wrap;html=1;aspect=fixed;fillColor=#dae8fc;strokeColor=#6c8ebf;" vertex="1" parent="1">
          <mxGeometry x="508" y="278" width="13" height="13" as="geometry" />
        </mxCell>
        <mxCell id="_prZIamfgrxNrLQFxVpL-23" style="edgeStyle=none;rounded=0;orthogonalLoop=1;jettySize=auto;html=1;exitX=0.5;exitY=0;exitDx=0;exitDy=0;entryX=0.5;entryY=1;entryDx=0;entryDy=0;endArrow=none;endFill=0;" edge="1" parent="1" source="_prZIamfgrxNrLQFxVpL-2" target="_prZIamfgrxNrLQFxVpL-7">
          <mxGeometry relative="1" as="geometry" />
        </mxCell>
        <mxCell id="_prZIamfgrxNrLQFxVpL-33" style="edgeStyle=none;rounded=0;orthogonalLoop=1;jettySize=auto;html=1;exitX=0.5;exitY=0;exitDx=0;exitDy=0;entryX=0.5;entryY=1;entryDx=0;entryDy=0;endArrow=none;endFill=0;" edge="1" parent="1" source="_prZIamfgrxNrLQFxVpL-2" target="_prZIamfgrxNrLQFxVpL-9">
          <mxGeometry relative="1" as="geometry" />
        </mxCell>
        <mxCell id="_prZIamfgrxNrLQFxVpL-2" value="" style="ellipse;whiteSpace=wrap;html=1;aspect=fixed;fillColor=#dae8fc;strokeColor=#6c8ebf;" vertex="1" parent="1">
          <mxGeometry x="534" y="278" width="13" height="13" as="geometry" />
        </mxCell>
        <mxCell id="_prZIamfgrxNrLQFxVpL-24" style="edgeStyle=none;rounded=0;orthogonalLoop=1;jettySize=auto;html=1;exitX=0.5;exitY=0;exitDx=0;exitDy=0;entryX=0.5;entryY=1;entryDx=0;entryDy=0;endArrow=none;endFill=0;" edge="1" parent="1" source="_prZIamfgrxNrLQFxVpL-3" target="_prZIamfgrxNrLQFxVpL-7">
          <mxGeometry relative="1" as="geometry" />
        </mxCell>
        <mxCell id="_prZIamfgrxNrLQFxVpL-29" style="edgeStyle=none;rounded=0;orthogonalLoop=1;jettySize=auto;html=1;exitX=0.5;exitY=0;exitDx=0;exitDy=0;entryX=0.5;entryY=1;entryDx=0;entryDy=0;endArrow=none;endFill=0;" edge="1" parent="1" source="_prZIamfgrxNrLQFxVpL-3" target="_prZIamfgrxNrLQFxVpL-8">
          <mxGeometry relative="1" as="geometry" />
        </mxCell>
        <mxCell id="_prZIamfgrxNrLQFxVpL-32" style="edgeStyle=none;rounded=0;orthogonalLoop=1;jettySize=auto;html=1;exitX=0.5;exitY=0;exitDx=0;exitDy=0;entryX=0.5;entryY=1;entryDx=0;entryDy=0;endArrow=none;endFill=0;" edge="1" parent="1" source="_prZIamfgrxNrLQFxVpL-3" target="_prZIamfgrxNrLQFxVpL-9">
          <mxGeometry relative="1" as="geometry" />
        </mxCell>
        <mxCell id="_prZIamfgrxNrLQFxVpL-3" value="" style="ellipse;whiteSpace=wrap;html=1;aspect=fixed;fillColor=#dae8fc;strokeColor=#6c8ebf;" vertex="1" parent="1">
          <mxGeometry x="560" y="278" width="13" height="13" as="geometry" />
        </mxCell>
        <mxCell id="_prZIamfgrxNrLQFxVpL-25" style="edgeStyle=none;rounded=0;orthogonalLoop=1;jettySize=auto;html=1;exitX=0.5;exitY=0;exitDx=0;exitDy=0;entryX=0.5;entryY=1;entryDx=0;entryDy=0;endArrow=none;endFill=0;" edge="1" parent="1" source="_prZIamfgrxNrLQFxVpL-4" target="_prZIamfgrxNrLQFxVpL-8">
          <mxGeometry relative="1" as="geometry" />
        </mxCell>
        <mxCell id="_prZIamfgrxNrLQFxVpL-27" style="edgeStyle=none;rounded=0;orthogonalLoop=1;jettySize=auto;html=1;exitX=0.5;exitY=0;exitDx=0;exitDy=0;entryX=0.5;entryY=1;entryDx=0;entryDy=0;endArrow=none;endFill=0;" edge="1" parent="1" source="_prZIamfgrxNrLQFxVpL-4" target="_prZIamfgrxNrLQFxVpL-9">
          <mxGeometry relative="1" as="geometry" />
        </mxCell>
        <mxCell id="_prZIamfgrxNrLQFxVpL-30" style="edgeStyle=none;rounded=0;orthogonalLoop=1;jettySize=auto;html=1;exitX=0.5;exitY=0;exitDx=0;exitDy=0;entryX=0.5;entryY=1;entryDx=0;entryDy=0;endArrow=none;endFill=0;" edge="1" parent="1" source="_prZIamfgrxNrLQFxVpL-4" target="_prZIamfgrxNrLQFxVpL-7">
          <mxGeometry relative="1" as="geometry" />
        </mxCell>
        <mxCell id="_prZIamfgrxNrLQFxVpL-4" value="" style="ellipse;whiteSpace=wrap;html=1;aspect=fixed;fillColor=#dae8fc;strokeColor=#6c8ebf;" vertex="1" parent="1">
          <mxGeometry x="586" y="278" width="13" height="13" as="geometry" />
        </mxCell>
        <mxCell id="_prZIamfgrxNrLQFxVpL-26" style="edgeStyle=none;rounded=0;orthogonalLoop=1;jettySize=auto;html=1;exitX=0.5;exitY=0;exitDx=0;exitDy=0;endArrow=none;endFill=0;" edge="1" parent="1" source="_prZIamfgrxNrLQFxVpL-5">
          <mxGeometry relative="1" as="geometry">
            <mxPoint x="566.2222086588541" y="258.83334181043836" as="targetPoint" />
          </mxGeometry>
        </mxCell>
        <mxCell id="_prZIamfgrxNrLQFxVpL-28" style="edgeStyle=none;rounded=0;orthogonalLoop=1;jettySize=auto;html=1;exitX=0.5;exitY=0;exitDx=0;exitDy=0;endArrow=none;endFill=0;" edge="1" parent="1" source="_prZIamfgrxNrLQFxVpL-5">
          <mxGeometry relative="1" as="geometry">
            <mxPoint x="591.9999830457899" y="259.05556064181854" as="targetPoint" />
          </mxGeometry>
        </mxCell>
        <mxCell id="_prZIamfgrxNrLQFxVpL-31" style="edgeStyle=none;rounded=0;orthogonalLoop=1;jettySize=auto;html=1;exitX=0.5;exitY=0;exitDx=0;exitDy=0;endArrow=none;endFill=0;" edge="1" parent="1" source="_prZIamfgrxNrLQFxVpL-5">
          <mxGeometry relative="1" as="geometry">
            <mxPoint x="539.5555419921875" y="259.05556064181854" as="targetPoint" />
          </mxGeometry>
        </mxCell>
        <mxCell id="_prZIamfgrxNrLQFxVpL-5" value="" style="ellipse;whiteSpace=wrap;html=1;aspect=fixed;fillColor=#dae8fc;strokeColor=#6c8ebf;" vertex="1" parent="1">
          <mxGeometry x="611" y="278" width="13" height="13" as="geometry" />
        </mxCell>
        <mxCell id="_prZIamfgrxNrLQFxVpL-34" style="edgeStyle=none;rounded=0;orthogonalLoop=1;jettySize=auto;html=1;exitX=0.5;exitY=0;exitDx=0;exitDy=0;entryX=0.5;entryY=1;entryDx=0;entryDy=0;endArrow=none;endFill=0;" edge="1" parent="1" source="_prZIamfgrxNrLQFxVpL-7" target="_prZIamfgrxNrLQFxVpL-13">
          <mxGeometry relative="1" as="geometry" />
        </mxCell>
        <mxCell id="_prZIamfgrxNrLQFxVpL-37" style="edgeStyle=none;rounded=0;orthogonalLoop=1;jettySize=auto;html=1;exitX=0.5;exitY=0;exitDx=0;exitDy=0;entryX=0.5;entryY=1;entryDx=0;entryDy=0;endArrow=none;endFill=0;" edge="1" parent="1" source="_prZIamfgrxNrLQFxVpL-7" target="_prZIamfgrxNrLQFxVpL-14">
          <mxGeometry relative="1" as="geometry" />
        </mxCell>
        <mxCell id="_prZIamfgrxNrLQFxVpL-40" style="edgeStyle=none;rounded=0;orthogonalLoop=1;jettySize=auto;html=1;exitX=0.5;exitY=0;exitDx=0;exitDy=0;entryX=0.5;entryY=1;entryDx=0;entryDy=0;endArrow=none;endFill=0;" edge="1" parent="1" source="_prZIamfgrxNrLQFxVpL-7" target="_prZIamfgrxNrLQFxVpL-15">
          <mxGeometry relative="1" as="geometry" />
        </mxCell>
        <mxCell id="_prZIamfgrxNrLQFxVpL-44" style="edgeStyle=none;rounded=0;orthogonalLoop=1;jettySize=auto;html=1;exitX=0.5;exitY=0;exitDx=0;exitDy=0;entryX=0.5;entryY=1;entryDx=0;entryDy=0;endArrow=none;endFill=0;" edge="1" parent="1" source="_prZIamfgrxNrLQFxVpL-7" target="_prZIamfgrxNrLQFxVpL-16">
          <mxGeometry relative="1" as="geometry" />
        </mxCell>
        <mxCell id="_prZIamfgrxNrLQFxVpL-7" value="" style="ellipse;whiteSpace=wrap;html=1;aspect=fixed;fillColor=#fff2cc;strokeColor=#d6b656;" vertex="1" parent="1">
          <mxGeometry x="534" y="246" width="13" height="13" as="geometry" />
        </mxCell>
        <mxCell id="_prZIamfgrxNrLQFxVpL-35" style="edgeStyle=none;rounded=0;orthogonalLoop=1;jettySize=auto;html=1;exitX=0.5;exitY=0;exitDx=0;exitDy=0;entryX=0.5;entryY=1;entryDx=0;entryDy=0;endArrow=none;endFill=0;" edge="1" parent="1" source="_prZIamfgrxNrLQFxVpL-8" target="_prZIamfgrxNrLQFxVpL-14">
          <mxGeometry relative="1" as="geometry" />
        </mxCell>
        <mxCell id="_prZIamfgrxNrLQFxVpL-38" style="edgeStyle=none;rounded=0;orthogonalLoop=1;jettySize=auto;html=1;exitX=0.5;exitY=0;exitDx=0;exitDy=0;entryX=0.5;entryY=1;entryDx=0;entryDy=0;endArrow=none;endFill=0;" edge="1" parent="1" source="_prZIamfgrxNrLQFxVpL-8" target="_prZIamfgrxNrLQFxVpL-15">
          <mxGeometry relative="1" as="geometry" />
        </mxCell>
        <mxCell id="_prZIamfgrxNrLQFxVpL-41" style="edgeStyle=none;rounded=0;orthogonalLoop=1;jettySize=auto;html=1;exitX=0.5;exitY=0;exitDx=0;exitDy=0;entryX=0.5;entryY=1;entryDx=0;entryDy=0;endArrow=none;endFill=0;" edge="1" parent="1" source="_prZIamfgrxNrLQFxVpL-8" target="_prZIamfgrxNrLQFxVpL-16">
          <mxGeometry relative="1" as="geometry" />
        </mxCell>
        <mxCell id="_prZIamfgrxNrLQFxVpL-43" style="edgeStyle=none;rounded=0;orthogonalLoop=1;jettySize=auto;html=1;exitX=0.5;exitY=0;exitDx=0;exitDy=0;entryX=0.5;entryY=1;entryDx=0;entryDy=0;endArrow=none;endFill=0;" edge="1" parent="1" source="_prZIamfgrxNrLQFxVpL-8" target="_prZIamfgrxNrLQFxVpL-13">
          <mxGeometry relative="1" as="geometry" />
        </mxCell>
        <mxCell id="_prZIamfgrxNrLQFxVpL-8" value="" style="ellipse;whiteSpace=wrap;html=1;aspect=fixed;fillColor=#fff2cc;strokeColor=#d6b656;" vertex="1" parent="1">
          <mxGeometry x="560" y="246" width="13" height="13" as="geometry" />
        </mxCell>
        <mxCell id="_prZIamfgrxNrLQFxVpL-36" style="edgeStyle=none;rounded=0;orthogonalLoop=1;jettySize=auto;html=1;exitX=0.5;exitY=0;exitDx=0;exitDy=0;entryX=0.5;entryY=1;entryDx=0;entryDy=0;endArrow=none;endFill=0;" edge="1" parent="1" source="_prZIamfgrxNrLQFxVpL-9" target="_prZIamfgrxNrLQFxVpL-15">
          <mxGeometry relative="1" as="geometry" />
        </mxCell>
        <mxCell id="_prZIamfgrxNrLQFxVpL-39" style="edgeStyle=none;rounded=0;orthogonalLoop=1;jettySize=auto;html=1;exitX=0.5;exitY=0;exitDx=0;exitDy=0;entryX=0.5;entryY=1;entryDx=0;entryDy=0;endArrow=none;endFill=0;" edge="1" parent="1" source="_prZIamfgrxNrLQFxVpL-9" target="_prZIamfgrxNrLQFxVpL-16">
          <mxGeometry relative="1" as="geometry" />
        </mxCell>
        <mxCell id="_prZIamfgrxNrLQFxVpL-42" style="edgeStyle=none;rounded=0;orthogonalLoop=1;jettySize=auto;html=1;exitX=0.5;exitY=0;exitDx=0;exitDy=0;entryX=0.5;entryY=1;entryDx=0;entryDy=0;endArrow=none;endFill=0;" edge="1" parent="1" source="_prZIamfgrxNrLQFxVpL-9" target="_prZIamfgrxNrLQFxVpL-14">
          <mxGeometry relative="1" as="geometry" />
        </mxCell>
        <mxCell id="_prZIamfgrxNrLQFxVpL-45" style="edgeStyle=none;rounded=0;orthogonalLoop=1;jettySize=auto;html=1;exitX=0.5;exitY=0;exitDx=0;exitDy=0;entryX=0.5;entryY=1;entryDx=0;entryDy=0;endArrow=none;endFill=0;" edge="1" parent="1" source="_prZIamfgrxNrLQFxVpL-9" target="_prZIamfgrxNrLQFxVpL-13">
          <mxGeometry relative="1" as="geometry" />
        </mxCell>
        <mxCell id="_prZIamfgrxNrLQFxVpL-9" value="" style="ellipse;whiteSpace=wrap;html=1;aspect=fixed;fillColor=#fff2cc;strokeColor=#d6b656;" vertex="1" parent="1">
          <mxGeometry x="586" y="246" width="13" height="13" as="geometry" />
        </mxCell>
        <mxCell id="_prZIamfgrxNrLQFxVpL-46" style="edgeStyle=none;rounded=0;orthogonalLoop=1;jettySize=auto;html=1;exitX=0.5;exitY=0;exitDx=0;exitDy=0;entryX=0.5;entryY=1;entryDx=0;entryDy=0;endArrow=none;endFill=0;" edge="1" parent="1" source="_prZIamfgrxNrLQFxVpL-13" target="_prZIamfgrxNrLQFxVpL-17">
          <mxGeometry relative="1" as="geometry" />
        </mxCell>
        <mxCell id="_prZIamfgrxNrLQFxVpL-50" style="edgeStyle=none;rounded=0;orthogonalLoop=1;jettySize=auto;html=1;exitX=0.5;exitY=0;exitDx=0;exitDy=0;entryX=0.5;entryY=1;entryDx=0;entryDy=0;endArrow=none;endFill=0;" edge="1" parent="1" source="_prZIamfgrxNrLQFxVpL-13" target="_prZIamfgrxNrLQFxVpL-18">
          <mxGeometry relative="1" as="geometry" />
        </mxCell>
        <mxCell id="_prZIamfgrxNrLQFxVpL-13" value="" style="ellipse;whiteSpace=wrap;html=1;aspect=fixed;fillColor=#fff2cc;strokeColor=#d6b656;" vertex="1" parent="1">
          <mxGeometry x="521" y="217" width="13" height="13" as="geometry" />
        </mxCell>
        <mxCell id="_prZIamfgrxNrLQFxVpL-47" style="edgeStyle=none;rounded=0;orthogonalLoop=1;jettySize=auto;html=1;exitX=0.5;exitY=0;exitDx=0;exitDy=0;endArrow=none;endFill=0;" edge="1" parent="1" source="_prZIamfgrxNrLQFxVpL-14">
          <mxGeometry relative="1" as="geometry">
            <mxPoint x="553.48322147651" y="197.86576689649746" as="targetPoint" />
          </mxGeometry>
        </mxCell>
        <mxCell id="_prZIamfgrxNrLQFxVpL-51" style="edgeStyle=none;rounded=0;orthogonalLoop=1;jettySize=auto;html=1;exitX=0.5;exitY=0;exitDx=0;exitDy=0;endArrow=none;endFill=0;" edge="1" parent="1" source="_prZIamfgrxNrLQFxVpL-14">
          <mxGeometry relative="1" as="geometry">
            <mxPoint x="579.6040153759437" y="198.08053281643248" as="targetPoint" />
          </mxGeometry>
        </mxCell>
        <mxCell id="_prZIamfgrxNrLQFxVpL-14" value="" style="ellipse;whiteSpace=wrap;html=1;aspect=fixed;fillColor=#fff2cc;strokeColor=#d6b656;" vertex="1" parent="1">
          <mxGeometry x="547" y="217" width="13" height="13" as="geometry" />
        </mxCell>
        <mxCell id="_prZIamfgrxNrLQFxVpL-48" style="edgeStyle=none;rounded=0;orthogonalLoop=1;jettySize=auto;html=1;exitX=0.5;exitY=0;exitDx=0;exitDy=0;endArrow=none;endFill=0;" edge="1" parent="1" source="_prZIamfgrxNrLQFxVpL-15">
          <mxGeometry relative="1" as="geometry">
            <mxPoint x="553.0805287201132" y="197.6510009765625" as="targetPoint" />
          </mxGeometry>
        </mxCell>
        <mxCell id="_prZIamfgrxNrLQFxVpL-52" style="edgeStyle=none;rounded=0;orthogonalLoop=1;jettySize=auto;html=1;exitX=0.5;exitY=0;exitDx=0;exitDy=0;endArrow=none;endFill=0;" edge="1" parent="1" source="_prZIamfgrxNrLQFxVpL-15">
          <mxGeometry relative="1" as="geometry">
            <mxPoint x="579.5234899328859" y="197.97314780830538" as="targetPoint" />
          </mxGeometry>
        </mxCell>
        <mxCell id="_prZIamfgrxNrLQFxVpL-15" value="" style="ellipse;whiteSpace=wrap;html=1;aspect=fixed;fillColor=#fff2cc;strokeColor=#d6b656;" vertex="1" parent="1">
          <mxGeometry x="573" y="217" width="13" height="13" as="geometry" />
        </mxCell>
        <mxCell id="_prZIamfgrxNrLQFxVpL-49" style="edgeStyle=none;rounded=0;orthogonalLoop=1;jettySize=auto;html=1;exitX=0.5;exitY=0;exitDx=0;exitDy=0;entryX=0.5;entryY=1;entryDx=0;entryDy=0;endArrow=none;endFill=0;" edge="1" parent="1" source="_prZIamfgrxNrLQFxVpL-16" target="_prZIamfgrxNrLQFxVpL-17">
          <mxGeometry relative="1" as="geometry" />
        </mxCell>
        <mxCell id="_prZIamfgrxNrLQFxVpL-53" style="edgeStyle=none;rounded=0;orthogonalLoop=1;jettySize=auto;html=1;exitX=0.5;exitY=0;exitDx=0;exitDy=0;endArrow=none;endFill=0;" edge="1" parent="1" source="_prZIamfgrxNrLQFxVpL-16">
          <mxGeometry relative="1" as="geometry">
            <mxPoint x="579.0671026242659" y="198.08053281643248" as="targetPoint" />
          </mxGeometry>
        </mxCell>
        <mxCell id="_prZIamfgrxNrLQFxVpL-16" value="" style="ellipse;whiteSpace=wrap;html=1;aspect=fixed;fillColor=#fff2cc;strokeColor=#d6b656;" vertex="1" parent="1">
          <mxGeometry x="599" y="217" width="13" height="13" as="geometry" />
        </mxCell>
        <mxCell id="_prZIamfgrxNrLQFxVpL-17" value="" style="ellipse;whiteSpace=wrap;html=1;aspect=fixed;fillColor=#d5e8d4;strokeColor=#82b366;" vertex="1" parent="1">
          <mxGeometry x="547" y="185" width="13" height="13" as="geometry" />
        </mxCell>
        <mxCell id="_prZIamfgrxNrLQFxVpL-18" value="" style="ellipse;whiteSpace=wrap;html=1;aspect=fixed;fillColor=#d5e8d4;strokeColor=#82b366;" vertex="1" parent="1">
          <mxGeometry x="573" y="185" width="13" height="13" as="geometry" />
        </mxCell>
        <mxCell id="_prZIamfgrxNrLQFxVpL-54" style="rounded=0;orthogonalLoop=1;jettySize=auto;html=1;exitX=0.5;exitY=0;exitDx=0;exitDy=0;entryX=0.5;entryY=1;entryDx=0;entryDy=0;endArrow=none;endFill=0;" edge="1" parent="1" source="_prZIamfgrxNrLQFxVpL-57" target="_prZIamfgrxNrLQFxVpL-77">
          <mxGeometry relative="1" as="geometry" />
        </mxCell>
        <mxCell id="_prZIamfgrxNrLQFxVpL-55" style="edgeStyle=none;rounded=0;orthogonalLoop=1;jettySize=auto;html=1;exitX=0.5;exitY=0;exitDx=0;exitDy=0;entryX=0.5;entryY=1;entryDx=0;entryDy=0;endArrow=none;endFill=0;" edge="1" parent="1" source="_prZIamfgrxNrLQFxVpL-57" target="_prZIamfgrxNrLQFxVpL-82">
          <mxGeometry relative="1" as="geometry" />
        </mxCell>
        <mxCell id="_prZIamfgrxNrLQFxVpL-56" style="edgeStyle=none;rounded=0;orthogonalLoop=1;jettySize=auto;html=1;exitX=0.5;exitY=0;exitDx=0;exitDy=0;entryX=0.5;entryY=1;entryDx=0;entryDy=0;endArrow=none;endFill=0;" edge="1" parent="1" source="_prZIamfgrxNrLQFxVpL-57" target="_prZIamfgrxNrLQFxVpL-87">
          <mxGeometry relative="1" as="geometry" />
        </mxCell>
        <mxCell id="_prZIamfgrxNrLQFxVpL-57" value="" style="ellipse;whiteSpace=wrap;html=1;aspect=fixed;fillColor=#dae8fc;strokeColor=#6c8ebf;" vertex="1" parent="1">
          <mxGeometry x="656" y="278" width="13" height="13" as="geometry" />
        </mxCell>
        <mxCell id="_prZIamfgrxNrLQFxVpL-58" style="edgeStyle=none;rounded=0;orthogonalLoop=1;jettySize=auto;html=1;exitX=0.5;exitY=0;exitDx=0;exitDy=0;entryX=0.5;entryY=1;entryDx=0;entryDy=0;endArrow=none;endFill=0;" edge="1" parent="1" source="_prZIamfgrxNrLQFxVpL-60" target="_prZIamfgrxNrLQFxVpL-77">
          <mxGeometry relative="1" as="geometry" />
        </mxCell>
        <mxCell id="_prZIamfgrxNrLQFxVpL-59" style="edgeStyle=none;rounded=0;orthogonalLoop=1;jettySize=auto;html=1;exitX=0.5;exitY=0;exitDx=0;exitDy=0;entryX=0.5;entryY=1;entryDx=0;entryDy=0;endArrow=none;endFill=0;" edge="1" parent="1" source="_prZIamfgrxNrLQFxVpL-60" target="_prZIamfgrxNrLQFxVpL-87">
          <mxGeometry relative="1" as="geometry" />
        </mxCell>
        <mxCell id="_prZIamfgrxNrLQFxVpL-60" value="" style="ellipse;whiteSpace=wrap;html=1;aspect=fixed;fillColor=#dae8fc;strokeColor=#6c8ebf;" vertex="1" parent="1">
          <mxGeometry x="682" y="278" width="13" height="13" as="geometry" />
        </mxCell>
        <mxCell id="_prZIamfgrxNrLQFxVpL-61" style="edgeStyle=none;rounded=0;orthogonalLoop=1;jettySize=auto;html=1;exitX=0.5;exitY=0;exitDx=0;exitDy=0;entryX=0.5;entryY=1;entryDx=0;entryDy=0;endArrow=none;endFill=0;" edge="1" parent="1" source="_prZIamfgrxNrLQFxVpL-64" target="_prZIamfgrxNrLQFxVpL-77">
          <mxGeometry relative="1" as="geometry" />
        </mxCell>
        <mxCell id="_prZIamfgrxNrLQFxVpL-62" style="edgeStyle=none;rounded=0;orthogonalLoop=1;jettySize=auto;html=1;exitX=0.5;exitY=0;exitDx=0;exitDy=0;entryX=0.5;entryY=1;entryDx=0;entryDy=0;endArrow=none;endFill=0;" edge="1" parent="1" source="_prZIamfgrxNrLQFxVpL-64" target="_prZIamfgrxNrLQFxVpL-82">
          <mxGeometry relative="1" as="geometry" />
        </mxCell>
        <mxCell id="_prZIamfgrxNrLQFxVpL-63" style="edgeStyle=none;rounded=0;orthogonalLoop=1;jettySize=auto;html=1;exitX=0.5;exitY=0;exitDx=0;exitDy=0;entryX=0.5;entryY=1;entryDx=0;entryDy=0;endArrow=none;endFill=0;" edge="1" parent="1" source="_prZIamfgrxNrLQFxVpL-64" target="_prZIamfgrxNrLQFxVpL-87">
          <mxGeometry relative="1" as="geometry" />
        </mxCell>
        <mxCell id="_prZIamfgrxNrLQFxVpL-64" value="" style="ellipse;whiteSpace=wrap;html=1;aspect=fixed;fillColor=#dae8fc;strokeColor=#6c8ebf;" vertex="1" parent="1">
          <mxGeometry x="708" y="278" width="13" height="13" as="geometry" />
        </mxCell>
        <mxCell id="_prZIamfgrxNrLQFxVpL-65" style="edgeStyle=none;rounded=0;orthogonalLoop=1;jettySize=auto;html=1;exitX=0.5;exitY=0;exitDx=0;exitDy=0;entryX=0.5;entryY=1;entryDx=0;entryDy=0;endArrow=none;endFill=0;" edge="1" parent="1" source="_prZIamfgrxNrLQFxVpL-68" target="_prZIamfgrxNrLQFxVpL-82">
          <mxGeometry relative="1" as="geometry" />
        </mxCell>
        <mxCell id="_prZIamfgrxNrLQFxVpL-66" style="edgeStyle=none;rounded=0;orthogonalLoop=1;jettySize=auto;html=1;exitX=0.5;exitY=0;exitDx=0;exitDy=0;entryX=0.5;entryY=1;entryDx=0;entryDy=0;endArrow=none;endFill=0;" edge="1" parent="1" source="_prZIamfgrxNrLQFxVpL-68" target="_prZIamfgrxNrLQFxVpL-87">
          <mxGeometry relative="1" as="geometry" />
        </mxCell>
        <mxCell id="_prZIamfgrxNrLQFxVpL-67" style="edgeStyle=none;rounded=0;orthogonalLoop=1;jettySize=auto;html=1;exitX=0.5;exitY=0;exitDx=0;exitDy=0;entryX=0.5;entryY=1;entryDx=0;entryDy=0;endArrow=none;endFill=0;" edge="1" parent="1" source="_prZIamfgrxNrLQFxVpL-68" target="_prZIamfgrxNrLQFxVpL-77">
          <mxGeometry relative="1" as="geometry" />
        </mxCell>
        <mxCell id="_prZIamfgrxNrLQFxVpL-68" value="" style="ellipse;whiteSpace=wrap;html=1;aspect=fixed;fillColor=#dae8fc;strokeColor=#6c8ebf;" vertex="1" parent="1">
          <mxGeometry x="734" y="278" width="13" height="13" as="geometry" />
        </mxCell>
        <mxCell id="_prZIamfgrxNrLQFxVpL-69" style="edgeStyle=none;rounded=0;orthogonalLoop=1;jettySize=auto;html=1;exitX=0.5;exitY=0;exitDx=0;exitDy=0;endArrow=none;endFill=0;" edge="1" parent="1" source="_prZIamfgrxNrLQFxVpL-72">
          <mxGeometry relative="1" as="geometry">
            <mxPoint x="714.2222086588541" y="258.83334181043836" as="targetPoint" />
          </mxGeometry>
        </mxCell>
        <mxCell id="_prZIamfgrxNrLQFxVpL-70" style="edgeStyle=none;rounded=0;orthogonalLoop=1;jettySize=auto;html=1;exitX=0.5;exitY=0;exitDx=0;exitDy=0;endArrow=none;endFill=0;" edge="1" parent="1" source="_prZIamfgrxNrLQFxVpL-72">
          <mxGeometry relative="1" as="geometry">
            <mxPoint x="739.9999830457898" y="259.05556064181854" as="targetPoint" />
          </mxGeometry>
        </mxCell>
        <mxCell id="_prZIamfgrxNrLQFxVpL-71" style="edgeStyle=none;rounded=0;orthogonalLoop=1;jettySize=auto;html=1;exitX=0.5;exitY=0;exitDx=0;exitDy=0;endArrow=none;endFill=0;" edge="1" parent="1" source="_prZIamfgrxNrLQFxVpL-72">
          <mxGeometry relative="1" as="geometry">
            <mxPoint x="687.5555419921875" y="259.05556064181854" as="targetPoint" />
          </mxGeometry>
        </mxCell>
        <mxCell id="_prZIamfgrxNrLQFxVpL-72" value="" style="ellipse;whiteSpace=wrap;html=1;aspect=fixed;fillColor=#dae8fc;strokeColor=#6c8ebf;" vertex="1" parent="1">
          <mxGeometry x="759" y="278" width="13" height="13" as="geometry" />
        </mxCell>
        <mxCell id="_prZIamfgrxNrLQFxVpL-73" style="edgeStyle=none;rounded=0;orthogonalLoop=1;jettySize=auto;html=1;exitX=0.5;exitY=0;exitDx=0;exitDy=0;entryX=0.5;entryY=1;entryDx=0;entryDy=0;endArrow=none;endFill=0;" edge="1" parent="1" source="_prZIamfgrxNrLQFxVpL-77" target="_prZIamfgrxNrLQFxVpL-90">
          <mxGeometry relative="1" as="geometry" />
        </mxCell>
        <mxCell id="_prZIamfgrxNrLQFxVpL-74" style="edgeStyle=none;rounded=0;orthogonalLoop=1;jettySize=auto;html=1;exitX=0.5;exitY=0;exitDx=0;exitDy=0;entryX=0.5;entryY=1;entryDx=0;entryDy=0;endArrow=none;endFill=0;" edge="1" parent="1" source="_prZIamfgrxNrLQFxVpL-77" target="_prZIamfgrxNrLQFxVpL-93">
          <mxGeometry relative="1" as="geometry" />
        </mxCell>
        <mxCell id="_prZIamfgrxNrLQFxVpL-75" style="edgeStyle=none;rounded=0;orthogonalLoop=1;jettySize=auto;html=1;exitX=0.5;exitY=0;exitDx=0;exitDy=0;entryX=0.5;entryY=1;entryDx=0;entryDy=0;endArrow=none;endFill=0;" edge="1" parent="1" source="_prZIamfgrxNrLQFxVpL-77" target="_prZIamfgrxNrLQFxVpL-96">
          <mxGeometry relative="1" as="geometry" />
        </mxCell>
        <mxCell id="_prZIamfgrxNrLQFxVpL-76" style="edgeStyle=none;rounded=0;orthogonalLoop=1;jettySize=auto;html=1;exitX=0.5;exitY=0;exitDx=0;exitDy=0;entryX=0.5;entryY=1;entryDx=0;entryDy=0;endArrow=none;endFill=0;" edge="1" parent="1" source="_prZIamfgrxNrLQFxVpL-77" target="_prZIamfgrxNrLQFxVpL-99">
          <mxGeometry relative="1" as="geometry" />
        </mxCell>
        <mxCell id="_prZIamfgrxNrLQFxVpL-77" value="" style="ellipse;whiteSpace=wrap;html=1;aspect=fixed;fillColor=#fff2cc;strokeColor=#d6b656;" vertex="1" parent="1">
          <mxGeometry x="682" y="246" width="13" height="13" as="geometry" />
        </mxCell>
        <mxCell id="_prZIamfgrxNrLQFxVpL-78" style="edgeStyle=none;rounded=0;orthogonalLoop=1;jettySize=auto;html=1;exitX=0.5;exitY=0;exitDx=0;exitDy=0;entryX=0.5;entryY=1;entryDx=0;entryDy=0;endArrow=none;endFill=0;" edge="1" parent="1" source="_prZIamfgrxNrLQFxVpL-82" target="_prZIamfgrxNrLQFxVpL-93">
          <mxGeometry relative="1" as="geometry" />
        </mxCell>
        <mxCell id="_prZIamfgrxNrLQFxVpL-79" style="edgeStyle=none;rounded=0;orthogonalLoop=1;jettySize=auto;html=1;exitX=0.5;exitY=0;exitDx=0;exitDy=0;entryX=0.5;entryY=1;entryDx=0;entryDy=0;endArrow=none;endFill=0;" edge="1" parent="1" source="_prZIamfgrxNrLQFxVpL-82" target="_prZIamfgrxNrLQFxVpL-96">
          <mxGeometry relative="1" as="geometry" />
        </mxCell>
        <mxCell id="_prZIamfgrxNrLQFxVpL-80" style="edgeStyle=none;rounded=0;orthogonalLoop=1;jettySize=auto;html=1;exitX=0.5;exitY=0;exitDx=0;exitDy=0;entryX=0.5;entryY=1;entryDx=0;entryDy=0;endArrow=none;endFill=0;" edge="1" parent="1" source="_prZIamfgrxNrLQFxVpL-82" target="_prZIamfgrxNrLQFxVpL-99">
          <mxGeometry relative="1" as="geometry" />
        </mxCell>
        <mxCell id="_prZIamfgrxNrLQFxVpL-81" style="edgeStyle=none;rounded=0;orthogonalLoop=1;jettySize=auto;html=1;exitX=0.5;exitY=0;exitDx=0;exitDy=0;entryX=0.5;entryY=1;entryDx=0;entryDy=0;endArrow=none;endFill=0;" edge="1" parent="1" source="_prZIamfgrxNrLQFxVpL-82" target="_prZIamfgrxNrLQFxVpL-90">
          <mxGeometry relative="1" as="geometry" />
        </mxCell>
        <mxCell id="_prZIamfgrxNrLQFxVpL-82" value="" style="ellipse;whiteSpace=wrap;html=1;aspect=fixed;fillColor=#fff2cc;strokeColor=#d6b656;" vertex="1" parent="1">
          <mxGeometry x="708" y="246" width="13" height="13" as="geometry" />
        </mxCell>
        <mxCell id="_prZIamfgrxNrLQFxVpL-83" style="edgeStyle=none;rounded=0;orthogonalLoop=1;jettySize=auto;html=1;exitX=0.5;exitY=0;exitDx=0;exitDy=0;entryX=0.5;entryY=1;entryDx=0;entryDy=0;endArrow=none;endFill=0;" edge="1" parent="1" source="_prZIamfgrxNrLQFxVpL-87" target="_prZIamfgrxNrLQFxVpL-96">
          <mxGeometry relative="1" as="geometry" />
        </mxCell>
        <mxCell id="_prZIamfgrxNrLQFxVpL-84" style="edgeStyle=none;rounded=0;orthogonalLoop=1;jettySize=auto;html=1;exitX=0.5;exitY=0;exitDx=0;exitDy=0;entryX=0.5;entryY=1;entryDx=0;entryDy=0;endArrow=none;endFill=0;" edge="1" parent="1" source="_prZIamfgrxNrLQFxVpL-87" target="_prZIamfgrxNrLQFxVpL-99">
          <mxGeometry relative="1" as="geometry" />
        </mxCell>
        <mxCell id="_prZIamfgrxNrLQFxVpL-85" style="edgeStyle=none;rounded=0;orthogonalLoop=1;jettySize=auto;html=1;exitX=0.5;exitY=0;exitDx=0;exitDy=0;entryX=0.5;entryY=1;entryDx=0;entryDy=0;endArrow=none;endFill=0;" edge="1" parent="1" source="_prZIamfgrxNrLQFxVpL-87" target="_prZIamfgrxNrLQFxVpL-93">
          <mxGeometry relative="1" as="geometry" />
        </mxCell>
        <mxCell id="_prZIamfgrxNrLQFxVpL-86" style="edgeStyle=none;rounded=0;orthogonalLoop=1;jettySize=auto;html=1;exitX=0.5;exitY=0;exitDx=0;exitDy=0;entryX=0.5;entryY=1;entryDx=0;entryDy=0;endArrow=none;endFill=0;" edge="1" parent="1" source="_prZIamfgrxNrLQFxVpL-87" target="_prZIamfgrxNrLQFxVpL-90">
          <mxGeometry relative="1" as="geometry" />
        </mxCell>
        <mxCell id="_prZIamfgrxNrLQFxVpL-87" value="" style="ellipse;whiteSpace=wrap;html=1;aspect=fixed;fillColor=#fff2cc;strokeColor=#d6b656;" vertex="1" parent="1">
          <mxGeometry x="734" y="246" width="13" height="13" as="geometry" />
        </mxCell>
        <mxCell id="_prZIamfgrxNrLQFxVpL-120" style="edgeStyle=none;rounded=0;orthogonalLoop=1;jettySize=auto;html=1;exitX=0.5;exitY=0;exitDx=0;exitDy=0;entryX=0.5;entryY=1;entryDx=0;entryDy=0;endArrow=none;endFill=0;" edge="1" parent="1" source="_prZIamfgrxNrLQFxVpL-90" target="_prZIamfgrxNrLQFxVpL-119">
          <mxGeometry relative="1" as="geometry" />
        </mxCell>
        <mxCell id="_prZIamfgrxNrLQFxVpL-90" value="" style="ellipse;whiteSpace=wrap;html=1;aspect=fixed;fillColor=#fff2cc;strokeColor=#d6b656;" vertex="1" parent="1">
          <mxGeometry x="669" y="217" width="13" height="13" as="geometry" />
        </mxCell>
        <mxCell id="_prZIamfgrxNrLQFxVpL-121" style="edgeStyle=none;rounded=0;orthogonalLoop=1;jettySize=auto;html=1;exitX=0.5;exitY=0;exitDx=0;exitDy=0;entryX=0.5;entryY=1;entryDx=0;entryDy=0;endArrow=none;endFill=0;" edge="1" parent="1" source="_prZIamfgrxNrLQFxVpL-93" target="_prZIamfgrxNrLQFxVpL-119">
          <mxGeometry relative="1" as="geometry" />
        </mxCell>
        <mxCell id="_prZIamfgrxNrLQFxVpL-93" value="" style="ellipse;whiteSpace=wrap;html=1;aspect=fixed;fillColor=#fff2cc;strokeColor=#d6b656;" vertex="1" parent="1">
          <mxGeometry x="695" y="217" width="13" height="13" as="geometry" />
        </mxCell>
        <mxCell id="_prZIamfgrxNrLQFxVpL-122" style="edgeStyle=none;rounded=0;orthogonalLoop=1;jettySize=auto;html=1;exitX=0.5;exitY=0;exitDx=0;exitDy=0;entryX=0.5;entryY=1;entryDx=0;entryDy=0;endArrow=none;endFill=0;" edge="1" parent="1" source="_prZIamfgrxNrLQFxVpL-96" target="_prZIamfgrxNrLQFxVpL-119">
          <mxGeometry relative="1" as="geometry" />
        </mxCell>
        <mxCell id="_prZIamfgrxNrLQFxVpL-96" value="" style="ellipse;whiteSpace=wrap;html=1;aspect=fixed;fillColor=#fff2cc;strokeColor=#d6b656;" vertex="1" parent="1">
          <mxGeometry x="721" y="217" width="13" height="13" as="geometry" />
        </mxCell>
        <mxCell id="_prZIamfgrxNrLQFxVpL-123" style="edgeStyle=none;rounded=0;orthogonalLoop=1;jettySize=auto;html=1;exitX=0.5;exitY=0;exitDx=0;exitDy=0;entryX=0.5;entryY=1;entryDx=0;entryDy=0;endArrow=none;endFill=0;" edge="1" parent="1" source="_prZIamfgrxNrLQFxVpL-99" target="_prZIamfgrxNrLQFxVpL-119">
          <mxGeometry relative="1" as="geometry" />
        </mxCell>
        <mxCell id="_prZIamfgrxNrLQFxVpL-99" value="" style="ellipse;whiteSpace=wrap;html=1;aspect=fixed;fillColor=#fff2cc;strokeColor=#d6b656;" vertex="1" parent="1">
          <mxGeometry x="747" y="217" width="13" height="13" as="geometry" />
        </mxCell>
        <mxCell id="_prZIamfgrxNrLQFxVpL-100" value="" style="ellipse;whiteSpace=wrap;html=1;aspect=fixed;fillColor=#d5e8d4;strokeColor=#82b366;" vertex="1" parent="1">
          <mxGeometry x="694" y="163" width="13" height="13" as="geometry" />
        </mxCell>
        <mxCell id="_prZIamfgrxNrLQFxVpL-105" value="" style="ellipse;whiteSpace=wrap;html=1;aspect=fixed;fillColor=#d5e8d4;strokeColor=#82b366;" vertex="1" parent="1">
          <mxGeometry x="721" y="163" width="13" height="13" as="geometry" />
        </mxCell>
        <mxCell id="_prZIamfgrxNrLQFxVpL-124" style="edgeStyle=none;rounded=0;orthogonalLoop=1;jettySize=auto;html=1;exitX=0.5;exitY=0;exitDx=0;exitDy=0;entryX=0.5;entryY=1;entryDx=0;entryDy=0;endArrow=none;endFill=0;" edge="1" parent="1" source="_prZIamfgrxNrLQFxVpL-119" target="_prZIamfgrxNrLQFxVpL-100">
          <mxGeometry relative="1" as="geometry" />
        </mxCell>
        <mxCell id="_prZIamfgrxNrLQFxVpL-125" style="edgeStyle=none;rounded=0;orthogonalLoop=1;jettySize=auto;html=1;exitX=0.5;exitY=0;exitDx=0;exitDy=0;entryX=0.5;entryY=1;entryDx=0;entryDy=0;endArrow=none;endFill=0;" edge="1" parent="1" source="_prZIamfgrxNrLQFxVpL-119" target="_prZIamfgrxNrLQFxVpL-105">
          <mxGeometry relative="1" as="geometry" />
        </mxCell>
        <mxCell id="_prZIamfgrxNrLQFxVpL-119" value="LSTM" style="rounded=1;whiteSpace=wrap;html=1;strokeColor=#000000;fillColor=#ffffff;" vertex="1" parent="1">
          <mxGeometry x="687.12" y="188" width="54.75" height="13" as="geometry" />
        </mxCell>
        <mxCell id="_prZIamfgrxNrLQFxVpL-126" value="输入状态" style="text;html=1;strokeColor=none;fillColor=none;align=center;verticalAlign=middle;whiteSpace=wrap;rounded=0;" vertex="1" parent="1">
          <mxGeometry x="535" y="296" width="63" height="20" as="geometry" />
        </mxCell>
        <mxCell id="_prZIamfgrxNrLQFxVpL-127" value="输入状态" style="text;html=1;strokeColor=none;fillColor=none;align=center;verticalAlign=middle;whiteSpace=wrap;rounded=0;" vertex="1" parent="1">
          <mxGeometry x="683" y="296" width="63" height="20" as="geometry" />
        </mxCell>
        <mxCell id="_prZIamfgrxNrLQFxVpL-128" value="输出" style="text;html=1;strokeColor=none;fillColor=none;align=center;verticalAlign=middle;whiteSpace=wrap;rounded=0;" vertex="1" parent="1">
          <mxGeometry x="536" y="159.5" width="63" height="20" as="geometry" />
        </mxCell>
        <mxCell id="_prZIamfgrxNrLQFxVpL-129" value="输出" style="text;html=1;strokeColor=none;fillColor=none;align=center;verticalAlign=middle;whiteSpace=wrap;rounded=0;" vertex="1" parent="1">
          <mxGeometry x="682" y="139.5" width="63" height="20" as="geometry" />
        </mxCell>
      </root>
    </mxGraphModel>
  </diagram>
</mxfile>
